M48
;Layer_Color=9474304
;FILE_FORMAT=4:4
METRIC,TZ
;TYPE=PLATED
T1F00S00C0.3100
T3F00S00C0.7112
T4F00S00C0.8900
T5F00S00C1.0000
T6F00S00C1.0200
T7F00S00C1.7000
T8F00S00C1.8034
T9F00S00C3.1000
%
T01
X183048Y94234
X191788
X213048Y92710
X221788
X243048Y93218
X251788
X272542Y93472
X292373Y91340
X302758Y96277
X309129Y212932
X301244Y235458
X365105Y259484
X271780Y327660
Y351473
Y375285
X465074Y240284
X518250Y249500
X511500Y259750
X520870Y219751
X508497Y212383
X531518Y229538
X543726Y237820
X542590Y204646
X549656Y179832
X564852Y179876
X582535Y180094
X592571Y179984
X623864Y178348
X604774Y211074
X591058Y211836
X572180Y215444
X532638Y180594
X483831Y154366
X442214Y166624
X426466Y199390
X689356Y200406
X688687Y145615
X690417Y137267
X696691Y142982
X715772Y157480
X717550Y378206
X802250Y600500
X734822Y591058
X724154Y555498
X706882Y555752
X715010Y541274
X671068Y554736
X662670Y554651
X674310Y449956
X528684Y429006
X519944
X495658Y429260
X486918
X503174Y462280
X511914
X470141Y699528
X469900Y709930
X447548Y695452
X407924Y702056
X415544Y720598
X399736Y769934
X497586Y783082
X520446Y792988
X725000Y642500
X388874Y707136
X365354Y690000
X294644Y687787
Y699680
Y711573
X294640Y675894
X305308
X283972
X389890Y763016
X137668Y735076
X201930Y517525
X212407Y508000
Y527050
X222885Y517525
X233363Y508000
Y527050
X243840Y517525
X271780Y422910
Y399098
X194056Y422402
X178054Y422148
X185928Y434594
X169926Y434340
X183134Y814832
X137500Y807500
X100553Y806234
X147500Y867500
X136895Y916529
X182363Y960255
Y972148
Y984041
X182367Y995934
X193035
X171699
X237490Y928624
X236220Y911098
X261112Y885190
X277876Y881888
X265830Y857250
X285574Y827639
X304546Y828294
X344170Y828548
X364744Y864362
X325374Y866902
X335534Y960120
X219710Y837438
X401574Y836422
X409904Y832095
X409702Y816356
X447802Y833882
X468122Y848360
X499872Y863092
X510540Y824484
X526626Y799168
X525280Y981095
X505714Y964184
X585978Y966978
X637794Y955294
X697992Y997458
X431382Y981095
X418084Y932688
X416814Y917194
X426974Y911098
X405638Y926084
T03
X106716Y540850
X127812
X148908
T04
X201730Y176089
Y201489
Y226889
Y252289
Y277689
X227130Y264989
Y239589
Y214189
Y188789
Y290389
T05
X79529Y559719
Y669719
T06
X92530Y165989
X112830
Y300489
X92530
X395395Y107667
Y82267
X420795
Y107667
X446195
Y82267
X471595
Y107667
X496995
X522395
X547795
X573195
X598595
X623995
Y82267
X598595
X573195
X547795
X522395
X496995
X684391Y664600
X709791
X735191
Y690000
X709791
X684391
Y742200
Y767600
Y793000
X709791
X735191
Y767600
Y742200
X709791
Y767600
Y818400
X735191
Y843800
Y869200
Y894600
X709791
Y920000
Y945400
X684391
Y920000
Y894600
Y869200
X709791
Y843800
X684391
Y818400
X735191Y920000
Y945400
T07
X168730Y154489
Y311989
X179529Y589719
Y639719
T08
X584064Y602777
X284090
Y902751
X584064
T09
X89700Y90107
X775700Y90510
X89700Y1010510
X775700
M30
