G04*
G04 #@! TF.GenerationSoftware,Altium Limited,Altium Designer,23.4.1 (23)*
G04*
G04 Layer_Color=16711935*
%FSLAX44Y44*%
%MOMM*%
G71*
G04*
G04 #@! TF.SameCoordinates,A498DFDA-0769-4059-8707-A0DE4882B552*
G04*
G04*
G04 #@! TF.FilePolarity,Negative*
G04*
G01*
G75*
%ADD83C,2.8000*%
%ADD85C,0.7604*%
%ADD86C,2.3098*%
G04:AMPARAMS|DCode=87|XSize=1.9mm|YSize=1.1mm|CornerRadius=0.3mm|HoleSize=0mm|Usage=FLASHONLY|Rotation=0.000|XOffset=0mm|YOffset=0mm|HoleType=Round|Shape=RoundedRectangle|*
%AMROUNDEDRECTD87*
21,1,1.9000,0.5000,0,0,0.0*
21,1,1.3000,1.1000,0,0,0.0*
1,1,0.6000,0.6500,-0.2500*
1,1,0.6000,-0.6500,-0.2500*
1,1,0.6000,-0.6500,0.2500*
1,1,0.6000,0.6500,0.2500*
%
%ADD87ROUNDEDRECTD87*%
%ADD88O,2.2000X1.1000*%
%ADD89C,0.7500*%
%ADD90R,2.6500X2.6500*%
%ADD91C,2.6500*%
%ADD92C,1.6080*%
%ADD93C,1.7000*%
%ADD94C,1.6300*%
%ADD95C,1.5460*%
%ADD96C,0.7200*%
%ADD97C,6.5524*%
%ADD98C,1.3700*%
%ADD138C,1.8800*%
%ADD139R,5.7000X2.4000*%
G04:AMPARAMS|DCode=140|XSize=1.6mm|YSize=1.116mm|CornerRadius=0.304mm|HoleSize=0mm|Usage=FLASHONLY|Rotation=270.000|XOffset=0mm|YOffset=0mm|HoleType=Round|Shape=RoundedRectangle|*
%AMROUNDEDRECTD140*
21,1,1.6000,0.5080,0,0,270.0*
21,1,0.9920,1.1160,0,0,270.0*
1,1,0.6080,-0.2540,-0.4960*
1,1,0.6080,-0.2540,0.4960*
1,1,0.6080,0.2540,0.4960*
1,1,0.6080,0.2540,-0.4960*
%
%ADD140ROUNDEDRECTD140*%
G04:AMPARAMS|DCode=141|XSize=1.6mm|YSize=1.116mm|CornerRadius=0.304mm|HoleSize=0mm|Usage=FLASHONLY|Rotation=180.000|XOffset=0mm|YOffset=0mm|HoleType=Round|Shape=RoundedRectangle|*
%AMROUNDEDRECTD141*
21,1,1.6000,0.5080,0,0,180.0*
21,1,0.9920,1.1160,0,0,180.0*
1,1,0.6080,-0.4960,0.2540*
1,1,0.6080,0.4960,0.2540*
1,1,0.6080,0.4960,-0.2540*
1,1,0.6080,-0.4960,-0.2540*
%
%ADD141ROUNDEDRECTD141*%
%ADD142C,1.9800*%
D83*
X778245Y514716D02*
D03*
Y184716D02*
D03*
X298245Y514716D02*
D03*
Y184716D02*
D03*
D85*
X478350Y640605D02*
D03*
Y860841D02*
D03*
D86*
X584064Y602777D02*
D03*
Y902751D02*
D03*
X284090Y602777D02*
D03*
Y902751D02*
D03*
D87*
X76703Y935729D02*
D03*
Y849329D02*
D03*
Y803318D02*
D03*
Y716918D02*
D03*
D88*
X118503Y935729D02*
D03*
Y849329D02*
D03*
Y803318D02*
D03*
Y716918D02*
D03*
D89*
X113503Y863629D02*
D03*
Y921429D02*
D03*
Y731218D02*
D03*
Y789018D02*
D03*
D90*
X179529Y589719D02*
D03*
D91*
Y639719D02*
D03*
X168730Y311989D02*
D03*
Y154489D02*
D03*
D92*
X79529Y669719D02*
D03*
Y559719D02*
D03*
D93*
X138230Y290389D02*
D03*
Y176089D02*
D03*
D94*
X92530Y165989D02*
D03*
X112830D02*
D03*
X92530Y300489D02*
D03*
X112830D02*
D03*
D95*
X201730Y176089D02*
D03*
X227130Y188789D02*
D03*
X201730Y201489D02*
D03*
X227130Y214189D02*
D03*
X201730Y226889D02*
D03*
X227130Y239589D02*
D03*
X201730Y252289D02*
D03*
X227130Y264989D02*
D03*
X201730Y277689D02*
D03*
X227130Y290389D02*
D03*
D96*
X518250Y249500D02*
D03*
X511500Y259750D02*
D03*
X137500Y807500D02*
D03*
X100553Y806234D02*
D03*
X147500Y867500D02*
D03*
X183134Y814832D02*
D03*
X365354Y690000D02*
D03*
X495658Y429260D02*
D03*
X486918D02*
D03*
X389890Y763016D02*
D03*
X399736Y769934D02*
D03*
X409702Y816356D02*
D03*
X505714Y964184D02*
D03*
X447548Y695452D02*
D03*
X243840Y517525D02*
D03*
X365105Y259484D02*
D03*
X309129Y212932D02*
D03*
X724154Y555498D02*
D03*
X715010Y541274D02*
D03*
X706882Y555752D02*
D03*
X401574Y836422D02*
D03*
X409904Y832095D02*
D03*
X465074Y240284D02*
D03*
X572180Y215444D02*
D03*
X591058Y211836D02*
D03*
X542590Y204646D02*
D03*
X191788Y94234D02*
D03*
X183048D02*
D03*
X511914Y462280D02*
D03*
X503174D02*
D03*
X221788Y92710D02*
D03*
X213048D02*
D03*
X528684Y429006D02*
D03*
X519944D02*
D03*
X623864Y178348D02*
D03*
X301244Y235458D02*
D03*
X470141Y699528D02*
D03*
X185928Y434594D02*
D03*
X169926Y434340D02*
D03*
X178054Y422148D02*
D03*
X194056Y422402D02*
D03*
X442214Y166624D02*
D03*
X483831Y154366D02*
D03*
X426466Y199390D02*
D03*
X532638Y180594D02*
D03*
X582535Y180094D02*
D03*
X592571Y179984D02*
D03*
X696691Y142982D02*
D03*
X690417Y137267D02*
D03*
X689356Y200406D02*
D03*
X549656Y179832D02*
D03*
X604774Y211074D02*
D03*
X725000Y642500D02*
D03*
X802250Y600500D02*
D03*
X734822Y591058D02*
D03*
X510540Y824484D02*
D03*
X468122Y848360D02*
D03*
X447802Y833882D02*
D03*
X407924Y702056D02*
D03*
X415544Y720598D02*
D03*
X388874Y707136D02*
D03*
X637794Y955294D02*
D03*
X265830Y857250D02*
D03*
X499872Y863092D02*
D03*
X418084Y932688D02*
D03*
X585978Y966978D02*
D03*
X697992Y997458D02*
D03*
X325374Y866902D02*
D03*
X304546Y828294D02*
D03*
X285574Y827639D02*
D03*
X431382Y981095D02*
D03*
X525280D02*
D03*
X219710Y837438D02*
D03*
X497586Y783082D02*
D03*
X335534Y960120D02*
D03*
X526626Y799168D02*
D03*
X520446Y792988D02*
D03*
X136895Y916529D02*
D03*
X137668Y735076D02*
D03*
X405638Y926084D02*
D03*
X277876Y881888D02*
D03*
X261112Y885190D02*
D03*
X364744Y864362D02*
D03*
X344170Y828548D02*
D03*
X426974Y911098D02*
D03*
X416814Y917194D02*
D03*
X237490Y928624D02*
D03*
X236220Y911098D02*
D03*
X469900Y709930D02*
D03*
X294640Y675894D02*
D03*
X305308D02*
D03*
X283972D02*
D03*
X294644Y699680D02*
D03*
Y711573D02*
D03*
Y687787D02*
D03*
X182363Y984041D02*
D03*
Y960255D02*
D03*
Y972148D02*
D03*
X193035Y995934D02*
D03*
X171699D02*
D03*
X182367D02*
D03*
X717550Y378206D02*
D03*
X662670Y554651D02*
D03*
X671068Y554736D02*
D03*
X674310Y449956D02*
D03*
X292373Y91340D02*
D03*
X302758Y96277D02*
D03*
X508497Y212383D02*
D03*
X543726Y237820D02*
D03*
X531518Y229538D02*
D03*
X520870Y219751D02*
D03*
X564852Y179876D02*
D03*
X715772Y157480D02*
D03*
X272542Y93472D02*
D03*
X688687Y145615D02*
D03*
X251788Y93218D02*
D03*
X243048D02*
D03*
X271780Y351473D02*
D03*
Y399098D02*
D03*
Y422910D02*
D03*
Y375285D02*
D03*
Y327660D02*
D03*
X233363Y508000D02*
D03*
X212407D02*
D03*
X201930Y517525D02*
D03*
X222885D02*
D03*
X212407Y527050D02*
D03*
X233363D02*
D03*
D97*
X775700Y90510D02*
D03*
X89700Y90107D02*
D03*
X775700Y1010510D02*
D03*
X89700D02*
D03*
D98*
X148908Y540850D02*
D03*
X106716D02*
D03*
X127812D02*
D03*
D138*
X623995Y107667D02*
D03*
X598595D02*
D03*
Y82267D02*
D03*
X573195Y107667D02*
D03*
Y82267D02*
D03*
X547795Y107667D02*
D03*
Y82267D02*
D03*
X522395Y107667D02*
D03*
Y82267D02*
D03*
X395395D02*
D03*
Y107667D02*
D03*
X420795Y82267D02*
D03*
Y107667D02*
D03*
X446195Y82267D02*
D03*
Y107667D02*
D03*
X471595Y82267D02*
D03*
Y107667D02*
D03*
X496995Y82267D02*
D03*
Y107667D02*
D03*
X623995Y82267D02*
D03*
D139*
X127950Y564145D02*
D03*
Y638145D02*
D03*
D140*
X325208Y850276D02*
D03*
X305208D02*
D03*
X285208D02*
D03*
X345288D02*
D03*
X365354D02*
D03*
X385420D02*
D03*
X405232D02*
D03*
X346208Y650276D02*
D03*
X326208D02*
D03*
X305208D02*
D03*
X285208D02*
D03*
X367208D02*
D03*
X387208D02*
D03*
D141*
X227708Y820951D02*
D03*
Y800951D02*
D03*
Y780951D02*
D03*
Y760951D02*
D03*
Y740918D02*
D03*
Y720852D02*
D03*
X457708Y820951D02*
D03*
Y800951D02*
D03*
Y780951D02*
D03*
Y760951D02*
D03*
Y740918D02*
D03*
Y720852D02*
D03*
D142*
X709791Y945400D02*
D03*
X684391Y920000D02*
D03*
X735191Y793000D02*
D03*
X684391D02*
D03*
X735191Y894600D02*
D03*
X709791Y920000D02*
D03*
Y894600D02*
D03*
X684391Y767600D02*
D03*
X735191Y869200D02*
D03*
Y818400D02*
D03*
X684391Y945400D02*
D03*
Y742200D02*
D03*
Y869200D02*
D03*
X735191Y920000D02*
D03*
Y945400D02*
D03*
X709791Y818400D02*
D03*
Y869200D02*
D03*
X735191Y742200D02*
D03*
X684391Y894600D02*
D03*
Y818400D02*
D03*
X709791Y843800D02*
D03*
X684391D02*
D03*
X735191D02*
D03*
Y767600D02*
D03*
X709791Y742200D02*
D03*
Y767600D02*
D03*
Y793000D02*
D03*
X735191Y690000D02*
D03*
Y664600D02*
D03*
X709791Y690000D02*
D03*
Y664600D02*
D03*
X684391Y690000D02*
D03*
Y664600D02*
D03*
M02*
