G04*
G04 #@! TF.GenerationSoftware,Altium Limited,Altium Designer,23.4.1 (23)*
G04*
G04 Layer_Color=8388736*
%FSLAX44Y44*%
%MOMM*%
G71*
G04*
G04 #@! TF.SameCoordinates,A498DFDA-0769-4059-8707-A0DE4882B552*
G04*
G04*
G04 #@! TF.FilePolarity,Negative*
G04*
G01*
G75*
%ADD52R,1.5500X0.8000*%
%ADD53R,1.5501X1.1000*%
G04:AMPARAMS|DCode=54|XSize=1.116mm|YSize=3.021mm|CornerRadius=0.558mm|HoleSize=0mm|Usage=FLASHONLY|Rotation=180.000|XOffset=0mm|YOffset=0mm|HoleType=Round|Shape=RoundedRectangle|*
%AMROUNDEDRECTD54*
21,1,1.1160,1.9050,0,0,180.0*
21,1,0.0000,3.0210,0,0,180.0*
1,1,1.1160,0.0000,0.9525*
1,1,1.1160,0.0000,0.9525*
1,1,1.1160,0.0000,-0.9525*
1,1,1.1160,0.0000,-0.9525*
%
%ADD54ROUNDEDRECTD54*%
G04:AMPARAMS|DCode=55|XSize=3.7068mm|YSize=1.9034mm|CornerRadius=0.9517mm|HoleSize=0mm|Usage=FLASHONLY|Rotation=270.000|XOffset=0mm|YOffset=0mm|HoleType=Round|Shape=RoundedRectangle|*
%AMROUNDEDRECTD55*
21,1,3.7068,0.0000,0,0,270.0*
21,1,1.8034,1.9034,0,0,270.0*
1,1,1.9034,0.0000,-0.9017*
1,1,1.9034,0.0000,0.9017*
1,1,1.9034,0.0000,0.9017*
1,1,1.9034,0.0000,-0.9017*
%
%ADD55ROUNDEDRECTD55*%
%ADD56R,0.3000X0.8000*%
G04:AMPARAMS|DCode=57|XSize=0.354mm|YSize=1.2176mm|CornerRadius=0.177mm|HoleSize=0mm|Usage=FLASHONLY|Rotation=90.000|XOffset=0mm|YOffset=0mm|HoleType=Round|Shape=RoundedRectangle|*
%AMROUNDEDRECTD57*
21,1,0.3540,0.8636,0,0,90.0*
21,1,0.0000,1.2176,0,0,90.0*
1,1,0.3540,0.4318,0.0000*
1,1,0.3540,0.4318,0.0000*
1,1,0.3540,-0.4318,0.0000*
1,1,0.3540,-0.4318,0.0000*
%
%ADD57ROUNDEDRECTD57*%
%ADD58R,1.2176X0.3540*%
%ADD59R,2.2082X1.5224*%
%ADD60R,1.6250X0.7500*%
%ADD61R,2.8100X3.4500*%
%ADD62R,1.2500X0.7000*%
%ADD63R,1.2500X0.4000*%
%ADD64R,1.3850X1.5700*%
%ADD65R,1.9000X2.3300*%
%ADD66R,0.7000X1.2000*%
%ADD67R,0.5050X0.8600*%
%ADD68R,2.3350X1.8250*%
%ADD69R,0.5050X1.0900*%
G04:AMPARAMS|DCode=70|XSize=3.1226mm|YSize=1.37mm|CornerRadius=0.685mm|HoleSize=0mm|Usage=FLASHONLY|Rotation=0.000|XOffset=0mm|YOffset=0mm|HoleType=Round|Shape=RoundedRectangle|*
%AMROUNDEDRECTD70*
21,1,3.1226,0.0000,0,0,0.0*
21,1,1.7526,1.3700,0,0,0.0*
1,1,1.3700,0.8763,0.0000*
1,1,1.3700,-0.8763,0.0000*
1,1,1.3700,-0.8763,0.0000*
1,1,1.3700,0.8763,0.0000*
%
%ADD70ROUNDEDRECTD70*%
%ADD71R,2.6200X2.4100*%
%ADD72R,0.8000X1.5500*%
%ADD73R,2.5000X3.5000*%
G04:AMPARAMS|DCode=74|XSize=1.116mm|YSize=1.116mm|CornerRadius=0.558mm|HoleSize=0mm|Usage=FLASHONLY|Rotation=270.000|XOffset=0mm|YOffset=0mm|HoleType=Round|Shape=RoundedRectangle|*
%AMROUNDEDRECTD74*
21,1,1.1160,0.0000,0,0,270.0*
21,1,0.0000,1.1160,0,0,270.0*
1,1,1.1160,0.0000,0.0000*
1,1,1.1160,0.0000,0.0000*
1,1,1.1160,0.0000,0.0000*
1,1,1.1160,0.0000,0.0000*
%
%ADD74ROUNDEDRECTD74*%
G04:AMPARAMS|DCode=75|XSize=1.116mm|YSize=1.116mm|CornerRadius=0.558mm|HoleSize=0mm|Usage=FLASHONLY|Rotation=0.000|XOffset=0mm|YOffset=0mm|HoleType=Round|Shape=RoundedRectangle|*
%AMROUNDEDRECTD75*
21,1,1.1160,0.0000,0,0,0.0*
21,1,0.0000,1.1160,0,0,0.0*
1,1,1.1160,0.0000,0.0000*
1,1,1.1160,0.0000,0.0000*
1,1,1.1160,0.0000,0.0000*
1,1,1.1160,0.0000,0.0000*
%
%ADD75ROUNDEDRECTD75*%
G04:AMPARAMS|DCode=76|XSize=2.9194mm|YSize=1.116mm|CornerRadius=0.558mm|HoleSize=0mm|Usage=FLASHONLY|Rotation=270.000|XOffset=0mm|YOffset=0mm|HoleType=Round|Shape=RoundedRectangle|*
%AMROUNDEDRECTD76*
21,1,2.9194,0.0000,0,0,270.0*
21,1,1.8034,1.1160,0,0,270.0*
1,1,1.1160,0.0000,-0.9017*
1,1,1.1160,0.0000,0.9017*
1,1,1.1160,0.0000,0.9017*
1,1,1.1160,0.0000,-0.9017*
%
%ADD76ROUNDEDRECTD76*%
G04:AMPARAMS|DCode=77|XSize=0.7096mm|YSize=1.8018mm|CornerRadius=0.3548mm|HoleSize=0mm|Usage=FLASHONLY|Rotation=180.000|XOffset=0mm|YOffset=0mm|HoleType=Round|Shape=RoundedRectangle|*
%AMROUNDEDRECTD77*
21,1,0.7096,1.0922,0,0,180.0*
21,1,0.0000,1.8018,0,0,180.0*
1,1,0.7096,0.0000,0.5461*
1,1,0.7096,0.0000,0.5461*
1,1,0.7096,0.0000,-0.5461*
1,1,0.7096,0.0000,-0.5461*
%
%ADD77ROUNDEDRECTD77*%
%ADD78R,0.7000X1.9500*%
%ADD79R,0.7000X1.7500*%
%ADD80R,1.0500X0.9500*%
%ADD81R,3.4500X2.2500*%
%ADD82R,1.1000X2.2500*%
%ADD83C,2.8000*%
%ADD84C,1.6240*%
%ADD85C,0.7604*%
%ADD86C,2.3098*%
G04:AMPARAMS|DCode=87|XSize=1.9mm|YSize=1.1mm|CornerRadius=0.3mm|HoleSize=0mm|Usage=FLASHONLY|Rotation=0.000|XOffset=0mm|YOffset=0mm|HoleType=Round|Shape=RoundedRectangle|*
%AMROUNDEDRECTD87*
21,1,1.9000,0.5000,0,0,0.0*
21,1,1.3000,1.1000,0,0,0.0*
1,1,0.6000,0.6500,-0.2500*
1,1,0.6000,-0.6500,-0.2500*
1,1,0.6000,-0.6500,0.2500*
1,1,0.6000,0.6500,0.2500*
%
%ADD87ROUNDEDRECTD87*%
%ADD88O,2.2000X1.1000*%
%ADD89C,0.7500*%
%ADD90R,2.6500X2.6500*%
%ADD91C,2.6500*%
%ADD92C,1.6080*%
%ADD93C,1.7000*%
%ADD94C,1.6300*%
%ADD95C,1.5460*%
%ADD96C,0.7200*%
%ADD97C,6.5524*%
%ADD98C,1.3700*%
G36*
X153099Y770888D02*
X146049D01*
Y774288D01*
X153099D01*
Y770888D01*
D02*
G37*
G36*
X144749D02*
X137699D01*
Y774288D01*
X144749D01*
Y770888D01*
D02*
G37*
G36*
X153099Y765888D02*
X146049D01*
Y769288D01*
X153099D01*
Y765888D01*
D02*
G37*
G36*
X144749D02*
X137699D01*
Y769288D01*
X144749D01*
Y765888D01*
D02*
G37*
G36*
X153099Y759888D02*
X146049D01*
Y765288D01*
X153099D01*
Y759888D01*
D02*
G37*
G36*
X144749D02*
X137699D01*
Y765288D01*
X144749D01*
Y759888D01*
D02*
G37*
G36*
X153099Y755888D02*
X146049D01*
Y759288D01*
X153099D01*
Y755888D01*
D02*
G37*
G36*
X144749D02*
X137699D01*
Y759288D01*
X144749D01*
Y755888D01*
D02*
G37*
G36*
X153099Y750888D02*
X146049D01*
Y754288D01*
X153099D01*
Y750888D01*
D02*
G37*
G36*
X144749D02*
X137699D01*
Y754288D01*
X144749D01*
Y750888D01*
D02*
G37*
G36*
X278854Y274539D02*
X271804D01*
Y277939D01*
X278854D01*
Y274539D01*
D02*
G37*
G36*
X270504D02*
X263454D01*
Y277939D01*
X270504D01*
Y274539D01*
D02*
G37*
G36*
X278854Y269539D02*
X271804D01*
Y272939D01*
X278854D01*
Y269539D01*
D02*
G37*
G36*
X270504D02*
X263454D01*
Y272939D01*
X270504D01*
Y269539D01*
D02*
G37*
G36*
X278854Y263539D02*
X271804D01*
Y268939D01*
X278854D01*
Y263539D01*
D02*
G37*
G36*
X270504D02*
X263454D01*
Y268939D01*
X270504D01*
Y263539D01*
D02*
G37*
G36*
X278854Y259539D02*
X271804D01*
Y262939D01*
X278854D01*
Y259539D01*
D02*
G37*
G36*
X270504D02*
X263454D01*
Y262939D01*
X270504D01*
Y259539D01*
D02*
G37*
G36*
X278854Y254539D02*
X271804D01*
Y257939D01*
X278854D01*
Y254539D01*
D02*
G37*
G36*
X270504D02*
X263454D01*
Y257939D01*
X270504D01*
Y254539D01*
D02*
G37*
G36*
X278854Y221239D02*
X271804D01*
Y224639D01*
X278854D01*
Y221239D01*
D02*
G37*
G36*
X270504D02*
X263454D01*
Y224639D01*
X270504D01*
Y221239D01*
D02*
G37*
G36*
X278854Y216239D02*
X271804D01*
Y219639D01*
X278854D01*
Y216239D01*
D02*
G37*
G36*
X270504D02*
X263454D01*
Y219639D01*
X270504D01*
Y216239D01*
D02*
G37*
G36*
X278854Y210239D02*
X271804D01*
Y215639D01*
X278854D01*
Y210239D01*
D02*
G37*
G36*
X270504D02*
X263454D01*
Y215639D01*
X270504D01*
Y210239D01*
D02*
G37*
G36*
X278854Y206239D02*
X271804D01*
Y209639D01*
X278854D01*
Y206239D01*
D02*
G37*
G36*
X270504D02*
X263454D01*
Y209639D01*
X270504D01*
Y206239D01*
D02*
G37*
G36*
X278854Y201239D02*
X271804D01*
Y204639D01*
X278854D01*
Y201239D01*
D02*
G37*
G36*
X270504D02*
X263454D01*
Y204639D01*
X270504D01*
Y201239D01*
D02*
G37*
D52*
X86031Y429800D02*
D03*
Y410800D02*
D03*
X207585Y822963D02*
D03*
Y803963D02*
D03*
X758052Y617914D02*
D03*
Y636914D02*
D03*
X782441Y618141D02*
D03*
Y637141D02*
D03*
X780167Y563871D02*
D03*
Y582871D02*
D03*
X758644D02*
D03*
Y563871D02*
D03*
X169291Y803963D02*
D03*
Y822963D02*
D03*
X368046Y84632D02*
D03*
Y103632D02*
D03*
X211612Y606636D02*
D03*
Y625636D02*
D03*
X61983Y503207D02*
D03*
Y522207D02*
D03*
X129178Y410800D02*
D03*
Y429800D02*
D03*
X107605Y410800D02*
D03*
Y429800D02*
D03*
Y382861D02*
D03*
Y363861D02*
D03*
X86031Y382861D02*
D03*
Y363861D02*
D03*
X129178Y382861D02*
D03*
Y363861D02*
D03*
X211612Y544114D02*
D03*
Y563114D02*
D03*
D53*
X168130Y836580D02*
D03*
Y858579D02*
D03*
X208630Y836580D02*
D03*
Y858579D02*
D03*
D54*
X172631Y969962D02*
D03*
X192631D02*
D03*
X212631D02*
D03*
X232791D02*
D03*
X252857D02*
D03*
X272669D02*
D03*
D55*
X150631Y1016462D02*
D03*
X294767D02*
D03*
D56*
X661245Y534716D02*
D03*
Y503916D02*
D03*
X657245Y534716D02*
D03*
Y503916D02*
D03*
X653245Y534716D02*
D03*
Y503916D02*
D03*
X649245Y534716D02*
D03*
Y503916D02*
D03*
X645245Y534716D02*
D03*
Y503916D02*
D03*
X641245Y534716D02*
D03*
Y503916D02*
D03*
X637245Y534716D02*
D03*
Y503916D02*
D03*
X633245Y534716D02*
D03*
Y503916D02*
D03*
X629245Y534716D02*
D03*
Y503916D02*
D03*
X625245Y534716D02*
D03*
Y503916D02*
D03*
X621245Y534716D02*
D03*
Y503916D02*
D03*
X617245Y534716D02*
D03*
Y503916D02*
D03*
X613245Y534716D02*
D03*
Y503916D02*
D03*
X609245Y534716D02*
D03*
Y503916D02*
D03*
X605245Y534716D02*
D03*
Y503916D02*
D03*
X601245Y534716D02*
D03*
Y503916D02*
D03*
X597245Y534716D02*
D03*
Y503916D02*
D03*
X593245Y534716D02*
D03*
Y503916D02*
D03*
X589245Y534716D02*
D03*
Y503916D02*
D03*
X585245Y534716D02*
D03*
Y503916D02*
D03*
X581245Y534716D02*
D03*
Y503916D02*
D03*
X577245Y534716D02*
D03*
Y503916D02*
D03*
X573245Y534716D02*
D03*
Y503916D02*
D03*
X569245Y534716D02*
D03*
Y503916D02*
D03*
X565245Y534716D02*
D03*
Y503916D02*
D03*
X561245Y534716D02*
D03*
Y503916D02*
D03*
X557245Y534716D02*
D03*
Y503916D02*
D03*
X553245Y534716D02*
D03*
Y503916D02*
D03*
X549245Y534716D02*
D03*
Y503916D02*
D03*
X545245Y534716D02*
D03*
Y503916D02*
D03*
X541245Y534716D02*
D03*
Y503916D02*
D03*
X537245Y534716D02*
D03*
Y503916D02*
D03*
X533245Y534716D02*
D03*
Y503916D02*
D03*
X529245Y534716D02*
D03*
Y503916D02*
D03*
X525245Y534716D02*
D03*
Y503916D02*
D03*
X521245Y534716D02*
D03*
Y503916D02*
D03*
X517245Y534716D02*
D03*
Y503916D02*
D03*
X513245Y534716D02*
D03*
Y503916D02*
D03*
X509245Y534716D02*
D03*
Y503916D02*
D03*
X505245Y534716D02*
D03*
Y503916D02*
D03*
X501245Y534716D02*
D03*
Y503916D02*
D03*
X497245Y534716D02*
D03*
Y503916D02*
D03*
X493245Y534716D02*
D03*
Y503916D02*
D03*
X489245Y534716D02*
D03*
Y503916D02*
D03*
X485245Y534716D02*
D03*
Y503916D02*
D03*
X481245Y534716D02*
D03*
Y503916D02*
D03*
X477245Y534716D02*
D03*
Y503916D02*
D03*
X473245Y534716D02*
D03*
Y503916D02*
D03*
X469245Y534716D02*
D03*
Y503916D02*
D03*
X465245Y534716D02*
D03*
Y503916D02*
D03*
X661245Y195516D02*
D03*
Y164716D02*
D03*
X657245Y195516D02*
D03*
Y164716D02*
D03*
X653245Y195516D02*
D03*
Y164716D02*
D03*
X649245Y195516D02*
D03*
Y164716D02*
D03*
X645245Y195516D02*
D03*
Y164716D02*
D03*
X641245Y195516D02*
D03*
Y164716D02*
D03*
X637245Y195516D02*
D03*
Y164716D02*
D03*
X633245Y195516D02*
D03*
Y164716D02*
D03*
X629245Y195516D02*
D03*
Y164716D02*
D03*
X625245Y195516D02*
D03*
Y164716D02*
D03*
X621245Y195516D02*
D03*
Y164716D02*
D03*
X617245Y195516D02*
D03*
Y164716D02*
D03*
X613245Y195516D02*
D03*
Y164716D02*
D03*
X609245Y195516D02*
D03*
Y164716D02*
D03*
X605245Y195516D02*
D03*
Y164716D02*
D03*
X601245Y195516D02*
D03*
Y164716D02*
D03*
X597245Y195516D02*
D03*
Y164716D02*
D03*
X593245Y195516D02*
D03*
Y164716D02*
D03*
X589245Y195516D02*
D03*
Y164716D02*
D03*
X585245Y195516D02*
D03*
Y164716D02*
D03*
X581245Y195516D02*
D03*
Y164716D02*
D03*
X577245Y195516D02*
D03*
Y164716D02*
D03*
X573245Y195516D02*
D03*
Y164716D02*
D03*
X569245Y195516D02*
D03*
Y164716D02*
D03*
X565245Y195516D02*
D03*
Y164716D02*
D03*
X561245Y195516D02*
D03*
Y164716D02*
D03*
X557245Y195516D02*
D03*
Y164716D02*
D03*
X553245Y195516D02*
D03*
Y164716D02*
D03*
X549245Y195516D02*
D03*
Y164716D02*
D03*
X545245Y195516D02*
D03*
Y164716D02*
D03*
X541245Y195516D02*
D03*
Y164716D02*
D03*
X537245Y195516D02*
D03*
Y164716D02*
D03*
X533245Y195516D02*
D03*
Y164716D02*
D03*
X529245Y195516D02*
D03*
Y164716D02*
D03*
X525245Y195516D02*
D03*
Y164716D02*
D03*
X521245Y195516D02*
D03*
Y164716D02*
D03*
X517245Y195516D02*
D03*
Y164716D02*
D03*
X513245Y195516D02*
D03*
Y164716D02*
D03*
X509245Y195516D02*
D03*
Y164716D02*
D03*
X505245Y195516D02*
D03*
Y164716D02*
D03*
X501245Y195516D02*
D03*
Y164716D02*
D03*
X497245Y195516D02*
D03*
Y164716D02*
D03*
X493245Y195516D02*
D03*
Y164716D02*
D03*
X489245Y195516D02*
D03*
Y164716D02*
D03*
X485245Y195516D02*
D03*
Y164716D02*
D03*
X481245Y195516D02*
D03*
Y164716D02*
D03*
X477245Y195516D02*
D03*
Y164716D02*
D03*
X473245Y195516D02*
D03*
Y164716D02*
D03*
X469245Y195516D02*
D03*
Y164716D02*
D03*
X465245Y195516D02*
D03*
Y164716D02*
D03*
D57*
X432681Y848141D02*
D03*
D58*
Y843315D02*
D03*
Y838235D02*
D03*
Y833155D02*
D03*
Y828329D02*
D03*
Y823249D02*
D03*
Y818169D02*
D03*
Y813343D02*
D03*
Y808263D02*
D03*
Y803183D02*
D03*
Y798357D02*
D03*
Y793277D02*
D03*
Y788197D02*
D03*
Y783117D02*
D03*
Y778291D02*
D03*
Y773211D02*
D03*
Y768131D02*
D03*
Y763305D02*
D03*
Y758225D02*
D03*
Y753145D02*
D03*
Y748105D02*
D03*
Y743105D02*
D03*
Y738105D02*
D03*
Y733105D02*
D03*
Y728105D02*
D03*
Y723105D02*
D03*
Y718105D02*
D03*
Y713105D02*
D03*
Y708105D02*
D03*
Y703105D02*
D03*
X485850Y848141D02*
D03*
Y843315D02*
D03*
Y838235D02*
D03*
Y833155D02*
D03*
Y828329D02*
D03*
Y823249D02*
D03*
Y818169D02*
D03*
Y813343D02*
D03*
Y808263D02*
D03*
Y803183D02*
D03*
Y798357D02*
D03*
Y793277D02*
D03*
Y788197D02*
D03*
Y783117D02*
D03*
Y778291D02*
D03*
Y773211D02*
D03*
Y768131D02*
D03*
Y763305D02*
D03*
Y758225D02*
D03*
Y753145D02*
D03*
Y748105D02*
D03*
Y743105D02*
D03*
Y738105D02*
D03*
Y733105D02*
D03*
Y728105D02*
D03*
Y723105D02*
D03*
Y718105D02*
D03*
Y713105D02*
D03*
Y708105D02*
D03*
Y703105D02*
D03*
X432681Y698105D02*
D03*
X485850D02*
D03*
X432681Y693105D02*
D03*
X485850D02*
D03*
X432681Y688105D02*
D03*
X485850D02*
D03*
X432681Y683105D02*
D03*
X485850D02*
D03*
X432681Y678105D02*
D03*
X485850D02*
D03*
X432681Y673105D02*
D03*
X485850D02*
D03*
X432681Y668105D02*
D03*
X485850D02*
D03*
X432681Y663105D02*
D03*
X485850D02*
D03*
X432681Y658105D02*
D03*
X485850D02*
D03*
X432681Y653105D02*
D03*
X485850D02*
D03*
D59*
X459351Y630605D02*
D03*
Y870747D02*
D03*
D60*
X162140Y414291D02*
D03*
Y401591D02*
D03*
Y388891D02*
D03*
Y376191D02*
D03*
X215900D02*
D03*
Y388891D02*
D03*
Y401591D02*
D03*
Y414291D02*
D03*
D61*
X189020Y395241D02*
D03*
D62*
X124253Y924529D02*
D03*
Y860529D02*
D03*
Y916529D02*
D03*
Y868529D02*
D03*
Y792118D02*
D03*
Y728118D02*
D03*
Y784118D02*
D03*
Y736118D02*
D03*
D63*
Y890029D02*
D03*
Y895029D02*
D03*
Y885029D02*
D03*
Y880029D02*
D03*
Y875029D02*
D03*
Y900029D02*
D03*
Y905029D02*
D03*
Y910029D02*
D03*
Y757618D02*
D03*
Y762618D02*
D03*
Y752618D02*
D03*
Y747618D02*
D03*
Y742618D02*
D03*
Y767618D02*
D03*
Y772618D02*
D03*
Y777618D02*
D03*
D64*
X373048Y132334D02*
D03*
X392508D02*
D03*
D65*
X83268Y826405D02*
D03*
X112468D02*
D03*
X189568Y928603D02*
D03*
X160368D02*
D03*
D66*
X109251Y478779D02*
D03*
X90252D02*
D03*
X99752Y456780D02*
D03*
D67*
X83510Y525907D02*
D03*
X90110D02*
D03*
X96710D02*
D03*
X103310D02*
D03*
D68*
X93410Y515982D02*
D03*
D69*
X103310Y496057D02*
D03*
X96710D02*
D03*
X90110D02*
D03*
X83510D02*
D03*
D70*
X634500Y686000D02*
D03*
X633500Y665174D02*
D03*
D71*
X663687Y131565D02*
D03*
Y69565D02*
D03*
D72*
X123553Y519339D02*
D03*
X142553D02*
D03*
Y489559D02*
D03*
X123553D02*
D03*
X251647Y361365D02*
D03*
X232647D02*
D03*
X232507Y385687D02*
D03*
X251507D02*
D03*
X215052Y358137D02*
D03*
X196052D02*
D03*
X131064Y329946D02*
D03*
X112064D02*
D03*
X112830Y138430D02*
D03*
X131830D02*
D03*
X83743Y697055D02*
D03*
X64743D02*
D03*
X126630D02*
D03*
X107630D02*
D03*
X108797Y955721D02*
D03*
X127797D02*
D03*
X62884D02*
D03*
X81884D02*
D03*
X309548Y139510D02*
D03*
X328548D02*
D03*
X57660Y469780D02*
D03*
X76660D02*
D03*
X123553Y459780D02*
D03*
X142553D02*
D03*
X251732Y337042D02*
D03*
X232732D02*
D03*
X701242Y124514D02*
D03*
X720242D02*
D03*
X701242Y100332D02*
D03*
X720242D02*
D03*
X701242Y76150D02*
D03*
X720242D02*
D03*
X214630Y336550D02*
D03*
X195630D02*
D03*
X161230Y358111D02*
D03*
X180230D02*
D03*
X251408Y410010D02*
D03*
X232408D02*
D03*
X716863Y572871D02*
D03*
X735863D02*
D03*
X715900Y611785D02*
D03*
X734900D02*
D03*
X289154Y239589D02*
D03*
X270154D02*
D03*
D73*
X164727Y481032D02*
D03*
X246728D02*
D03*
D74*
X61468Y396725D02*
D03*
X733044Y377952D02*
D03*
X757682D02*
D03*
X61468Y356870D02*
D03*
X233620Y588901D02*
D03*
D75*
X233809Y552418D02*
D03*
D76*
X417592Y1012595D02*
D03*
X316042D02*
D03*
X724415D02*
D03*
X622865D02*
D03*
X511486D02*
D03*
X434882D02*
D03*
X605384D02*
D03*
X528780D02*
D03*
D77*
X398288Y981095D02*
D03*
X385588D02*
D03*
X373142D02*
D03*
X360542D02*
D03*
X348042D02*
D03*
X335542D02*
D03*
X705111D02*
D03*
X692411D02*
D03*
X679965D02*
D03*
X667365D02*
D03*
X654865D02*
D03*
X642365D02*
D03*
X491928D02*
D03*
X479482D02*
D03*
X466882D02*
D03*
X454382D02*
D03*
X585826D02*
D03*
X573380D02*
D03*
X560780D02*
D03*
X548280D02*
D03*
D78*
X172418Y75159D02*
D03*
X182418D02*
D03*
X192418D02*
D03*
X202418D02*
D03*
X212418D02*
D03*
X222418D02*
D03*
X232418D02*
D03*
X242418D02*
D03*
X252418D02*
D03*
X262418D02*
D03*
X272418D02*
D03*
X282418D02*
D03*
X292418D02*
D03*
X302418D02*
D03*
X312418D02*
D03*
D79*
X172418Y112659D02*
D03*
X182418D02*
D03*
X192418D02*
D03*
X202418D02*
D03*
X212418D02*
D03*
X222418D02*
D03*
X232418D02*
D03*
X242418D02*
D03*
X252418D02*
D03*
X262418D02*
D03*
X272418D02*
D03*
X282418D02*
D03*
X292418D02*
D03*
X302418D02*
D03*
X312418D02*
D03*
D80*
X689935Y186598D02*
D03*
Y173598D02*
D03*
D81*
X667318Y632168D02*
D03*
D82*
X690318Y573668D02*
D03*
X667318D02*
D03*
X644318D02*
D03*
D83*
X778245Y514716D02*
D03*
Y184716D02*
D03*
X298245Y514716D02*
D03*
Y184716D02*
D03*
D84*
X623995Y107667D02*
D03*
X598595D02*
D03*
Y82267D02*
D03*
X573195Y107667D02*
D03*
Y82267D02*
D03*
X547795Y107667D02*
D03*
Y82267D02*
D03*
X522395Y107667D02*
D03*
Y82267D02*
D03*
X395395D02*
D03*
Y107667D02*
D03*
X420795Y82267D02*
D03*
Y107667D02*
D03*
X446195Y82267D02*
D03*
Y107667D02*
D03*
X471595Y82267D02*
D03*
Y107667D02*
D03*
X496995Y82267D02*
D03*
Y107667D02*
D03*
X623995Y82267D02*
D03*
X709791Y945400D02*
D03*
X684391Y920000D02*
D03*
X735191Y793000D02*
D03*
X684391D02*
D03*
X735191Y894600D02*
D03*
X709791Y920000D02*
D03*
Y894600D02*
D03*
X684391Y767600D02*
D03*
X735191Y869200D02*
D03*
Y818400D02*
D03*
X684391Y945400D02*
D03*
Y742200D02*
D03*
Y869200D02*
D03*
X735191Y920000D02*
D03*
Y945400D02*
D03*
X709791Y818400D02*
D03*
Y869200D02*
D03*
X735191Y742200D02*
D03*
X684391Y894600D02*
D03*
Y818400D02*
D03*
X709791Y843800D02*
D03*
X684391D02*
D03*
X735191D02*
D03*
Y767600D02*
D03*
X709791Y742200D02*
D03*
Y767600D02*
D03*
Y793000D02*
D03*
X735191Y690000D02*
D03*
Y664600D02*
D03*
X709791Y690000D02*
D03*
Y664600D02*
D03*
X684391Y690000D02*
D03*
Y664600D02*
D03*
D85*
X478350Y640605D02*
D03*
Y860841D02*
D03*
D86*
X584064Y602777D02*
D03*
Y902751D02*
D03*
X284090Y602777D02*
D03*
Y902751D02*
D03*
D87*
X76703Y935729D02*
D03*
Y849329D02*
D03*
Y803318D02*
D03*
Y716918D02*
D03*
D88*
X118503Y935729D02*
D03*
Y849329D02*
D03*
Y803318D02*
D03*
Y716918D02*
D03*
D89*
X113503Y863629D02*
D03*
Y921429D02*
D03*
Y731218D02*
D03*
Y789018D02*
D03*
D90*
X179529Y589719D02*
D03*
D91*
Y639719D02*
D03*
X168730Y311989D02*
D03*
Y154489D02*
D03*
D92*
X79529Y669719D02*
D03*
Y559719D02*
D03*
D93*
X138230Y290389D02*
D03*
Y176089D02*
D03*
D94*
X92530Y165989D02*
D03*
X112830D02*
D03*
X92530Y300489D02*
D03*
X112830D02*
D03*
D95*
X201730Y176089D02*
D03*
X227130Y188789D02*
D03*
X201730Y201489D02*
D03*
X227130Y214189D02*
D03*
X201730Y226889D02*
D03*
X227130Y239589D02*
D03*
X201730Y252289D02*
D03*
X227130Y264989D02*
D03*
X201730Y277689D02*
D03*
X227130Y290389D02*
D03*
D96*
X518250Y249500D02*
D03*
X511500Y259750D02*
D03*
X137500Y807500D02*
D03*
X100553Y806234D02*
D03*
X147500Y867500D02*
D03*
X183134Y814832D02*
D03*
X365354Y690000D02*
D03*
X495658Y429260D02*
D03*
X486918D02*
D03*
X389890Y763016D02*
D03*
X399736Y769934D02*
D03*
X409702Y816356D02*
D03*
X505714Y964184D02*
D03*
X447548Y695452D02*
D03*
X243840Y517525D02*
D03*
X365105Y259484D02*
D03*
X309129Y212932D02*
D03*
X724154Y555498D02*
D03*
X715010Y541274D02*
D03*
X706882Y555752D02*
D03*
X401574Y836422D02*
D03*
X409904Y832095D02*
D03*
X465074Y240284D02*
D03*
X572180Y215444D02*
D03*
X591058Y211836D02*
D03*
X542590Y204646D02*
D03*
X191788Y94234D02*
D03*
X183048D02*
D03*
X511914Y462280D02*
D03*
X503174D02*
D03*
X221788Y92710D02*
D03*
X213048D02*
D03*
X528684Y429006D02*
D03*
X519944D02*
D03*
X623864Y178348D02*
D03*
X301244Y235458D02*
D03*
X470141Y699528D02*
D03*
X185928Y434594D02*
D03*
X169926Y434340D02*
D03*
X178054Y422148D02*
D03*
X194056Y422402D02*
D03*
X442214Y166624D02*
D03*
X483831Y154366D02*
D03*
X426466Y199390D02*
D03*
X532638Y180594D02*
D03*
X582535Y180094D02*
D03*
X592571Y179984D02*
D03*
X696691Y142982D02*
D03*
X690417Y137267D02*
D03*
X689356Y200406D02*
D03*
X549656Y179832D02*
D03*
X604774Y211074D02*
D03*
X725000Y642500D02*
D03*
X802250Y600500D02*
D03*
X734822Y591058D02*
D03*
X510540Y824484D02*
D03*
X468122Y848360D02*
D03*
X447802Y833882D02*
D03*
X407924Y702056D02*
D03*
X415544Y720598D02*
D03*
X388874Y707136D02*
D03*
X637794Y955294D02*
D03*
X265830Y857250D02*
D03*
X499872Y863092D02*
D03*
X418084Y932688D02*
D03*
X585978Y966978D02*
D03*
X697992Y997458D02*
D03*
X325374Y866902D02*
D03*
X304546Y828294D02*
D03*
X285574Y827639D02*
D03*
X431382Y981095D02*
D03*
X525280D02*
D03*
X219710Y837438D02*
D03*
X497586Y783082D02*
D03*
X335534Y960120D02*
D03*
X526626Y799168D02*
D03*
X520446Y792988D02*
D03*
X136895Y916529D02*
D03*
X137668Y735076D02*
D03*
X405638Y926084D02*
D03*
X277876Y881888D02*
D03*
X261112Y885190D02*
D03*
X364744Y864362D02*
D03*
X344170Y828548D02*
D03*
X426974Y911098D02*
D03*
X416814Y917194D02*
D03*
X237490Y928624D02*
D03*
X236220Y911098D02*
D03*
X469900Y709930D02*
D03*
X294640Y675894D02*
D03*
X305308D02*
D03*
X283972D02*
D03*
X294644Y699680D02*
D03*
Y711573D02*
D03*
Y687787D02*
D03*
X182363Y984041D02*
D03*
Y960255D02*
D03*
Y972148D02*
D03*
X193035Y995934D02*
D03*
X171699D02*
D03*
X182367D02*
D03*
X717550Y378206D02*
D03*
X662670Y554651D02*
D03*
X671068Y554736D02*
D03*
X674310Y449956D02*
D03*
X292373Y91340D02*
D03*
X302758Y96277D02*
D03*
X508497Y212383D02*
D03*
X543726Y237820D02*
D03*
X531518Y229538D02*
D03*
X520870Y219751D02*
D03*
X564852Y179876D02*
D03*
X715772Y157480D02*
D03*
X272542Y93472D02*
D03*
X688687Y145615D02*
D03*
X251788Y93218D02*
D03*
X243048D02*
D03*
X271780Y351473D02*
D03*
Y399098D02*
D03*
Y422910D02*
D03*
Y375285D02*
D03*
Y327660D02*
D03*
X233363Y508000D02*
D03*
X212407D02*
D03*
X201930Y517525D02*
D03*
X222885D02*
D03*
X212407Y527050D02*
D03*
X233363D02*
D03*
D97*
X775700Y90510D02*
D03*
X89700Y90107D02*
D03*
X775700Y1010510D02*
D03*
X89700D02*
D03*
D98*
X148908Y540850D02*
D03*
X106716D02*
D03*
X127812D02*
D03*
M02*
