G04*
G04 #@! TF.GenerationSoftware,Altium Limited,Altium Designer,23.4.1 (23)*
G04*
G04 Layer_Color=2752767*
%FSLAX44Y44*%
%MOMM*%
G71*
G04*
G04 #@! TF.SameCoordinates,A498DFDA-0769-4059-8707-A0DE4882B552*
G04*
G04*
G04 #@! TF.FilePolarity,Positive*
G04*
G01*
G75*
%ADD11C,0.1270*%
%ADD16C,0.1016*%
%ADD147C,0.1693*%
D11*
X778245Y509636D02*
X780785Y512176D01*
X783325D01*
X780785Y514716D01*
X783325Y517256D01*
X780785D01*
X778245Y519796D01*
X775705Y517256D01*
X773165D01*
X775705Y514716D01*
X773165Y512176D01*
X775705D01*
X778245Y509636D01*
Y179636D02*
X780785Y182176D01*
X783325D01*
X780785Y184716D01*
X783325Y187256D01*
X780785D01*
X778245Y189796D01*
X775705Y187256D01*
X773165D01*
X775705Y184716D01*
X773165Y182176D01*
X775705D01*
X778245Y179636D01*
X298245Y509636D02*
X300785Y512176D01*
X303325D01*
X300785Y514716D01*
X303325Y517256D01*
X300785D01*
X298245Y519796D01*
X295705Y517256D01*
X293165D01*
X295705Y514716D01*
X293165Y512176D01*
X295705D01*
X298245Y509636D01*
Y179636D02*
X300785Y182176D01*
X303325D01*
X300785Y184716D01*
X303325Y187256D01*
X300785D01*
X298245Y189796D01*
X295705Y187256D01*
X293165D01*
X295705Y184716D01*
X293165Y182176D01*
X295705D01*
X298245Y179636D01*
X618915Y102587D02*
Y112747D01*
X629075D01*
Y102587D01*
X618915D01*
X593515D02*
Y112747D01*
X603675D01*
Y102587D01*
X593515D01*
Y77187D02*
Y87347D01*
X603675D01*
Y77187D01*
X593515D01*
X568115Y102587D02*
Y112747D01*
X578275D01*
Y102587D01*
X568115D01*
Y77187D02*
Y87347D01*
X578275D01*
Y77187D01*
X568115D01*
X542715Y102587D02*
Y112747D01*
X552875D01*
Y102587D01*
X542715D01*
Y77187D02*
Y87347D01*
X552875D01*
Y77187D01*
X542715D01*
X517315Y102587D02*
Y112747D01*
X527475D01*
Y102587D01*
X517315D01*
Y77187D02*
Y87347D01*
X527475D01*
Y77187D01*
X517315D01*
X390315D02*
Y87347D01*
X400475D01*
Y77187D01*
X390315D01*
Y102587D02*
Y112747D01*
X400475D01*
Y102587D01*
X390315D01*
X415715Y77187D02*
Y87347D01*
X425875D01*
Y77187D01*
X415715D01*
Y102587D02*
Y112747D01*
X425875D01*
Y102587D01*
X415715D01*
X441115Y77187D02*
Y87347D01*
X451275D01*
Y77187D01*
X441115D01*
Y102587D02*
Y112747D01*
X451275D01*
Y102587D01*
X441115D01*
X466515Y77187D02*
Y87347D01*
X476675D01*
Y77187D01*
X466515D01*
Y102587D02*
Y112747D01*
X476675D01*
Y102587D01*
X466515D01*
X491915Y77187D02*
Y87347D01*
X502075D01*
Y77187D01*
X491915D01*
Y102587D02*
Y112747D01*
X502075D01*
Y102587D01*
X491915D01*
X618915Y77187D02*
Y87347D01*
X629075D01*
Y77187D01*
X618915D01*
X704712Y940320D02*
Y950480D01*
X714872D01*
Y940320D01*
X704712D01*
X679312Y914920D02*
Y925080D01*
X689472D01*
Y914920D01*
X679312D01*
X730111Y787920D02*
Y798080D01*
X740272D01*
Y787920D01*
X730111D01*
X679312D02*
Y798080D01*
X689472D01*
Y787920D01*
X679312D01*
X730111Y889520D02*
Y899680D01*
X740272D01*
Y889520D01*
X730111D01*
X704712Y914920D02*
Y925080D01*
X714872D01*
Y914920D01*
X704712D01*
Y889520D02*
Y899680D01*
X714872D01*
Y889520D01*
X704712D01*
X679312Y762520D02*
Y772680D01*
X689472D01*
Y762520D01*
X679312D01*
X730111Y864120D02*
Y874280D01*
X740272D01*
Y864120D01*
X730111D01*
Y813320D02*
Y823480D01*
X740272D01*
Y813320D01*
X730111D01*
X679312Y940320D02*
Y950480D01*
X689472D01*
Y940320D01*
X679312D01*
Y737120D02*
Y747280D01*
X689472D01*
Y737120D01*
X679312D01*
Y864120D02*
Y874280D01*
X689472D01*
Y864120D01*
X679312D01*
X730111Y914920D02*
Y925080D01*
X740272D01*
Y914920D01*
X730111D01*
Y940320D02*
Y950480D01*
X740272D01*
Y940320D01*
X730111D01*
X704712Y813320D02*
Y823480D01*
X714872D01*
Y813320D01*
X704712D01*
Y864120D02*
Y874280D01*
X714872D01*
Y864120D01*
X704712D01*
X730111Y737120D02*
Y747280D01*
X740272D01*
Y737120D01*
X730111D01*
X679312Y889520D02*
Y899680D01*
X689472D01*
Y889520D01*
X679312D01*
Y813320D02*
Y823480D01*
X689472D01*
Y813320D01*
X679312D01*
X704712Y838720D02*
Y848880D01*
X714872D01*
Y838720D01*
X704712D01*
X679312D02*
Y848880D01*
X689472D01*
Y838720D01*
X679312D01*
X730111D02*
Y848880D01*
X740272D01*
Y838720D01*
X730111D01*
Y762520D02*
Y772680D01*
X740272D01*
Y762520D01*
X730111D01*
X704712Y737120D02*
Y747280D01*
X714872D01*
Y737120D01*
X704712D01*
Y762520D02*
Y772680D01*
X714872D01*
Y762520D01*
X704712D01*
Y787920D02*
Y798080D01*
X714872D01*
Y787920D01*
X704712D01*
X478350Y635525D02*
X473270Y645685D01*
X483430D01*
X478350Y635525D01*
Y855761D02*
X473270Y865921D01*
X483430D01*
X478350Y855761D01*
X71623Y930649D02*
Y940809D01*
X81783D01*
Y930649D01*
X71623D01*
X73655Y932681D02*
Y938777D01*
X79751D01*
Y932681D01*
X73655D01*
X71623Y844249D02*
Y854409D01*
X81783D01*
Y844249D01*
X71623D01*
X73655Y846281D02*
Y852377D01*
X79751D01*
Y846281D01*
X73655D01*
X113503Y858549D02*
X108423Y868709D01*
X118583D01*
X113503Y858549D01*
Y860581D02*
X110455Y866677D01*
X116551D01*
X113503Y860581D01*
Y916349D02*
X108423Y926509D01*
X118583D01*
X113503Y916349D01*
Y918381D02*
X110455Y924477D01*
X116551D01*
X113503Y918381D01*
X71623Y798238D02*
Y808398D01*
X81783D01*
Y798238D01*
X71623D01*
X73655Y800270D02*
Y806366D01*
X79751D01*
Y800270D01*
X73655D01*
X71623Y711838D02*
Y721998D01*
X81783D01*
Y711838D01*
X71623D01*
X73655Y713870D02*
Y719966D01*
X79751D01*
Y713870D01*
X73655D01*
X113503Y726138D02*
X108423Y736298D01*
X118583D01*
X113503Y726138D01*
Y728170D02*
X110455Y734266D01*
X116551D01*
X113503Y728170D01*
Y783938D02*
X108423Y794098D01*
X118583D01*
X113503Y783938D01*
Y785970D02*
X110455Y792066D01*
X116551D01*
X113503Y785970D01*
X730111Y684920D02*
Y695080D01*
X740272D01*
Y684920D01*
X730111D01*
Y659520D02*
Y669680D01*
X740272D01*
Y659520D01*
X730111D01*
X704712Y684920D02*
Y695080D01*
X714872D01*
Y684920D01*
X704712D01*
Y659520D02*
Y669680D01*
X714872D01*
Y659520D01*
X704712D01*
X679312Y684920D02*
Y695080D01*
X689472D01*
Y684920D01*
X679312D01*
Y659520D02*
Y669680D01*
X689472D01*
Y659520D01*
X679312D01*
X176989Y587179D02*
Y584639D01*
X182069D01*
Y587179D01*
X184609D01*
Y592259D01*
X182069D01*
Y594799D01*
X176989D01*
Y592259D01*
X174449D01*
Y587179D01*
X176989D01*
Y637179D02*
Y634639D01*
X182069D01*
Y637179D01*
X184609D01*
Y642259D01*
X182069D01*
Y644799D01*
X176989D01*
Y642259D01*
X174449D01*
Y637179D01*
X176989D01*
X74449Y664639D02*
X76989Y669719D01*
X74449Y674799D01*
X79529Y672259D01*
X84609Y674799D01*
X82069Y669719D01*
X84609Y664639D01*
X79529Y667179D01*
X74449Y664639D01*
Y554639D02*
X76989Y559719D01*
X74449Y564799D01*
X79529Y562259D01*
X84609Y564799D01*
X82069Y559719D01*
X84609Y554639D01*
X79529Y557179D01*
X74449Y554639D01*
X133150Y285309D02*
X135690Y290389D01*
X133150Y295469D01*
X138230Y292929D01*
X143310Y295469D01*
X140770Y290389D01*
X143310Y285309D01*
X138230Y287849D01*
X133150Y285309D01*
X135182Y287341D02*
X136706Y290389D01*
X135182Y293437D01*
X138230Y291913D01*
X141278Y293437D01*
X139754Y290389D01*
X141278Y287341D01*
X138230Y288865D01*
X135182Y287341D01*
X133150Y171009D02*
X135690Y176089D01*
X133150Y181169D01*
X138230Y178629D01*
X143310Y181169D01*
X140770Y176089D01*
X143310Y171009D01*
X138230Y173549D01*
X133150Y171009D01*
X135182Y173041D02*
X136706Y176089D01*
X135182Y179137D01*
X138230Y177613D01*
X141278Y179137D01*
X139754Y176089D01*
X141278Y173041D01*
X138230Y174565D01*
X135182Y173041D01*
X166190Y309449D02*
Y306909D01*
X171270D01*
Y309449D01*
X173810D01*
Y314529D01*
X171270D01*
Y317069D01*
X166190D01*
Y314529D01*
X163650D01*
Y309449D01*
X166190D01*
Y151949D02*
Y149409D01*
X171270D01*
Y151949D01*
X173810D01*
Y157029D01*
X171270D01*
Y159569D01*
X166190D01*
Y157029D01*
X163650D01*
Y151949D01*
X166190D01*
X87450Y160909D02*
Y171069D01*
X97610D01*
Y160909D01*
X87450D01*
X107750D02*
Y171069D01*
X117910D01*
Y160909D01*
X107750D01*
X87450Y295409D02*
Y305569D01*
X97610D01*
Y295409D01*
X87450D01*
X107750D02*
Y305569D01*
X117910D01*
Y295409D01*
X107750D01*
X201730Y171009D02*
X204270Y173549D01*
X206810D01*
X204270Y176089D01*
X206810Y178629D01*
X204270D01*
X201730Y181169D01*
X199190Y178629D01*
X196650D01*
X199190Y176089D01*
X196650Y173549D01*
X199190D01*
X201730Y171009D01*
Y173041D02*
X203254Y174565D01*
X204778D01*
X203254Y176089D01*
X204778Y177613D01*
X203254D01*
X201730Y179137D01*
X200206Y177613D01*
X198682D01*
X200206Y176089D01*
X198682Y174565D01*
X200206D01*
X201730Y173041D01*
X227130Y183709D02*
X229670Y186249D01*
X232210D01*
X229670Y188789D01*
X232210Y191329D01*
X229670D01*
X227130Y193869D01*
X224590Y191329D01*
X222050D01*
X224590Y188789D01*
X222050Y186249D01*
X224590D01*
X227130Y183709D01*
Y185741D02*
X228654Y187265D01*
X230178D01*
X228654Y188789D01*
X230178Y190313D01*
X228654D01*
X227130Y191837D01*
X225606Y190313D01*
X224082D01*
X225606Y188789D01*
X224082Y187265D01*
X225606D01*
X227130Y185741D01*
X201730Y196409D02*
X204270Y198949D01*
X206810D01*
X204270Y201489D01*
X206810Y204029D01*
X204270D01*
X201730Y206569D01*
X199190Y204029D01*
X196650D01*
X199190Y201489D01*
X196650Y198949D01*
X199190D01*
X201730Y196409D01*
Y198441D02*
X203254Y199965D01*
X204778D01*
X203254Y201489D01*
X204778Y203013D01*
X203254D01*
X201730Y204537D01*
X200206Y203013D01*
X198682D01*
X200206Y201489D01*
X198682Y199965D01*
X200206D01*
X201730Y198441D01*
X227130Y209109D02*
X229670Y211649D01*
X232210D01*
X229670Y214189D01*
X232210Y216729D01*
X229670D01*
X227130Y219269D01*
X224590Y216729D01*
X222050D01*
X224590Y214189D01*
X222050Y211649D01*
X224590D01*
X227130Y209109D01*
Y211141D02*
X228654Y212665D01*
X230178D01*
X228654Y214189D01*
X230178Y215713D01*
X228654D01*
X227130Y217237D01*
X225606Y215713D01*
X224082D01*
X225606Y214189D01*
X224082Y212665D01*
X225606D01*
X227130Y211141D01*
X201730Y221809D02*
X204270Y224349D01*
X206810D01*
X204270Y226889D01*
X206810Y229429D01*
X204270D01*
X201730Y231969D01*
X199190Y229429D01*
X196650D01*
X199190Y226889D01*
X196650Y224349D01*
X199190D01*
X201730Y221809D01*
Y223841D02*
X203254Y225365D01*
X204778D01*
X203254Y226889D01*
X204778Y228413D01*
X203254D01*
X201730Y229937D01*
X200206Y228413D01*
X198682D01*
X200206Y226889D01*
X198682Y225365D01*
X200206D01*
X201730Y223841D01*
X227130Y234509D02*
X229670Y237049D01*
X232210D01*
X229670Y239589D01*
X232210Y242129D01*
X229670D01*
X227130Y244669D01*
X224590Y242129D01*
X222050D01*
X224590Y239589D01*
X222050Y237049D01*
X224590D01*
X227130Y234509D01*
Y236541D02*
X228654Y238065D01*
X230178D01*
X228654Y239589D01*
X230178Y241113D01*
X228654D01*
X227130Y242637D01*
X225606Y241113D01*
X224082D01*
X225606Y239589D01*
X224082Y238065D01*
X225606D01*
X227130Y236541D01*
X201730Y247209D02*
X204270Y249749D01*
X206810D01*
X204270Y252289D01*
X206810Y254829D01*
X204270D01*
X201730Y257369D01*
X199190Y254829D01*
X196650D01*
X199190Y252289D01*
X196650Y249749D01*
X199190D01*
X201730Y247209D01*
Y249241D02*
X203254Y250765D01*
X204778D01*
X203254Y252289D01*
X204778Y253813D01*
X203254D01*
X201730Y255337D01*
X200206Y253813D01*
X198682D01*
X200206Y252289D01*
X198682Y250765D01*
X200206D01*
X201730Y249241D01*
X227130Y259909D02*
X229670Y262449D01*
X232210D01*
X229670Y264989D01*
X232210Y267529D01*
X229670D01*
X227130Y270069D01*
X224590Y267529D01*
X222050D01*
X224590Y264989D01*
X222050Y262449D01*
X224590D01*
X227130Y259909D01*
Y261941D02*
X228654Y263465D01*
X230178D01*
X228654Y264989D01*
X230178Y266513D01*
X228654D01*
X227130Y268037D01*
X225606Y266513D01*
X224082D01*
X225606Y264989D01*
X224082Y263465D01*
X225606D01*
X227130Y261941D01*
X201730Y272609D02*
X204270Y275149D01*
X206810D01*
X204270Y277689D01*
X206810Y280229D01*
X204270D01*
X201730Y282769D01*
X199190Y280229D01*
X196650D01*
X199190Y277689D01*
X196650Y275149D01*
X199190D01*
X201730Y272609D01*
Y274641D02*
X203254Y276165D01*
X204778D01*
X203254Y277689D01*
X204778Y279213D01*
X203254D01*
X201730Y280737D01*
X200206Y279213D01*
X198682D01*
X200206Y277689D01*
X198682Y276165D01*
X200206D01*
X201730Y274641D01*
X227130Y285309D02*
X229670Y287849D01*
X232210D01*
X229670Y290389D01*
X232210Y292929D01*
X229670D01*
X227130Y295469D01*
X224590Y292929D01*
X222050D01*
X224590Y290389D01*
X222050Y287849D01*
X224590D01*
X227130Y285309D01*
Y287341D02*
X228654Y288865D01*
X230178D01*
X228654Y290389D01*
X230178Y291913D01*
X228654D01*
X227130Y293437D01*
X225606Y291913D01*
X224082D01*
X225606Y290389D01*
X224082Y288865D01*
X225606D01*
X227130Y287341D01*
X515710Y246960D02*
Y244420D01*
X520790D01*
Y246960D01*
X523330D01*
Y252040D01*
X520790D01*
Y254580D01*
X515710D01*
Y252040D01*
X513170D01*
Y246960D01*
X515710D01*
X516726Y247976D02*
Y246452D01*
X519774D01*
Y247976D01*
X521298D01*
Y251024D01*
X519774D01*
Y252548D01*
X516726D01*
Y251024D01*
X515202D01*
Y247976D01*
X516726D01*
X508960Y257210D02*
Y254670D01*
X514040D01*
Y257210D01*
X516580D01*
Y262290D01*
X514040D01*
Y264830D01*
X508960D01*
Y262290D01*
X506420D01*
Y257210D01*
X508960D01*
X509976Y258226D02*
Y256702D01*
X513024D01*
Y258226D01*
X514548D01*
Y261274D01*
X513024D01*
Y262798D01*
X509976D01*
Y261274D01*
X508452D01*
Y258226D01*
X509976D01*
X770620Y85430D02*
X773160D01*
X775700Y87970D01*
X778240Y85430D01*
X780780D01*
Y87970D01*
X778240Y90510D01*
X780780Y93050D01*
Y95590D01*
X778240D01*
X775700Y93050D01*
X773160Y95590D01*
X770620D01*
Y93050D01*
X773160Y90510D01*
X770620Y87970D01*
Y85430D01*
X772652Y87462D02*
X774176D01*
X775700Y88986D01*
X777224Y87462D01*
X778748D01*
Y88986D01*
X777224Y90510D01*
X778748Y92034D01*
Y93558D01*
X777224D01*
X775700Y92034D01*
X774176Y93558D01*
X772652D01*
Y92034D01*
X774176Y90510D01*
X772652Y88986D01*
Y87462D01*
X84620Y85028D02*
X87160D01*
X89700Y87568D01*
X92240Y85028D01*
X94780D01*
Y87568D01*
X92240Y90107D01*
X94780Y92647D01*
Y95188D01*
X92240D01*
X89700Y92647D01*
X87160Y95188D01*
X84620D01*
Y92647D01*
X87160Y90107D01*
X84620Y87568D01*
Y85028D01*
X86652Y87059D02*
X88176D01*
X89700Y88583D01*
X91224Y87059D01*
X92748D01*
Y88583D01*
X91224Y90107D01*
X92748Y91631D01*
Y93155D01*
X91224D01*
X89700Y91631D01*
X88176Y93155D01*
X86652D01*
Y91631D01*
X88176Y90107D01*
X86652Y88583D01*
Y87059D01*
X770620Y1005430D02*
X773160D01*
X775700Y1007970D01*
X778240Y1005430D01*
X780780D01*
Y1007970D01*
X778240Y1010510D01*
X780780Y1013050D01*
Y1015590D01*
X778240D01*
X775700Y1013050D01*
X773160Y1015590D01*
X770620D01*
Y1013050D01*
X773160Y1010510D01*
X770620Y1007970D01*
Y1005430D01*
X772652Y1007462D02*
X774176D01*
X775700Y1008986D01*
X777224Y1007462D01*
X778748D01*
Y1008986D01*
X777224Y1010510D01*
X778748Y1012034D01*
Y1013558D01*
X777224D01*
X775700Y1012034D01*
X774176Y1013558D01*
X772652D01*
Y1012034D01*
X774176Y1010510D01*
X772652Y1008986D01*
Y1007462D01*
X84620Y1005430D02*
X87160D01*
X89700Y1007970D01*
X92240Y1005430D01*
X94780D01*
Y1007970D01*
X92240Y1010510D01*
X94780Y1013050D01*
Y1015590D01*
X92240D01*
X89700Y1013050D01*
X87160Y1015590D01*
X84620D01*
Y1013050D01*
X87160Y1010510D01*
X84620Y1007970D01*
Y1005430D01*
X86652Y1007462D02*
X88176D01*
X89700Y1008986D01*
X91224Y1007462D01*
X92748D01*
Y1008986D01*
X91224Y1010510D01*
X92748Y1012034D01*
Y1013558D01*
X91224D01*
X89700Y1012034D01*
X88176Y1013558D01*
X86652D01*
Y1012034D01*
X88176Y1010510D01*
X86652Y1008986D01*
Y1007462D01*
X134960Y804960D02*
Y802420D01*
X140040D01*
Y804960D01*
X142580D01*
Y810040D01*
X140040D01*
Y812580D01*
X134960D01*
Y810040D01*
X132420D01*
Y804960D01*
X134960D01*
X135976Y805976D02*
Y804452D01*
X139024D01*
Y805976D01*
X140548D01*
Y809024D01*
X139024D01*
Y810548D01*
X135976D01*
Y809024D01*
X134452D01*
Y805976D01*
X135976D01*
X98013Y803694D02*
Y801154D01*
X103093D01*
Y803694D01*
X105633D01*
Y808774D01*
X103093D01*
Y811314D01*
X98013D01*
Y808774D01*
X95473D01*
Y803694D01*
X98013D01*
X99029Y804710D02*
Y803186D01*
X102077D01*
Y804710D01*
X103601D01*
Y807758D01*
X102077D01*
Y809282D01*
X99029D01*
Y807758D01*
X97505D01*
Y804710D01*
X99029D01*
X144960Y864960D02*
Y862420D01*
X150040D01*
Y864960D01*
X152580D01*
Y870040D01*
X150040D01*
Y872580D01*
X144960D01*
Y870040D01*
X142420D01*
Y864960D01*
X144960D01*
X145976Y865976D02*
Y864452D01*
X149024D01*
Y865976D01*
X150548D01*
Y869024D01*
X149024D01*
Y870548D01*
X145976D01*
Y869024D01*
X144452D01*
Y865976D01*
X145976D01*
X180594Y812292D02*
Y809752D01*
X185674D01*
Y812292D01*
X188214D01*
Y817372D01*
X185674D01*
Y819912D01*
X180594D01*
Y817372D01*
X178054D01*
Y812292D01*
X180594D01*
X181610Y813308D02*
Y811784D01*
X184658D01*
Y813308D01*
X186182D01*
Y816356D01*
X184658D01*
Y817880D01*
X181610D01*
Y816356D01*
X180086D01*
Y813308D01*
X181610D01*
X362814Y687460D02*
Y684920D01*
X367894D01*
Y687460D01*
X370434D01*
Y692540D01*
X367894D01*
Y695080D01*
X362814D01*
Y692540D01*
X360274D01*
Y687460D01*
X362814D01*
X363830Y688476D02*
Y686952D01*
X366878D01*
Y688476D01*
X368402D01*
Y691524D01*
X366878D01*
Y693048D01*
X363830D01*
Y691524D01*
X362306D01*
Y688476D01*
X363830D01*
X493118Y426720D02*
Y424180D01*
X498198D01*
Y426720D01*
X500738D01*
Y431800D01*
X498198D01*
Y434340D01*
X493118D01*
Y431800D01*
X490578D01*
Y426720D01*
X493118D01*
X494134Y427736D02*
Y426212D01*
X497182D01*
Y427736D01*
X498706D01*
Y430784D01*
X497182D01*
Y432308D01*
X494134D01*
Y430784D01*
X492610D01*
Y427736D01*
X494134D01*
X484378Y426720D02*
Y424180D01*
X489458D01*
Y426720D01*
X491998D01*
Y431800D01*
X489458D01*
Y434340D01*
X484378D01*
Y431800D01*
X481838D01*
Y426720D01*
X484378D01*
X485394Y427736D02*
Y426212D01*
X488442D01*
Y427736D01*
X489966D01*
Y430784D01*
X488442D01*
Y432308D01*
X485394D01*
Y430784D01*
X483870D01*
Y427736D01*
X485394D01*
X387350Y760476D02*
Y757936D01*
X392430D01*
Y760476D01*
X394970D01*
Y765556D01*
X392430D01*
Y768096D01*
X387350D01*
Y765556D01*
X384810D01*
Y760476D01*
X387350D01*
X388366Y761492D02*
Y759968D01*
X391414D01*
Y761492D01*
X392938D01*
Y764540D01*
X391414D01*
Y766064D01*
X388366D01*
Y764540D01*
X386842D01*
Y761492D01*
X388366D01*
X397196Y767394D02*
Y764854D01*
X402276D01*
Y767394D01*
X404816D01*
Y772474D01*
X402276D01*
Y775014D01*
X397196D01*
Y772474D01*
X394656D01*
Y767394D01*
X397196D01*
X398212Y768410D02*
Y766886D01*
X401260D01*
Y768410D01*
X402784D01*
Y771458D01*
X401260D01*
Y772982D01*
X398212D01*
Y771458D01*
X396688D01*
Y768410D01*
X398212D01*
X407162Y813816D02*
Y811276D01*
X412242D01*
Y813816D01*
X414782D01*
Y818896D01*
X412242D01*
Y821436D01*
X407162D01*
Y818896D01*
X404622D01*
Y813816D01*
X407162D01*
X408178Y814832D02*
Y813308D01*
X411226D01*
Y814832D01*
X412750D01*
Y817880D01*
X411226D01*
Y819404D01*
X408178D01*
Y817880D01*
X406654D01*
Y814832D01*
X408178D01*
X503174Y961644D02*
Y959104D01*
X508254D01*
Y961644D01*
X510794D01*
Y966724D01*
X508254D01*
Y969264D01*
X503174D01*
Y966724D01*
X500634D01*
Y961644D01*
X503174D01*
X504190Y962660D02*
Y961136D01*
X507238D01*
Y962660D01*
X508762D01*
Y965708D01*
X507238D01*
Y967232D01*
X504190D01*
Y965708D01*
X502666D01*
Y962660D01*
X504190D01*
X445008Y692912D02*
Y690372D01*
X450088D01*
Y692912D01*
X452628D01*
Y697992D01*
X450088D01*
Y700532D01*
X445008D01*
Y697992D01*
X442468D01*
Y692912D01*
X445008D01*
X446024Y693928D02*
Y692404D01*
X449072D01*
Y693928D01*
X450596D01*
Y696976D01*
X449072D01*
Y698500D01*
X446024D01*
Y696976D01*
X444500D01*
Y693928D01*
X446024D01*
X241300Y514985D02*
Y512445D01*
X246380D01*
Y514985D01*
X248920D01*
Y520065D01*
X246380D01*
Y522605D01*
X241300D01*
Y520065D01*
X238760D01*
Y514985D01*
X241300D01*
X242316Y516001D02*
Y514477D01*
X245364D01*
Y516001D01*
X246888D01*
Y519049D01*
X245364D01*
Y520573D01*
X242316D01*
Y519049D01*
X240792D01*
Y516001D01*
X242316D01*
X362565Y256943D02*
Y254403D01*
X367645D01*
Y256943D01*
X370185D01*
Y262024D01*
X367645D01*
Y264564D01*
X362565D01*
Y262024D01*
X360025D01*
Y256943D01*
X362565D01*
X363581Y257959D02*
Y256436D01*
X366629D01*
Y257959D01*
X368153D01*
Y261007D01*
X366629D01*
Y262532D01*
X363581D01*
Y261007D01*
X362057D01*
Y257959D01*
X363581D01*
X306589Y210392D02*
Y207852D01*
X311669D01*
Y210392D01*
X314209D01*
Y215472D01*
X311669D01*
Y218012D01*
X306589D01*
Y215472D01*
X304049D01*
Y210392D01*
X306589D01*
X307605Y211408D02*
Y209884D01*
X310653D01*
Y211408D01*
X312177D01*
Y214456D01*
X310653D01*
Y215980D01*
X307605D01*
Y214456D01*
X306081D01*
Y211408D01*
X307605D01*
X721614Y552958D02*
Y550418D01*
X726694D01*
Y552958D01*
X729234D01*
Y558038D01*
X726694D01*
Y560578D01*
X721614D01*
Y558038D01*
X719074D01*
Y552958D01*
X721614D01*
X722630Y553974D02*
Y552450D01*
X725678D01*
Y553974D01*
X727202D01*
Y557022D01*
X725678D01*
Y558546D01*
X722630D01*
Y557022D01*
X721106D01*
Y553974D01*
X722630D01*
X712470Y538734D02*
Y536194D01*
X717550D01*
Y538734D01*
X720090D01*
Y543814D01*
X717550D01*
Y546354D01*
X712470D01*
Y543814D01*
X709930D01*
Y538734D01*
X712470D01*
X713486Y539750D02*
Y538226D01*
X716534D01*
Y539750D01*
X718058D01*
Y542798D01*
X716534D01*
Y544322D01*
X713486D01*
Y542798D01*
X711962D01*
Y539750D01*
X713486D01*
X704342Y553212D02*
Y550672D01*
X709422D01*
Y553212D01*
X711962D01*
Y558292D01*
X709422D01*
Y560832D01*
X704342D01*
Y558292D01*
X701802D01*
Y553212D01*
X704342D01*
X705358Y554228D02*
Y552704D01*
X708406D01*
Y554228D01*
X709930D01*
Y557276D01*
X708406D01*
Y558800D01*
X705358D01*
Y557276D01*
X703834D01*
Y554228D01*
X705358D01*
X399034Y833882D02*
Y831342D01*
X404114D01*
Y833882D01*
X406654D01*
Y838962D01*
X404114D01*
Y841502D01*
X399034D01*
Y838962D01*
X396494D01*
Y833882D01*
X399034D01*
X400050Y834898D02*
Y833374D01*
X403098D01*
Y834898D01*
X404622D01*
Y837946D01*
X403098D01*
Y839470D01*
X400050D01*
Y837946D01*
X398526D01*
Y834898D01*
X400050D01*
X407364Y829555D02*
Y827015D01*
X412444D01*
Y829555D01*
X414984D01*
Y834635D01*
X412444D01*
Y837175D01*
X407364D01*
Y834635D01*
X404824D01*
Y829555D01*
X407364D01*
X408380Y830571D02*
Y829047D01*
X411428D01*
Y830571D01*
X412952D01*
Y833619D01*
X411428D01*
Y835143D01*
X408380D01*
Y833619D01*
X406856D01*
Y830571D01*
X408380D01*
X462534Y237744D02*
Y235204D01*
X467614D01*
Y237744D01*
X470154D01*
Y242824D01*
X467614D01*
Y245364D01*
X462534D01*
Y242824D01*
X459994D01*
Y237744D01*
X462534D01*
X463550Y238760D02*
Y237236D01*
X466598D01*
Y238760D01*
X468122D01*
Y241808D01*
X466598D01*
Y243332D01*
X463550D01*
Y241808D01*
X462026D01*
Y238760D01*
X463550D01*
X569640Y212904D02*
Y210364D01*
X574720D01*
Y212904D01*
X577260D01*
Y217984D01*
X574720D01*
Y220524D01*
X569640D01*
Y217984D01*
X567100D01*
Y212904D01*
X569640D01*
X570656Y213920D02*
Y212396D01*
X573704D01*
Y213920D01*
X575228D01*
Y216968D01*
X573704D01*
Y218492D01*
X570656D01*
Y216968D01*
X569132D01*
Y213920D01*
X570656D01*
X588518Y209296D02*
Y206756D01*
X593598D01*
Y209296D01*
X596138D01*
Y214376D01*
X593598D01*
Y216916D01*
X588518D01*
Y214376D01*
X585978D01*
Y209296D01*
X588518D01*
X589534Y210312D02*
Y208788D01*
X592582D01*
Y210312D01*
X594106D01*
Y213360D01*
X592582D01*
Y214884D01*
X589534D01*
Y213360D01*
X588010D01*
Y210312D01*
X589534D01*
X540050Y202106D02*
Y199566D01*
X545130D01*
Y202106D01*
X547670D01*
Y207186D01*
X545130D01*
Y209726D01*
X540050D01*
Y207186D01*
X537510D01*
Y202106D01*
X540050D01*
X541066Y203122D02*
Y201598D01*
X544114D01*
Y203122D01*
X545638D01*
Y206170D01*
X544114D01*
Y207694D01*
X541066D01*
Y206170D01*
X539542D01*
Y203122D01*
X541066D01*
X189248Y91694D02*
Y89154D01*
X194328D01*
Y91694D01*
X196868D01*
Y96774D01*
X194328D01*
Y99314D01*
X189248D01*
Y96774D01*
X186708D01*
Y91694D01*
X189248D01*
X190264Y92710D02*
Y91186D01*
X193312D01*
Y92710D01*
X194836D01*
Y95758D01*
X193312D01*
Y97282D01*
X190264D01*
Y95758D01*
X188740D01*
Y92710D01*
X190264D01*
X180508Y91694D02*
Y89154D01*
X185588D01*
Y91694D01*
X188128D01*
Y96774D01*
X185588D01*
Y99314D01*
X180508D01*
Y96774D01*
X177968D01*
Y91694D01*
X180508D01*
X181524Y92710D02*
Y91186D01*
X184572D01*
Y92710D01*
X186096D01*
Y95758D01*
X184572D01*
Y97282D01*
X181524D01*
Y95758D01*
X180000D01*
Y92710D01*
X181524D01*
X509374Y459740D02*
Y457200D01*
X514454D01*
Y459740D01*
X516994D01*
Y464820D01*
X514454D01*
Y467360D01*
X509374D01*
Y464820D01*
X506834D01*
Y459740D01*
X509374D01*
X510390Y460756D02*
Y459232D01*
X513438D01*
Y460756D01*
X514962D01*
Y463804D01*
X513438D01*
Y465328D01*
X510390D01*
Y463804D01*
X508866D01*
Y460756D01*
X510390D01*
X500634Y459740D02*
Y457200D01*
X505714D01*
Y459740D01*
X508254D01*
Y464820D01*
X505714D01*
Y467360D01*
X500634D01*
Y464820D01*
X498094D01*
Y459740D01*
X500634D01*
X501650Y460756D02*
Y459232D01*
X504698D01*
Y460756D01*
X506222D01*
Y463804D01*
X504698D01*
Y465328D01*
X501650D01*
Y463804D01*
X500126D01*
Y460756D01*
X501650D01*
X219248Y90170D02*
Y87630D01*
X224328D01*
Y90170D01*
X226868D01*
Y95250D01*
X224328D01*
Y97790D01*
X219248D01*
Y95250D01*
X216708D01*
Y90170D01*
X219248D01*
X220264Y91186D02*
Y89662D01*
X223312D01*
Y91186D01*
X224836D01*
Y94234D01*
X223312D01*
Y95758D01*
X220264D01*
Y94234D01*
X218740D01*
Y91186D01*
X220264D01*
X210508Y90170D02*
Y87630D01*
X215588D01*
Y90170D01*
X218128D01*
Y95250D01*
X215588D01*
Y97790D01*
X210508D01*
Y95250D01*
X207968D01*
Y90170D01*
X210508D01*
X211524Y91186D02*
Y89662D01*
X214572D01*
Y91186D01*
X216096D01*
Y94234D01*
X214572D01*
Y95758D01*
X211524D01*
Y94234D01*
X210000D01*
Y91186D01*
X211524D01*
X526144Y426466D02*
Y423926D01*
X531224D01*
Y426466D01*
X533764D01*
Y431546D01*
X531224D01*
Y434086D01*
X526144D01*
Y431546D01*
X523604D01*
Y426466D01*
X526144D01*
X527160Y427482D02*
Y425958D01*
X530208D01*
Y427482D01*
X531732D01*
Y430530D01*
X530208D01*
Y432054D01*
X527160D01*
Y430530D01*
X525636D01*
Y427482D01*
X527160D01*
X517404Y426466D02*
Y423926D01*
X522484D01*
Y426466D01*
X525024D01*
Y431546D01*
X522484D01*
Y434086D01*
X517404D01*
Y431546D01*
X514864D01*
Y426466D01*
X517404D01*
X518420Y427482D02*
Y425958D01*
X521468D01*
Y427482D01*
X522992D01*
Y430530D01*
X521468D01*
Y432054D01*
X518420D01*
Y430530D01*
X516896D01*
Y427482D01*
X518420D01*
X621324Y175808D02*
Y173268D01*
X626404D01*
Y175808D01*
X628944D01*
Y180888D01*
X626404D01*
Y183428D01*
X621324D01*
Y180888D01*
X618784D01*
Y175808D01*
X621324D01*
X622340Y176824D02*
Y175300D01*
X625388D01*
Y176824D01*
X626912D01*
Y179872D01*
X625388D01*
Y181396D01*
X622340D01*
Y179872D01*
X620816D01*
Y176824D01*
X622340D01*
X298704Y232918D02*
Y230378D01*
X303784D01*
Y232918D01*
X306324D01*
Y237998D01*
X303784D01*
Y240538D01*
X298704D01*
Y237998D01*
X296164D01*
Y232918D01*
X298704D01*
X299720Y233934D02*
Y232410D01*
X302768D01*
Y233934D01*
X304292D01*
Y236982D01*
X302768D01*
Y238506D01*
X299720D01*
Y236982D01*
X298196D01*
Y233934D01*
X299720D01*
X467601Y696988D02*
Y694448D01*
X472681D01*
Y696988D01*
X475221D01*
Y702068D01*
X472681D01*
Y704608D01*
X467601D01*
Y702068D01*
X465061D01*
Y696988D01*
X467601D01*
X468617Y698004D02*
Y696480D01*
X471665D01*
Y698004D01*
X473189D01*
Y701052D01*
X471665D01*
Y702576D01*
X468617D01*
Y701052D01*
X467093D01*
Y698004D01*
X468617D01*
X183388Y432054D02*
Y429514D01*
X188468D01*
Y432054D01*
X191008D01*
Y437134D01*
X188468D01*
Y439674D01*
X183388D01*
Y437134D01*
X180848D01*
Y432054D01*
X183388D01*
X184404Y433070D02*
Y431546D01*
X187452D01*
Y433070D01*
X188976D01*
Y436118D01*
X187452D01*
Y437642D01*
X184404D01*
Y436118D01*
X182880D01*
Y433070D01*
X184404D01*
X167386Y431800D02*
Y429260D01*
X172466D01*
Y431800D01*
X175006D01*
Y436880D01*
X172466D01*
Y439420D01*
X167386D01*
Y436880D01*
X164846D01*
Y431800D01*
X167386D01*
X168402Y432816D02*
Y431292D01*
X171450D01*
Y432816D01*
X172974D01*
Y435864D01*
X171450D01*
Y437388D01*
X168402D01*
Y435864D01*
X166878D01*
Y432816D01*
X168402D01*
X175514Y419608D02*
Y417068D01*
X180594D01*
Y419608D01*
X183134D01*
Y424688D01*
X180594D01*
Y427228D01*
X175514D01*
Y424688D01*
X172974D01*
Y419608D01*
X175514D01*
X176530Y420624D02*
Y419100D01*
X179578D01*
Y420624D01*
X181102D01*
Y423672D01*
X179578D01*
Y425196D01*
X176530D01*
Y423672D01*
X175006D01*
Y420624D01*
X176530D01*
X191516Y419862D02*
Y417322D01*
X196596D01*
Y419862D01*
X199136D01*
Y424942D01*
X196596D01*
Y427482D01*
X191516D01*
Y424942D01*
X188976D01*
Y419862D01*
X191516D01*
X192532Y420878D02*
Y419354D01*
X195580D01*
Y420878D01*
X197104D01*
Y423926D01*
X195580D01*
Y425450D01*
X192532D01*
Y423926D01*
X191008D01*
Y420878D01*
X192532D01*
X439674Y164084D02*
Y161544D01*
X444754D01*
Y164084D01*
X447294D01*
Y169164D01*
X444754D01*
Y171704D01*
X439674D01*
Y169164D01*
X437134D01*
Y164084D01*
X439674D01*
X440690Y165100D02*
Y163576D01*
X443738D01*
Y165100D01*
X445262D01*
Y168148D01*
X443738D01*
Y169672D01*
X440690D01*
Y168148D01*
X439166D01*
Y165100D01*
X440690D01*
X481291Y151826D02*
Y149285D01*
X486371D01*
Y151826D01*
X488911D01*
Y156905D01*
X486371D01*
Y159445D01*
X481291D01*
Y156905D01*
X478751D01*
Y151826D01*
X481291D01*
X482307Y152842D02*
Y151318D01*
X485355D01*
Y152842D01*
X486879D01*
Y155890D01*
X485355D01*
Y157414D01*
X482307D01*
Y155890D01*
X480783D01*
Y152842D01*
X482307D01*
X423926Y196850D02*
Y194310D01*
X429006D01*
Y196850D01*
X431546D01*
Y201930D01*
X429006D01*
Y204470D01*
X423926D01*
Y201930D01*
X421386D01*
Y196850D01*
X423926D01*
X424942Y197866D02*
Y196342D01*
X427990D01*
Y197866D01*
X429514D01*
Y200914D01*
X427990D01*
Y202438D01*
X424942D01*
Y200914D01*
X423418D01*
Y197866D01*
X424942D01*
X530098Y178054D02*
Y175514D01*
X535178D01*
Y178054D01*
X537718D01*
Y183134D01*
X535178D01*
Y185674D01*
X530098D01*
Y183134D01*
X527558D01*
Y178054D01*
X530098D01*
X531114Y179070D02*
Y177546D01*
X534162D01*
Y179070D01*
X535686D01*
Y182118D01*
X534162D01*
Y183642D01*
X531114D01*
Y182118D01*
X529590D01*
Y179070D01*
X531114D01*
X579995Y177554D02*
Y175014D01*
X585075D01*
Y177554D01*
X587615D01*
Y182634D01*
X585075D01*
Y185174D01*
X579995D01*
Y182634D01*
X577455D01*
Y177554D01*
X579995D01*
X581011Y178570D02*
Y177046D01*
X584059D01*
Y178570D01*
X585583D01*
Y181618D01*
X584059D01*
Y183142D01*
X581011D01*
Y181618D01*
X579487D01*
Y178570D01*
X581011D01*
X590031Y177444D02*
Y174904D01*
X595111D01*
Y177444D01*
X597651D01*
Y182524D01*
X595111D01*
Y185064D01*
X590031D01*
Y182524D01*
X587491D01*
Y177444D01*
X590031D01*
X591047Y178460D02*
Y176936D01*
X594095D01*
Y178460D01*
X595619D01*
Y181508D01*
X594095D01*
Y183032D01*
X591047D01*
Y181508D01*
X589523D01*
Y178460D01*
X591047D01*
X694151Y140442D02*
Y137902D01*
X699231D01*
Y140442D01*
X701771D01*
Y145522D01*
X699231D01*
Y148062D01*
X694151D01*
Y145522D01*
X691611D01*
Y140442D01*
X694151D01*
X695167Y141458D02*
Y139934D01*
X698215D01*
Y141458D01*
X699739D01*
Y144506D01*
X698215D01*
Y146030D01*
X695167D01*
Y144506D01*
X693643D01*
Y141458D01*
X695167D01*
X687877Y134727D02*
Y132187D01*
X692957D01*
Y134727D01*
X695497D01*
Y139807D01*
X692957D01*
Y142347D01*
X687877D01*
Y139807D01*
X685337D01*
Y134727D01*
X687877D01*
X688893Y135743D02*
Y134219D01*
X691941D01*
Y135743D01*
X693465D01*
Y138791D01*
X691941D01*
Y140315D01*
X688893D01*
Y138791D01*
X687369D01*
Y135743D01*
X688893D01*
X686816Y197866D02*
Y195326D01*
X691896D01*
Y197866D01*
X694436D01*
Y202946D01*
X691896D01*
Y205486D01*
X686816D01*
Y202946D01*
X684276D01*
Y197866D01*
X686816D01*
X687832Y198882D02*
Y197358D01*
X690880D01*
Y198882D01*
X692404D01*
Y201930D01*
X690880D01*
Y203454D01*
X687832D01*
Y201930D01*
X686308D01*
Y198882D01*
X687832D01*
X547116Y177292D02*
Y174752D01*
X552196D01*
Y177292D01*
X554736D01*
Y182372D01*
X552196D01*
Y184912D01*
X547116D01*
Y182372D01*
X544576D01*
Y177292D01*
X547116D01*
X548132Y178308D02*
Y176784D01*
X551180D01*
Y178308D01*
X552704D01*
Y181356D01*
X551180D01*
Y182880D01*
X548132D01*
Y181356D01*
X546608D01*
Y178308D01*
X548132D01*
X602234Y208534D02*
Y205994D01*
X607314D01*
Y208534D01*
X609854D01*
Y213614D01*
X607314D01*
Y216154D01*
X602234D01*
Y213614D01*
X599694D01*
Y208534D01*
X602234D01*
X603250Y209550D02*
Y208026D01*
X606298D01*
Y209550D01*
X607822D01*
Y212598D01*
X606298D01*
Y214122D01*
X603250D01*
Y212598D01*
X601726D01*
Y209550D01*
X603250D01*
X722460Y639960D02*
Y637420D01*
X727540D01*
Y639960D01*
X730080D01*
Y645040D01*
X727540D01*
Y647580D01*
X722460D01*
Y645040D01*
X719920D01*
Y639960D01*
X722460D01*
X723476Y640976D02*
Y639452D01*
X726524D01*
Y640976D01*
X728048D01*
Y644024D01*
X726524D01*
Y645548D01*
X723476D01*
Y644024D01*
X721952D01*
Y640976D01*
X723476D01*
X799710Y597960D02*
Y595420D01*
X804790D01*
Y597960D01*
X807330D01*
Y603040D01*
X804790D01*
Y605580D01*
X799710D01*
Y603040D01*
X797170D01*
Y597960D01*
X799710D01*
X800726Y598976D02*
Y597452D01*
X803774D01*
Y598976D01*
X805298D01*
Y602024D01*
X803774D01*
Y603548D01*
X800726D01*
Y602024D01*
X799202D01*
Y598976D01*
X800726D01*
X732282Y588518D02*
Y585978D01*
X737362D01*
Y588518D01*
X739902D01*
Y593598D01*
X737362D01*
Y596138D01*
X732282D01*
Y593598D01*
X729742D01*
Y588518D01*
X732282D01*
X733298Y589534D02*
Y588010D01*
X736346D01*
Y589534D01*
X737870D01*
Y592582D01*
X736346D01*
Y594106D01*
X733298D01*
Y592582D01*
X731774D01*
Y589534D01*
X733298D01*
X508000Y821944D02*
Y819404D01*
X513080D01*
Y821944D01*
X515620D01*
Y827024D01*
X513080D01*
Y829564D01*
X508000D01*
Y827024D01*
X505460D01*
Y821944D01*
X508000D01*
X509016Y822960D02*
Y821436D01*
X512064D01*
Y822960D01*
X513588D01*
Y826008D01*
X512064D01*
Y827532D01*
X509016D01*
Y826008D01*
X507492D01*
Y822960D01*
X509016D01*
X465582Y845820D02*
Y843280D01*
X470662D01*
Y845820D01*
X473202D01*
Y850900D01*
X470662D01*
Y853440D01*
X465582D01*
Y850900D01*
X463042D01*
Y845820D01*
X465582D01*
X466598Y846836D02*
Y845312D01*
X469646D01*
Y846836D01*
X471170D01*
Y849884D01*
X469646D01*
Y851408D01*
X466598D01*
Y849884D01*
X465074D01*
Y846836D01*
X466598D01*
X445262Y831342D02*
Y828802D01*
X450342D01*
Y831342D01*
X452882D01*
Y836422D01*
X450342D01*
Y838962D01*
X445262D01*
Y836422D01*
X442722D01*
Y831342D01*
X445262D01*
X446278Y832358D02*
Y830834D01*
X449326D01*
Y832358D01*
X450850D01*
Y835406D01*
X449326D01*
Y836930D01*
X446278D01*
Y835406D01*
X444754D01*
Y832358D01*
X446278D01*
X405384Y699516D02*
Y696976D01*
X410464D01*
Y699516D01*
X413004D01*
Y704596D01*
X410464D01*
Y707136D01*
X405384D01*
Y704596D01*
X402844D01*
Y699516D01*
X405384D01*
X406400Y700532D02*
Y699008D01*
X409448D01*
Y700532D01*
X410972D01*
Y703580D01*
X409448D01*
Y705104D01*
X406400D01*
Y703580D01*
X404876D01*
Y700532D01*
X406400D01*
X413004Y718058D02*
Y715518D01*
X418084D01*
Y718058D01*
X420624D01*
Y723138D01*
X418084D01*
Y725678D01*
X413004D01*
Y723138D01*
X410464D01*
Y718058D01*
X413004D01*
X414020Y719074D02*
Y717550D01*
X417068D01*
Y719074D01*
X418592D01*
Y722122D01*
X417068D01*
Y723646D01*
X414020D01*
Y722122D01*
X412496D01*
Y719074D01*
X414020D01*
X386334Y704596D02*
Y702056D01*
X391414D01*
Y704596D01*
X393954D01*
Y709676D01*
X391414D01*
Y712216D01*
X386334D01*
Y709676D01*
X383794D01*
Y704596D01*
X386334D01*
X387350Y705612D02*
Y704088D01*
X390398D01*
Y705612D01*
X391922D01*
Y708660D01*
X390398D01*
Y710184D01*
X387350D01*
Y708660D01*
X385826D01*
Y705612D01*
X387350D01*
X635254Y952754D02*
Y950214D01*
X640334D01*
Y952754D01*
X642874D01*
Y957834D01*
X640334D01*
Y960374D01*
X635254D01*
Y957834D01*
X632714D01*
Y952754D01*
X635254D01*
X636270Y953770D02*
Y952246D01*
X639318D01*
Y953770D01*
X640842D01*
Y956818D01*
X639318D01*
Y958342D01*
X636270D01*
Y956818D01*
X634746D01*
Y953770D01*
X636270D01*
X263290Y854710D02*
Y852170D01*
X268370D01*
Y854710D01*
X270910D01*
Y859790D01*
X268370D01*
Y862330D01*
X263290D01*
Y859790D01*
X260750D01*
Y854710D01*
X263290D01*
X264306Y855726D02*
Y854202D01*
X267354D01*
Y855726D01*
X268878D01*
Y858774D01*
X267354D01*
Y860298D01*
X264306D01*
Y858774D01*
X262782D01*
Y855726D01*
X264306D01*
X497332Y860552D02*
Y858012D01*
X502412D01*
Y860552D01*
X504952D01*
Y865632D01*
X502412D01*
Y868172D01*
X497332D01*
Y865632D01*
X494792D01*
Y860552D01*
X497332D01*
X498348Y861568D02*
Y860044D01*
X501396D01*
Y861568D01*
X502920D01*
Y864616D01*
X501396D01*
Y866140D01*
X498348D01*
Y864616D01*
X496824D01*
Y861568D01*
X498348D01*
X415544Y930148D02*
Y927608D01*
X420624D01*
Y930148D01*
X423164D01*
Y935228D01*
X420624D01*
Y937768D01*
X415544D01*
Y935228D01*
X413004D01*
Y930148D01*
X415544D01*
X416560Y931164D02*
Y929640D01*
X419608D01*
Y931164D01*
X421132D01*
Y934212D01*
X419608D01*
Y935736D01*
X416560D01*
Y934212D01*
X415036D01*
Y931164D01*
X416560D01*
X583438Y964438D02*
Y961898D01*
X588518D01*
Y964438D01*
X591058D01*
Y969518D01*
X588518D01*
Y972058D01*
X583438D01*
Y969518D01*
X580898D01*
Y964438D01*
X583438D01*
X584454Y965454D02*
Y963930D01*
X587502D01*
Y965454D01*
X589026D01*
Y968502D01*
X587502D01*
Y970026D01*
X584454D01*
Y968502D01*
X582930D01*
Y965454D01*
X584454D01*
X695452Y994918D02*
Y992378D01*
X700532D01*
Y994918D01*
X703072D01*
Y999998D01*
X700532D01*
Y1002538D01*
X695452D01*
Y999998D01*
X692912D01*
Y994918D01*
X695452D01*
X696468Y995934D02*
Y994410D01*
X699516D01*
Y995934D01*
X701040D01*
Y998982D01*
X699516D01*
Y1000506D01*
X696468D01*
Y998982D01*
X694944D01*
Y995934D01*
X696468D01*
X322834Y864362D02*
Y861822D01*
X327914D01*
Y864362D01*
X330454D01*
Y869442D01*
X327914D01*
Y871982D01*
X322834D01*
Y869442D01*
X320294D01*
Y864362D01*
X322834D01*
X323850Y865378D02*
Y863854D01*
X326898D01*
Y865378D01*
X328422D01*
Y868426D01*
X326898D01*
Y869950D01*
X323850D01*
Y868426D01*
X322326D01*
Y865378D01*
X323850D01*
X302006Y825754D02*
Y823214D01*
X307086D01*
Y825754D01*
X309626D01*
Y830834D01*
X307086D01*
Y833374D01*
X302006D01*
Y830834D01*
X299466D01*
Y825754D01*
X302006D01*
X303022Y826770D02*
Y825246D01*
X306070D01*
Y826770D01*
X307594D01*
Y829818D01*
X306070D01*
Y831342D01*
X303022D01*
Y829818D01*
X301498D01*
Y826770D01*
X303022D01*
X283034Y825099D02*
Y822559D01*
X288114D01*
Y825099D01*
X290655D01*
Y830179D01*
X288114D01*
Y832719D01*
X283034D01*
Y830179D01*
X280494D01*
Y825099D01*
X283034D01*
X284051Y826115D02*
Y824591D01*
X287099D01*
Y826115D01*
X288622D01*
Y829163D01*
X287099D01*
Y830687D01*
X284051D01*
Y829163D01*
X282526D01*
Y826115D01*
X284051D01*
X428842Y978555D02*
Y976015D01*
X433922D01*
Y978555D01*
X436462D01*
Y983635D01*
X433922D01*
Y986175D01*
X428842D01*
Y983635D01*
X426302D01*
Y978555D01*
X428842D01*
X429858Y979571D02*
Y978047D01*
X432906D01*
Y979571D01*
X434430D01*
Y982619D01*
X432906D01*
Y984143D01*
X429858D01*
Y982619D01*
X428334D01*
Y979571D01*
X429858D01*
X522740Y978555D02*
Y976015D01*
X527820D01*
Y978555D01*
X530360D01*
Y983635D01*
X527820D01*
Y986175D01*
X522740D01*
Y983635D01*
X520200D01*
Y978555D01*
X522740D01*
X523756Y979571D02*
Y978047D01*
X526804D01*
Y979571D01*
X528328D01*
Y982619D01*
X526804D01*
Y984143D01*
X523756D01*
Y982619D01*
X522232D01*
Y979571D01*
X523756D01*
X217170Y834898D02*
Y832358D01*
X222250D01*
Y834898D01*
X224790D01*
Y839978D01*
X222250D01*
Y842518D01*
X217170D01*
Y839978D01*
X214630D01*
Y834898D01*
X217170D01*
X218186Y835914D02*
Y834390D01*
X221234D01*
Y835914D01*
X222758D01*
Y838962D01*
X221234D01*
Y840486D01*
X218186D01*
Y838962D01*
X216662D01*
Y835914D01*
X218186D01*
X495046Y780542D02*
Y778002D01*
X500126D01*
Y780542D01*
X502666D01*
Y785622D01*
X500126D01*
Y788162D01*
X495046D01*
Y785622D01*
X492506D01*
Y780542D01*
X495046D01*
X496062Y781558D02*
Y780034D01*
X499110D01*
Y781558D01*
X500634D01*
Y784606D01*
X499110D01*
Y786130D01*
X496062D01*
Y784606D01*
X494538D01*
Y781558D01*
X496062D01*
X332994Y957580D02*
Y955040D01*
X338074D01*
Y957580D01*
X340614D01*
Y962660D01*
X338074D01*
Y965200D01*
X332994D01*
Y962660D01*
X330454D01*
Y957580D01*
X332994D01*
X334010Y958596D02*
Y957072D01*
X337058D01*
Y958596D01*
X338582D01*
Y961644D01*
X337058D01*
Y963168D01*
X334010D01*
Y961644D01*
X332486D01*
Y958596D01*
X334010D01*
X524086Y796628D02*
Y794088D01*
X529166D01*
Y796628D01*
X531706D01*
Y801708D01*
X529166D01*
Y804248D01*
X524086D01*
Y801708D01*
X521546D01*
Y796628D01*
X524086D01*
X525102Y797644D02*
Y796120D01*
X528150D01*
Y797644D01*
X529674D01*
Y800692D01*
X528150D01*
Y802216D01*
X525102D01*
Y800692D01*
X523578D01*
Y797644D01*
X525102D01*
X517906Y790448D02*
Y787908D01*
X522986D01*
Y790448D01*
X525526D01*
Y795528D01*
X522986D01*
Y798068D01*
X517906D01*
Y795528D01*
X515366D01*
Y790448D01*
X517906D01*
X518922Y791464D02*
Y789940D01*
X521970D01*
Y791464D01*
X523494D01*
Y794512D01*
X521970D01*
Y796036D01*
X518922D01*
Y794512D01*
X517398D01*
Y791464D01*
X518922D01*
X134355Y913989D02*
Y911449D01*
X139435D01*
Y913989D01*
X141975D01*
Y919069D01*
X139435D01*
Y921609D01*
X134355D01*
Y919069D01*
X131815D01*
Y913989D01*
X134355D01*
X135371Y915005D02*
Y913481D01*
X138419D01*
Y915005D01*
X139943D01*
Y918053D01*
X138419D01*
Y919577D01*
X135371D01*
Y918053D01*
X133847D01*
Y915005D01*
X135371D01*
X135128Y732536D02*
Y729996D01*
X140208D01*
Y732536D01*
X142748D01*
Y737616D01*
X140208D01*
Y740156D01*
X135128D01*
Y737616D01*
X132588D01*
Y732536D01*
X135128D01*
X136144Y733552D02*
Y732028D01*
X139192D01*
Y733552D01*
X140716D01*
Y736600D01*
X139192D01*
Y738124D01*
X136144D01*
Y736600D01*
X134620D01*
Y733552D01*
X136144D01*
X403098Y923544D02*
Y921004D01*
X408178D01*
Y923544D01*
X410718D01*
Y928624D01*
X408178D01*
Y931164D01*
X403098D01*
Y928624D01*
X400558D01*
Y923544D01*
X403098D01*
X404114Y924560D02*
Y923036D01*
X407162D01*
Y924560D01*
X408686D01*
Y927608D01*
X407162D01*
Y929132D01*
X404114D01*
Y927608D01*
X402590D01*
Y924560D01*
X404114D01*
X275336Y879348D02*
Y876808D01*
X280416D01*
Y879348D01*
X282956D01*
Y884428D01*
X280416D01*
Y886968D01*
X275336D01*
Y884428D01*
X272796D01*
Y879348D01*
X275336D01*
X276352Y880364D02*
Y878840D01*
X279400D01*
Y880364D01*
X280924D01*
Y883412D01*
X279400D01*
Y884936D01*
X276352D01*
Y883412D01*
X274828D01*
Y880364D01*
X276352D01*
X258572Y882650D02*
Y880110D01*
X263652D01*
Y882650D01*
X266192D01*
Y887730D01*
X263652D01*
Y890270D01*
X258572D01*
Y887730D01*
X256032D01*
Y882650D01*
X258572D01*
X259588Y883666D02*
Y882142D01*
X262636D01*
Y883666D01*
X264160D01*
Y886714D01*
X262636D01*
Y888238D01*
X259588D01*
Y886714D01*
X258064D01*
Y883666D01*
X259588D01*
X362204Y861822D02*
Y859282D01*
X367284D01*
Y861822D01*
X369824D01*
Y866902D01*
X367284D01*
Y869442D01*
X362204D01*
Y866902D01*
X359664D01*
Y861822D01*
X362204D01*
X363220Y862838D02*
Y861314D01*
X366268D01*
Y862838D01*
X367792D01*
Y865886D01*
X366268D01*
Y867410D01*
X363220D01*
Y865886D01*
X361696D01*
Y862838D01*
X363220D01*
X341630Y826008D02*
Y823468D01*
X346710D01*
Y826008D01*
X349250D01*
Y831088D01*
X346710D01*
Y833628D01*
X341630D01*
Y831088D01*
X339090D01*
Y826008D01*
X341630D01*
X342646Y827024D02*
Y825500D01*
X345694D01*
Y827024D01*
X347218D01*
Y830072D01*
X345694D01*
Y831596D01*
X342646D01*
Y830072D01*
X341122D01*
Y827024D01*
X342646D01*
X424434Y908558D02*
Y906018D01*
X429514D01*
Y908558D01*
X432054D01*
Y913638D01*
X429514D01*
Y916178D01*
X424434D01*
Y913638D01*
X421894D01*
Y908558D01*
X424434D01*
X425450Y909574D02*
Y908050D01*
X428498D01*
Y909574D01*
X430022D01*
Y912622D01*
X428498D01*
Y914146D01*
X425450D01*
Y912622D01*
X423926D01*
Y909574D01*
X425450D01*
X414274Y914654D02*
Y912114D01*
X419354D01*
Y914654D01*
X421894D01*
Y919734D01*
X419354D01*
Y922274D01*
X414274D01*
Y919734D01*
X411734D01*
Y914654D01*
X414274D01*
X415290Y915670D02*
Y914146D01*
X418338D01*
Y915670D01*
X419862D01*
Y918718D01*
X418338D01*
Y920242D01*
X415290D01*
Y918718D01*
X413766D01*
Y915670D01*
X415290D01*
X234950Y926084D02*
Y923544D01*
X240030D01*
Y926084D01*
X242570D01*
Y931164D01*
X240030D01*
Y933704D01*
X234950D01*
Y931164D01*
X232410D01*
Y926084D01*
X234950D01*
X235966Y927100D02*
Y925576D01*
X239014D01*
Y927100D01*
X240538D01*
Y930148D01*
X239014D01*
Y931672D01*
X235966D01*
Y930148D01*
X234442D01*
Y927100D01*
X235966D01*
X233680Y908558D02*
Y906018D01*
X238760D01*
Y908558D01*
X241300D01*
Y913638D01*
X238760D01*
Y916178D01*
X233680D01*
Y913638D01*
X231140D01*
Y908558D01*
X233680D01*
X234696Y909574D02*
Y908050D01*
X237744D01*
Y909574D01*
X239268D01*
Y912622D01*
X237744D01*
Y914146D01*
X234696D01*
Y912622D01*
X233172D01*
Y909574D01*
X234696D01*
X467360Y707390D02*
Y704850D01*
X472440D01*
Y707390D01*
X474980D01*
Y712470D01*
X472440D01*
Y715010D01*
X467360D01*
Y712470D01*
X464820D01*
Y707390D01*
X467360D01*
X468376Y708406D02*
Y706882D01*
X471424D01*
Y708406D01*
X472948D01*
Y711454D01*
X471424D01*
Y712978D01*
X468376D01*
Y711454D01*
X466852D01*
Y708406D01*
X468376D01*
X292100Y673354D02*
Y670814D01*
X297180D01*
Y673354D01*
X299720D01*
Y678434D01*
X297180D01*
Y680974D01*
X292100D01*
Y678434D01*
X289560D01*
Y673354D01*
X292100D01*
X293116Y674370D02*
Y672846D01*
X296164D01*
Y674370D01*
X297688D01*
Y677418D01*
X296164D01*
Y678942D01*
X293116D01*
Y677418D01*
X291592D01*
Y674370D01*
X293116D01*
X302768Y673354D02*
Y670814D01*
X307848D01*
Y673354D01*
X310388D01*
Y678434D01*
X307848D01*
Y680974D01*
X302768D01*
Y678434D01*
X300228D01*
Y673354D01*
X302768D01*
X303784Y674370D02*
Y672846D01*
X306832D01*
Y674370D01*
X308356D01*
Y677418D01*
X306832D01*
Y678942D01*
X303784D01*
Y677418D01*
X302260D01*
Y674370D01*
X303784D01*
X281432Y673354D02*
Y670814D01*
X286512D01*
Y673354D01*
X289052D01*
Y678434D01*
X286512D01*
Y680974D01*
X281432D01*
Y678434D01*
X278892D01*
Y673354D01*
X281432D01*
X282448Y674370D02*
Y672846D01*
X285496D01*
Y674370D01*
X287020D01*
Y677418D01*
X285496D01*
Y678942D01*
X282448D01*
Y677418D01*
X280924D01*
Y674370D01*
X282448D01*
X292104Y697140D02*
Y694600D01*
X297184D01*
Y697140D01*
X299724D01*
Y702220D01*
X297184D01*
Y704760D01*
X292104D01*
Y702220D01*
X289564D01*
Y697140D01*
X292104D01*
X293120Y698156D02*
Y696632D01*
X296168D01*
Y698156D01*
X297692D01*
Y701204D01*
X296168D01*
Y702728D01*
X293120D01*
Y701204D01*
X291596D01*
Y698156D01*
X293120D01*
X292104Y709033D02*
Y706493D01*
X297184D01*
Y709033D01*
X299724D01*
Y714113D01*
X297184D01*
Y716653D01*
X292104D01*
Y714113D01*
X289564D01*
Y709033D01*
X292104D01*
X293120Y710049D02*
Y708525D01*
X296168D01*
Y710049D01*
X297692D01*
Y713097D01*
X296168D01*
Y714621D01*
X293120D01*
Y713097D01*
X291596D01*
Y710049D01*
X293120D01*
X292104Y685247D02*
Y682707D01*
X297184D01*
Y685247D01*
X299724D01*
Y690327D01*
X297184D01*
Y692867D01*
X292104D01*
Y690327D01*
X289564D01*
Y685247D01*
X292104D01*
X293120Y686263D02*
Y684739D01*
X296168D01*
Y686263D01*
X297692D01*
Y689311D01*
X296168D01*
Y690835D01*
X293120D01*
Y689311D01*
X291596D01*
Y686263D01*
X293120D01*
X179823Y981501D02*
Y978961D01*
X184903D01*
Y981501D01*
X187443D01*
Y986581D01*
X184903D01*
Y989121D01*
X179823D01*
Y986581D01*
X177283D01*
Y981501D01*
X179823D01*
X180839Y982517D02*
Y980993D01*
X183887D01*
Y982517D01*
X185411D01*
Y985565D01*
X183887D01*
Y987089D01*
X180839D01*
Y985565D01*
X179315D01*
Y982517D01*
X180839D01*
X179823Y957715D02*
Y955175D01*
X184903D01*
Y957715D01*
X187443D01*
Y962795D01*
X184903D01*
Y965335D01*
X179823D01*
Y962795D01*
X177283D01*
Y957715D01*
X179823D01*
X180839Y958731D02*
Y957207D01*
X183887D01*
Y958731D01*
X185411D01*
Y961779D01*
X183887D01*
Y963303D01*
X180839D01*
Y961779D01*
X179315D01*
Y958731D01*
X180839D01*
X179823Y969608D02*
Y967068D01*
X184903D01*
Y969608D01*
X187443D01*
Y974688D01*
X184903D01*
Y977228D01*
X179823D01*
Y974688D01*
X177283D01*
Y969608D01*
X179823D01*
X180839Y970624D02*
Y969100D01*
X183887D01*
Y970624D01*
X185411D01*
Y973672D01*
X183887D01*
Y975196D01*
X180839D01*
Y973672D01*
X179315D01*
Y970624D01*
X180839D01*
X190495Y993394D02*
Y990854D01*
X195575D01*
Y993394D01*
X198115D01*
Y998474D01*
X195575D01*
Y1001014D01*
X190495D01*
Y998474D01*
X187955D01*
Y993394D01*
X190495D01*
X191511Y994410D02*
Y992886D01*
X194559D01*
Y994410D01*
X196083D01*
Y997458D01*
X194559D01*
Y998982D01*
X191511D01*
Y997458D01*
X189987D01*
Y994410D01*
X191511D01*
X169159Y993394D02*
Y990854D01*
X174239D01*
Y993394D01*
X176779D01*
Y998474D01*
X174239D01*
Y1001014D01*
X169159D01*
Y998474D01*
X166619D01*
Y993394D01*
X169159D01*
X170175Y994410D02*
Y992886D01*
X173223D01*
Y994410D01*
X174747D01*
Y997458D01*
X173223D01*
Y998982D01*
X170175D01*
Y997458D01*
X168651D01*
Y994410D01*
X170175D01*
X179827Y993394D02*
Y990854D01*
X184907D01*
Y993394D01*
X187447D01*
Y998474D01*
X184907D01*
Y1001014D01*
X179827D01*
Y998474D01*
X177287D01*
Y993394D01*
X179827D01*
X180843Y994410D02*
Y992886D01*
X183891D01*
Y994410D01*
X185415D01*
Y997458D01*
X183891D01*
Y998982D01*
X180843D01*
Y997458D01*
X179319D01*
Y994410D01*
X180843D01*
X715010Y375666D02*
Y373126D01*
X720090D01*
Y375666D01*
X722630D01*
Y380746D01*
X720090D01*
Y383286D01*
X715010D01*
Y380746D01*
X712470D01*
Y375666D01*
X715010D01*
X716026Y376682D02*
Y375158D01*
X719074D01*
Y376682D01*
X720598D01*
Y379730D01*
X719074D01*
Y381254D01*
X716026D01*
Y379730D01*
X714502D01*
Y376682D01*
X716026D01*
X660130Y552111D02*
Y549571D01*
X665210D01*
Y552111D01*
X667750D01*
Y557191D01*
X665210D01*
Y559731D01*
X660130D01*
Y557191D01*
X657590D01*
Y552111D01*
X660130D01*
X661146Y553127D02*
Y551603D01*
X664194D01*
Y553127D01*
X665718D01*
Y556175D01*
X664194D01*
Y557699D01*
X661146D01*
Y556175D01*
X659622D01*
Y553127D01*
X661146D01*
X668528Y552196D02*
Y549656D01*
X673608D01*
Y552196D01*
X676148D01*
Y557276D01*
X673608D01*
Y559816D01*
X668528D01*
Y557276D01*
X665988D01*
Y552196D01*
X668528D01*
X669544Y553212D02*
Y551688D01*
X672592D01*
Y553212D01*
X674116D01*
Y556260D01*
X672592D01*
Y557784D01*
X669544D01*
Y556260D01*
X668020D01*
Y553212D01*
X669544D01*
X671770Y447416D02*
Y444876D01*
X676850D01*
Y447416D01*
X679390D01*
Y452496D01*
X676850D01*
Y455036D01*
X671770D01*
Y452496D01*
X669230D01*
Y447416D01*
X671770D01*
X672786Y448432D02*
Y446908D01*
X675834D01*
Y448432D01*
X677358D01*
Y451480D01*
X675834D01*
Y453004D01*
X672786D01*
Y451480D01*
X671262D01*
Y448432D01*
X672786D01*
X289833Y88800D02*
Y86260D01*
X294913D01*
Y88800D01*
X297453D01*
Y93880D01*
X294913D01*
Y96420D01*
X289833D01*
Y93880D01*
X287293D01*
Y88800D01*
X289833D01*
X290849Y89816D02*
Y88292D01*
X293897D01*
Y89816D01*
X295421D01*
Y92864D01*
X293897D01*
Y94388D01*
X290849D01*
Y92864D01*
X289325D01*
Y89816D01*
X290849D01*
X300218Y93737D02*
Y91197D01*
X305298D01*
Y93737D01*
X307838D01*
Y98817D01*
X305298D01*
Y101357D01*
X300218D01*
Y98817D01*
X297678D01*
Y93737D01*
X300218D01*
X301234Y94753D02*
Y93229D01*
X304282D01*
Y94753D01*
X305806D01*
Y97801D01*
X304282D01*
Y99325D01*
X301234D01*
Y97801D01*
X299710D01*
Y94753D01*
X301234D01*
X505957Y209843D02*
Y207303D01*
X511037D01*
Y209843D01*
X513577D01*
Y214923D01*
X511037D01*
Y217463D01*
X505957D01*
Y214923D01*
X503417D01*
Y209843D01*
X505957D01*
X506973Y210859D02*
Y209335D01*
X510021D01*
Y210859D01*
X511545D01*
Y213907D01*
X510021D01*
Y215431D01*
X506973D01*
Y213907D01*
X505449D01*
Y210859D01*
X506973D01*
X541186Y235280D02*
Y232740D01*
X546266D01*
Y235280D01*
X548806D01*
Y240360D01*
X546266D01*
Y242900D01*
X541186D01*
Y240360D01*
X538646D01*
Y235280D01*
X541186D01*
X542202Y236296D02*
Y234772D01*
X545250D01*
Y236296D01*
X546774D01*
Y239344D01*
X545250D01*
Y240868D01*
X542202D01*
Y239344D01*
X540678D01*
Y236296D01*
X542202D01*
X528978Y226998D02*
Y224458D01*
X534058D01*
Y226998D01*
X536598D01*
Y232078D01*
X534058D01*
Y234618D01*
X528978D01*
Y232078D01*
X526438D01*
Y226998D01*
X528978D01*
X529994Y228014D02*
Y226490D01*
X533042D01*
Y228014D01*
X534566D01*
Y231062D01*
X533042D01*
Y232586D01*
X529994D01*
Y231062D01*
X528470D01*
Y228014D01*
X529994D01*
X518330Y217211D02*
Y214671D01*
X523410D01*
Y217211D01*
X525950D01*
Y222291D01*
X523410D01*
Y224831D01*
X518330D01*
Y222291D01*
X515790D01*
Y217211D01*
X518330D01*
X519346Y218227D02*
Y216703D01*
X522394D01*
Y218227D01*
X523918D01*
Y221275D01*
X522394D01*
Y222799D01*
X519346D01*
Y221275D01*
X517822D01*
Y218227D01*
X519346D01*
X562313Y177336D02*
Y174796D01*
X567393D01*
Y177336D01*
X569933D01*
Y182416D01*
X567393D01*
Y184956D01*
X562313D01*
Y182416D01*
X559772D01*
Y177336D01*
X562313D01*
X563329Y178352D02*
Y176828D01*
X566376D01*
Y178352D01*
X567901D01*
Y181400D01*
X566376D01*
Y182924D01*
X563329D01*
Y181400D01*
X561805D01*
Y178352D01*
X563329D01*
X713232Y154940D02*
Y152400D01*
X718312D01*
Y154940D01*
X720852D01*
Y160020D01*
X718312D01*
Y162560D01*
X713232D01*
Y160020D01*
X710692D01*
Y154940D01*
X713232D01*
X714248Y155956D02*
Y154432D01*
X717296D01*
Y155956D01*
X718820D01*
Y159004D01*
X717296D01*
Y160528D01*
X714248D01*
Y159004D01*
X712724D01*
Y155956D01*
X714248D01*
X270002Y90932D02*
Y88392D01*
X275082D01*
Y90932D01*
X277622D01*
Y96012D01*
X275082D01*
Y98552D01*
X270002D01*
Y96012D01*
X267462D01*
Y90932D01*
X270002D01*
X271018Y91948D02*
Y90424D01*
X274066D01*
Y91948D01*
X275590D01*
Y94996D01*
X274066D01*
Y96520D01*
X271018D01*
Y94996D01*
X269494D01*
Y91948D01*
X271018D01*
X686147Y143075D02*
Y140535D01*
X691227D01*
Y143075D01*
X693767D01*
Y148155D01*
X691227D01*
Y150695D01*
X686147D01*
Y148155D01*
X683607D01*
Y143075D01*
X686147D01*
X687163Y144091D02*
Y142567D01*
X690211D01*
Y144091D01*
X691735D01*
Y147139D01*
X690211D01*
Y148663D01*
X687163D01*
Y147139D01*
X685639D01*
Y144091D01*
X687163D01*
X249248Y90678D02*
Y88138D01*
X254328D01*
Y90678D01*
X256868D01*
Y95758D01*
X254328D01*
Y98298D01*
X249248D01*
Y95758D01*
X246708D01*
Y90678D01*
X249248D01*
X250264Y91694D02*
Y90170D01*
X253312D01*
Y91694D01*
X254836D01*
Y94742D01*
X253312D01*
Y96266D01*
X250264D01*
Y94742D01*
X248740D01*
Y91694D01*
X250264D01*
X240508Y90678D02*
Y88138D01*
X245588D01*
Y90678D01*
X248128D01*
Y95758D01*
X245588D01*
Y98298D01*
X240508D01*
Y95758D01*
X237968D01*
Y90678D01*
X240508D01*
X241524Y91694D02*
Y90170D01*
X244572D01*
Y91694D01*
X246096D01*
Y94742D01*
X244572D01*
Y96266D01*
X241524D01*
Y94742D01*
X240000D01*
Y91694D01*
X241524D01*
X269240Y348932D02*
Y346393D01*
X274320D01*
Y348932D01*
X276860D01*
Y354012D01*
X274320D01*
Y356553D01*
X269240D01*
Y354012D01*
X266700D01*
Y348932D01*
X269240D01*
X270256Y349949D02*
Y348424D01*
X273304D01*
Y349949D01*
X274828D01*
Y352996D01*
X273304D01*
Y354520D01*
X270256D01*
Y352996D01*
X268732D01*
Y349949D01*
X270256D01*
X269240Y396558D02*
Y394017D01*
X274320D01*
Y396558D01*
X276860D01*
Y401637D01*
X274320D01*
Y404178D01*
X269240D01*
Y401637D01*
X266700D01*
Y396558D01*
X269240D01*
X270256Y397574D02*
Y396049D01*
X273304D01*
Y397574D01*
X274828D01*
Y400621D01*
X273304D01*
Y402146D01*
X270256D01*
Y400621D01*
X268732D01*
Y397574D01*
X270256D01*
X269240Y420370D02*
Y417830D01*
X274320D01*
Y420370D01*
X276860D01*
Y425450D01*
X274320D01*
Y427990D01*
X269240D01*
Y425450D01*
X266700D01*
Y420370D01*
X269240D01*
X270256Y421386D02*
Y419862D01*
X273304D01*
Y421386D01*
X274828D01*
Y424434D01*
X273304D01*
Y425958D01*
X270256D01*
Y424434D01*
X268732D01*
Y421386D01*
X270256D01*
X269240Y372745D02*
Y370205D01*
X274320D01*
Y372745D01*
X276860D01*
Y377825D01*
X274320D01*
Y380365D01*
X269240D01*
Y377825D01*
X266700D01*
Y372745D01*
X269240D01*
X270256Y373761D02*
Y372237D01*
X273304D01*
Y373761D01*
X274828D01*
Y376809D01*
X273304D01*
Y378333D01*
X270256D01*
Y376809D01*
X268732D01*
Y373761D01*
X270256D01*
X269240Y325120D02*
Y322580D01*
X274320D01*
Y325120D01*
X276860D01*
Y330200D01*
X274320D01*
Y332740D01*
X269240D01*
Y330200D01*
X266700D01*
Y325120D01*
X269240D01*
X270256Y326136D02*
Y324612D01*
X273304D01*
Y326136D01*
X274828D01*
Y329184D01*
X273304D01*
Y330708D01*
X270256D01*
Y329184D01*
X268732D01*
Y326136D01*
X270256D01*
X230823Y505460D02*
Y502920D01*
X235903D01*
Y505460D01*
X238442D01*
Y510540D01*
X235903D01*
Y513080D01*
X230823D01*
Y510540D01*
X228283D01*
Y505460D01*
X230823D01*
X231838Y506476D02*
Y504952D01*
X234886D01*
Y506476D01*
X236411D01*
Y509524D01*
X234886D01*
Y511048D01*
X231838D01*
Y509524D01*
X230315D01*
Y506476D01*
X231838D01*
X209867Y505460D02*
Y502920D01*
X214947D01*
Y505460D01*
X217488D01*
Y510540D01*
X214947D01*
Y513080D01*
X209867D01*
Y510540D01*
X207327D01*
Y505460D01*
X209867D01*
X210884Y506476D02*
Y504952D01*
X213932D01*
Y506476D01*
X215455D01*
Y509524D01*
X213932D01*
Y511048D01*
X210884D01*
Y509524D01*
X209359D01*
Y506476D01*
X210884D01*
X199390Y514985D02*
Y512445D01*
X204470D01*
Y514985D01*
X207010D01*
Y520065D01*
X204470D01*
Y522605D01*
X199390D01*
Y520065D01*
X196850D01*
Y514985D01*
X199390D01*
X200406Y516001D02*
Y514477D01*
X203454D01*
Y516001D01*
X204978D01*
Y519049D01*
X203454D01*
Y520573D01*
X200406D01*
Y519049D01*
X198882D01*
Y516001D01*
X200406D01*
X220345Y514985D02*
Y512445D01*
X225425D01*
Y514985D01*
X227965D01*
Y520065D01*
X225425D01*
Y522605D01*
X220345D01*
Y520065D01*
X217805D01*
Y514985D01*
X220345D01*
X221361Y516001D02*
Y514477D01*
X224409D01*
Y516001D01*
X225933D01*
Y519049D01*
X224409D01*
Y520573D01*
X221361D01*
Y519049D01*
X219837D01*
Y516001D01*
X221361D01*
X209867Y524510D02*
Y521970D01*
X214947D01*
Y524510D01*
X217488D01*
Y529590D01*
X214947D01*
Y532130D01*
X209867D01*
Y529590D01*
X207327D01*
Y524510D01*
X209867D01*
X210884Y525526D02*
Y524002D01*
X213932D01*
Y525526D01*
X215455D01*
Y528574D01*
X213932D01*
Y530098D01*
X210884D01*
Y528574D01*
X209359D01*
Y525526D01*
X210884D01*
X230823Y524510D02*
Y521970D01*
X235903D01*
Y524510D01*
X238442D01*
Y529590D01*
X235903D01*
Y532130D01*
X230823D01*
Y529590D01*
X228283D01*
Y524510D01*
X230823D01*
X231838Y525526D02*
Y524002D01*
X234886D01*
Y525526D01*
X236411D01*
Y528574D01*
X234886D01*
Y530098D01*
X231838D01*
Y528574D01*
X230315D01*
Y525526D01*
X231838D01*
X143828Y540850D02*
X148908Y545930D01*
X153988Y540850D01*
X148908Y535770D01*
X143828Y540850D01*
X101636D02*
X106716Y545930D01*
X111796Y540850D01*
X106716Y535770D01*
X101636Y540850D01*
X122732D02*
X127812Y545930D01*
X132892Y540850D01*
X127812Y535770D01*
X122732Y540850D01*
D16*
X121551Y935729D02*
G03*
X121551Y935729I-3048J0D01*
G01*
Y849329D02*
G03*
X121551Y849329I-3048J0D01*
G01*
Y803318D02*
G03*
X121551Y803318I-3048J0D01*
G01*
Y716918D02*
G03*
X121551Y716918I-3048J0D01*
G01*
D147*
X589145Y602777D02*
G03*
X589145Y602777I-5080J0D01*
G01*
Y902751D02*
G03*
X589145Y902751I-5080J0D01*
G01*
X289170Y602777D02*
G03*
X289170Y602777I-5080J0D01*
G01*
Y902751D02*
G03*
X289170Y902751I-5080J0D01*
G01*
X123583Y935729D02*
G03*
X123583Y935729I-5080J0D01*
G01*
Y849329D02*
G03*
X123583Y849329I-5080J0D01*
G01*
Y803318D02*
G03*
X123583Y803318I-5080J0D01*
G01*
Y716918D02*
G03*
X123583Y716918I-5080J0D01*
G01*
M02*
