G04*
G04 #@! TF.GenerationSoftware,Altium Limited,Altium Designer,23.4.1 (23)*
G04*
G04 Layer_Color=255*
%FSLAX44Y44*%
%MOMM*%
G71*
G04*
G04 #@! TF.SameCoordinates,A498DFDA-0769-4059-8707-A0DE4882B552*
G04*
G04*
G04 #@! TF.FilePolarity,Positive*
G04*
G01*
G75*
%ADD22R,1.4500X0.7000*%
%ADD23R,1.4501X1.0000*%
G04:AMPARAMS|DCode=24|XSize=1.016mm|YSize=2.921mm|CornerRadius=0.508mm|HoleSize=0mm|Usage=FLASHONLY|Rotation=180.000|XOffset=0mm|YOffset=0mm|HoleType=Round|Shape=RoundedRectangle|*
%AMROUNDEDRECTD24*
21,1,1.0160,1.9050,0,0,180.0*
21,1,0.0000,2.9210,0,0,180.0*
1,1,1.0160,0.0000,0.9525*
1,1,1.0160,0.0000,0.9525*
1,1,1.0160,0.0000,-0.9525*
1,1,1.0160,0.0000,-0.9525*
%
%ADD24ROUNDEDRECTD24*%
G04:AMPARAMS|DCode=25|XSize=3.6068mm|YSize=1.8034mm|CornerRadius=0.9017mm|HoleSize=0mm|Usage=FLASHONLY|Rotation=270.000|XOffset=0mm|YOffset=0mm|HoleType=Round|Shape=RoundedRectangle|*
%AMROUNDEDRECTD25*
21,1,3.6068,0.0000,0,0,270.0*
21,1,1.8034,1.8034,0,0,270.0*
1,1,1.8034,0.0000,-0.9017*
1,1,1.8034,0.0000,0.9017*
1,1,1.8034,0.0000,0.9017*
1,1,1.8034,0.0000,-0.9017*
%
%ADD25ROUNDEDRECTD25*%
%ADD26R,0.2000X0.7000*%
G04:AMPARAMS|DCode=27|XSize=0.254mm|YSize=1.1176mm|CornerRadius=0.127mm|HoleSize=0mm|Usage=FLASHONLY|Rotation=90.000|XOffset=0mm|YOffset=0mm|HoleType=Round|Shape=RoundedRectangle|*
%AMROUNDEDRECTD27*
21,1,0.2540,0.8636,0,0,90.0*
21,1,0.0000,1.1176,0,0,90.0*
1,1,0.2540,0.4318,0.0000*
1,1,0.2540,0.4318,0.0000*
1,1,0.2540,-0.4318,0.0000*
1,1,0.2540,-0.4318,0.0000*
%
%ADD27ROUNDEDRECTD27*%
%ADD28R,1.1176X0.2540*%
%ADD29R,2.1082X1.4224*%
%ADD30R,1.5250X0.6500*%
%ADD31R,2.7100X3.3500*%
G04:AMPARAMS|DCode=32|XSize=0.565mm|YSize=0.2mm|CornerRadius=0.05mm|HoleSize=0mm|Usage=FLASHONLY|Rotation=180.000|XOffset=0mm|YOffset=0mm|HoleType=Round|Shape=RoundedRectangle|*
%AMROUNDEDRECTD32*
21,1,0.5650,0.1000,0,0,180.0*
21,1,0.4650,0.2000,0,0,180.0*
1,1,0.1000,-0.2325,0.0500*
1,1,0.1000,0.2325,0.0500*
1,1,0.1000,0.2325,-0.0500*
1,1,0.1000,-0.2325,-0.0500*
%
%ADD32ROUNDEDRECTD32*%
%ADD33R,1.1500X0.6000*%
%ADD34R,1.1500X0.3000*%
%ADD35R,1.2850X1.4700*%
%ADD36R,1.8000X2.2300*%
%ADD37R,0.6000X1.1000*%
%ADD38R,0.4050X0.7600*%
%ADD39R,2.2350X1.7250*%
%ADD40R,0.4050X0.9900*%
G04:AMPARAMS|DCode=41|XSize=3.0226mm|YSize=1.27mm|CornerRadius=0.635mm|HoleSize=0mm|Usage=FLASHONLY|Rotation=0.000|XOffset=0mm|YOffset=0mm|HoleType=Round|Shape=RoundedRectangle|*
%AMROUNDEDRECTD41*
21,1,3.0226,0.0000,0,0,0.0*
21,1,1.7526,1.2700,0,0,0.0*
1,1,1.2700,0.8763,0.0000*
1,1,1.2700,-0.8763,0.0000*
1,1,1.2700,-0.8763,0.0000*
1,1,1.2700,0.8763,0.0000*
%
%ADD41ROUNDEDRECTD41*%
%ADD42R,2.5200X2.3100*%
%ADD43R,0.7000X1.4500*%
%ADD44R,2.4000X3.4000*%
G04:AMPARAMS|DCode=45|XSize=2.8194mm|YSize=1.016mm|CornerRadius=0.508mm|HoleSize=0mm|Usage=FLASHONLY|Rotation=270.000|XOffset=0mm|YOffset=0mm|HoleType=Round|Shape=RoundedRectangle|*
%AMROUNDEDRECTD45*
21,1,2.8194,0.0000,0,0,270.0*
21,1,1.8034,1.0160,0,0,270.0*
1,1,1.0160,0.0000,-0.9017*
1,1,1.0160,0.0000,0.9017*
1,1,1.0160,0.0000,0.9017*
1,1,1.0160,0.0000,-0.9017*
%
%ADD45ROUNDEDRECTD45*%
G04:AMPARAMS|DCode=46|XSize=0.6096mm|YSize=1.7018mm|CornerRadius=0.3048mm|HoleSize=0mm|Usage=FLASHONLY|Rotation=180.000|XOffset=0mm|YOffset=0mm|HoleType=Round|Shape=RoundedRectangle|*
%AMROUNDEDRECTD46*
21,1,0.6096,1.0922,0,0,180.0*
21,1,0.0000,1.7018,0,0,180.0*
1,1,0.6096,0.0000,0.5461*
1,1,0.6096,0.0000,0.5461*
1,1,0.6096,0.0000,-0.5461*
1,1,0.6096,0.0000,-0.5461*
%
%ADD46ROUNDEDRECTD46*%
%ADD47R,0.6000X1.8500*%
%ADD48R,0.6000X1.6500*%
%ADD49R,0.9500X0.8500*%
%ADD50R,3.3500X2.1500*%
%ADD51R,1.0000X2.1500*%
G04:AMPARAMS|DCode=99|XSize=0.565mm|YSize=0.4mm|CornerRadius=0.05mm|HoleSize=0mm|Usage=FLASHONLY|Rotation=180.000|XOffset=0mm|YOffset=0mm|HoleType=Round|Shape=RoundedRectangle|*
%AMROUNDEDRECTD99*
21,1,0.5650,0.3000,0,0,180.0*
21,1,0.4650,0.4000,0,0,180.0*
1,1,0.1000,-0.2325,0.1500*
1,1,0.1000,0.2325,0.1500*
1,1,0.1000,0.2325,-0.1500*
1,1,0.1000,-0.2325,-0.1500*
%
%ADD99ROUNDEDRECTD99*%
G04:AMPARAMS|DCode=100|XSize=1.016mm|YSize=1.016mm|CornerRadius=0.508mm|HoleSize=0mm|Usage=FLASHONLY|Rotation=270.000|XOffset=0mm|YOffset=0mm|HoleType=Round|Shape=RoundedRectangle|*
%AMROUNDEDRECTD100*
21,1,1.0160,0.0000,0,0,270.0*
21,1,0.0000,1.0160,0,0,270.0*
1,1,1.0160,0.0000,0.0000*
1,1,1.0160,0.0000,0.0000*
1,1,1.0160,0.0000,0.0000*
1,1,1.0160,0.0000,0.0000*
%
%ADD100ROUNDEDRECTD100*%
G04:AMPARAMS|DCode=101|XSize=1.016mm|YSize=1.016mm|CornerRadius=0.508mm|HoleSize=0mm|Usage=FLASHONLY|Rotation=0.000|XOffset=0mm|YOffset=0mm|HoleType=Round|Shape=RoundedRectangle|*
%AMROUNDEDRECTD101*
21,1,1.0160,0.0000,0,0,0.0*
21,1,0.0000,1.0160,0,0,0.0*
1,1,1.0160,0.0000,0.0000*
1,1,1.0160,0.0000,0.0000*
1,1,1.0160,0.0000,0.0000*
1,1,1.0160,0.0000,0.0000*
%
%ADD101ROUNDEDRECTD101*%
%ADD114C,2.7000*%
%ADD115C,1.5240*%
%ADD116C,0.6604*%
%ADD117C,2.2098*%
G04:AMPARAMS|DCode=118|XSize=1.8mm|YSize=1mm|CornerRadius=0.25mm|HoleSize=0mm|Usage=FLASHONLY|Rotation=0.000|XOffset=0mm|YOffset=0mm|HoleType=Round|Shape=RoundedRectangle|*
%AMROUNDEDRECTD118*
21,1,1.8000,0.5000,0,0,0.0*
21,1,1.3000,1.0000,0,0,0.0*
1,1,0.5000,0.6500,-0.2500*
1,1,0.5000,-0.6500,-0.2500*
1,1,0.5000,-0.6500,0.2500*
1,1,0.5000,0.6500,0.2500*
%
%ADD118ROUNDEDRECTD118*%
%ADD119O,2.1000X1.0000*%
%ADD120C,0.6500*%
%ADD121R,2.5500X2.5500*%
%ADD122C,2.5500*%
%ADD123C,1.5080*%
%ADD124C,1.6000*%
%ADD125C,1.5300*%
%ADD126C,1.4460*%
D22*
X86031Y429800D02*
D03*
Y410800D02*
D03*
X207585Y822963D02*
D03*
Y803963D02*
D03*
X758052Y617914D02*
D03*
Y636914D02*
D03*
X782441Y618141D02*
D03*
Y637141D02*
D03*
X780167Y563871D02*
D03*
Y582871D02*
D03*
X758644D02*
D03*
Y563871D02*
D03*
X169291Y803963D02*
D03*
Y822963D02*
D03*
X368046Y84632D02*
D03*
Y103632D02*
D03*
X211612Y606636D02*
D03*
Y625636D02*
D03*
X61983Y503207D02*
D03*
Y522207D02*
D03*
X129178Y410800D02*
D03*
Y429800D02*
D03*
X107605Y410800D02*
D03*
Y429800D02*
D03*
Y382861D02*
D03*
Y363861D02*
D03*
X86031Y382861D02*
D03*
Y363861D02*
D03*
X129178Y382861D02*
D03*
Y363861D02*
D03*
X211612Y544114D02*
D03*
Y563114D02*
D03*
D23*
X168130Y836580D02*
D03*
Y858579D02*
D03*
X208630Y836580D02*
D03*
Y858579D02*
D03*
D24*
X172631Y969962D02*
D03*
X192631D02*
D03*
X212631D02*
D03*
X232791D02*
D03*
X252857D02*
D03*
X272669D02*
D03*
D25*
X150631Y1016462D02*
D03*
X294767D02*
D03*
D26*
X661245Y534716D02*
D03*
Y503916D02*
D03*
X657245Y534716D02*
D03*
Y503916D02*
D03*
X653245Y534716D02*
D03*
Y503916D02*
D03*
X649245Y534716D02*
D03*
Y503916D02*
D03*
X645245Y534716D02*
D03*
Y503916D02*
D03*
X641245Y534716D02*
D03*
Y503916D02*
D03*
X637245Y534716D02*
D03*
Y503916D02*
D03*
X633245Y534716D02*
D03*
Y503916D02*
D03*
X629245Y534716D02*
D03*
Y503916D02*
D03*
X625245Y534716D02*
D03*
Y503916D02*
D03*
X621245Y534716D02*
D03*
Y503916D02*
D03*
X617245Y534716D02*
D03*
Y503916D02*
D03*
X613245Y534716D02*
D03*
Y503916D02*
D03*
X609245Y534716D02*
D03*
Y503916D02*
D03*
X605245Y534716D02*
D03*
Y503916D02*
D03*
X601245Y534716D02*
D03*
Y503916D02*
D03*
X597245Y534716D02*
D03*
Y503916D02*
D03*
X593245Y534716D02*
D03*
Y503916D02*
D03*
X589245Y534716D02*
D03*
Y503916D02*
D03*
X585245Y534716D02*
D03*
Y503916D02*
D03*
X581245Y534716D02*
D03*
Y503916D02*
D03*
X577245Y534716D02*
D03*
Y503916D02*
D03*
X573245Y534716D02*
D03*
Y503916D02*
D03*
X569245Y534716D02*
D03*
Y503916D02*
D03*
X565245Y534716D02*
D03*
Y503916D02*
D03*
X561245Y534716D02*
D03*
Y503916D02*
D03*
X557245Y534716D02*
D03*
Y503916D02*
D03*
X553245Y534716D02*
D03*
Y503916D02*
D03*
X549245Y534716D02*
D03*
Y503916D02*
D03*
X545245Y534716D02*
D03*
Y503916D02*
D03*
X541245Y534716D02*
D03*
Y503916D02*
D03*
X537245Y534716D02*
D03*
Y503916D02*
D03*
X533245Y534716D02*
D03*
Y503916D02*
D03*
X529245Y534716D02*
D03*
Y503916D02*
D03*
X525245Y534716D02*
D03*
Y503916D02*
D03*
X521245Y534716D02*
D03*
Y503916D02*
D03*
X517245Y534716D02*
D03*
Y503916D02*
D03*
X513245Y534716D02*
D03*
Y503916D02*
D03*
X509245Y534716D02*
D03*
Y503916D02*
D03*
X505245Y534716D02*
D03*
Y503916D02*
D03*
X501245Y534716D02*
D03*
Y503916D02*
D03*
X497245Y534716D02*
D03*
Y503916D02*
D03*
X493245Y534716D02*
D03*
Y503916D02*
D03*
X489245Y534716D02*
D03*
Y503916D02*
D03*
X485245Y534716D02*
D03*
Y503916D02*
D03*
X481245Y534716D02*
D03*
Y503916D02*
D03*
X477245Y534716D02*
D03*
Y503916D02*
D03*
X473245Y534716D02*
D03*
Y503916D02*
D03*
X469245Y534716D02*
D03*
Y503916D02*
D03*
X465245Y534716D02*
D03*
Y503916D02*
D03*
X661245Y195516D02*
D03*
Y164716D02*
D03*
X657245Y195516D02*
D03*
Y164716D02*
D03*
X653245Y195516D02*
D03*
Y164716D02*
D03*
X649245Y195516D02*
D03*
Y164716D02*
D03*
X645245Y195516D02*
D03*
Y164716D02*
D03*
X641245Y195516D02*
D03*
Y164716D02*
D03*
X637245Y195516D02*
D03*
Y164716D02*
D03*
X633245Y195516D02*
D03*
Y164716D02*
D03*
X629245Y195516D02*
D03*
Y164716D02*
D03*
X625245Y195516D02*
D03*
Y164716D02*
D03*
X621245Y195516D02*
D03*
Y164716D02*
D03*
X617245Y195516D02*
D03*
Y164716D02*
D03*
X613245Y195516D02*
D03*
Y164716D02*
D03*
X609245Y195516D02*
D03*
Y164716D02*
D03*
X605245Y195516D02*
D03*
Y164716D02*
D03*
X601245Y195516D02*
D03*
Y164716D02*
D03*
X597245Y195516D02*
D03*
Y164716D02*
D03*
X593245Y195516D02*
D03*
Y164716D02*
D03*
X589245Y195516D02*
D03*
Y164716D02*
D03*
X585245Y195516D02*
D03*
Y164716D02*
D03*
X581245Y195516D02*
D03*
Y164716D02*
D03*
X577245Y195516D02*
D03*
Y164716D02*
D03*
X573245Y195516D02*
D03*
Y164716D02*
D03*
X569245Y195516D02*
D03*
Y164716D02*
D03*
X565245Y195516D02*
D03*
Y164716D02*
D03*
X561245Y195516D02*
D03*
Y164716D02*
D03*
X557245Y195516D02*
D03*
Y164716D02*
D03*
X553245Y195516D02*
D03*
Y164716D02*
D03*
X549245Y195516D02*
D03*
Y164716D02*
D03*
X545245Y195516D02*
D03*
Y164716D02*
D03*
X541245Y195516D02*
D03*
Y164716D02*
D03*
X537245Y195516D02*
D03*
Y164716D02*
D03*
X533245Y195516D02*
D03*
Y164716D02*
D03*
X529245Y195516D02*
D03*
Y164716D02*
D03*
X525245Y195516D02*
D03*
Y164716D02*
D03*
X521245Y195516D02*
D03*
Y164716D02*
D03*
X517245Y195516D02*
D03*
Y164716D02*
D03*
X513245Y195516D02*
D03*
Y164716D02*
D03*
X509245Y195516D02*
D03*
Y164716D02*
D03*
X505245Y195516D02*
D03*
Y164716D02*
D03*
X501245Y195516D02*
D03*
Y164716D02*
D03*
X497245Y195516D02*
D03*
Y164716D02*
D03*
X493245Y195516D02*
D03*
Y164716D02*
D03*
X489245Y195516D02*
D03*
Y164716D02*
D03*
X485245Y195516D02*
D03*
Y164716D02*
D03*
X481245Y195516D02*
D03*
Y164716D02*
D03*
X477245Y195516D02*
D03*
Y164716D02*
D03*
X473245Y195516D02*
D03*
Y164716D02*
D03*
X469245Y195516D02*
D03*
Y164716D02*
D03*
X465245Y195516D02*
D03*
Y164716D02*
D03*
D27*
X432681Y848141D02*
D03*
D28*
Y843315D02*
D03*
Y838235D02*
D03*
Y833155D02*
D03*
Y828329D02*
D03*
Y823249D02*
D03*
Y818169D02*
D03*
Y813343D02*
D03*
Y808263D02*
D03*
Y803183D02*
D03*
Y798357D02*
D03*
Y793277D02*
D03*
Y788197D02*
D03*
Y783117D02*
D03*
Y778291D02*
D03*
Y773211D02*
D03*
Y768131D02*
D03*
Y763305D02*
D03*
Y758225D02*
D03*
Y753145D02*
D03*
Y748105D02*
D03*
Y743105D02*
D03*
Y738105D02*
D03*
Y733105D02*
D03*
Y728105D02*
D03*
Y723105D02*
D03*
Y718105D02*
D03*
Y713105D02*
D03*
Y708105D02*
D03*
Y703105D02*
D03*
X485850Y848141D02*
D03*
Y843315D02*
D03*
Y838235D02*
D03*
Y833155D02*
D03*
Y828329D02*
D03*
Y823249D02*
D03*
Y818169D02*
D03*
Y813343D02*
D03*
Y808263D02*
D03*
Y803183D02*
D03*
Y798357D02*
D03*
Y793277D02*
D03*
Y788197D02*
D03*
Y783117D02*
D03*
Y778291D02*
D03*
Y773211D02*
D03*
Y768131D02*
D03*
Y763305D02*
D03*
Y758225D02*
D03*
Y753145D02*
D03*
Y748105D02*
D03*
Y743105D02*
D03*
Y738105D02*
D03*
Y733105D02*
D03*
Y728105D02*
D03*
Y723105D02*
D03*
Y718105D02*
D03*
Y713105D02*
D03*
Y708105D02*
D03*
Y703105D02*
D03*
X432681Y698105D02*
D03*
X485850D02*
D03*
X432681Y693105D02*
D03*
X485850D02*
D03*
X432681Y688105D02*
D03*
X485850D02*
D03*
X432681Y683105D02*
D03*
X485850D02*
D03*
X432681Y678105D02*
D03*
X485850D02*
D03*
X432681Y673105D02*
D03*
X485850D02*
D03*
X432681Y668105D02*
D03*
X485850D02*
D03*
X432681Y663105D02*
D03*
X485850D02*
D03*
X432681Y658105D02*
D03*
X485850D02*
D03*
X432681Y653105D02*
D03*
X485850D02*
D03*
D29*
X459351Y630605D02*
D03*
Y870747D02*
D03*
D30*
X162140Y414291D02*
D03*
Y401591D02*
D03*
Y388891D02*
D03*
Y376191D02*
D03*
X215900D02*
D03*
Y388891D02*
D03*
Y401591D02*
D03*
Y414291D02*
D03*
D31*
X189020Y395241D02*
D03*
D32*
X141224Y752588D02*
D03*
Y757588D02*
D03*
Y767588D02*
D03*
Y772588D02*
D03*
X149574D02*
D03*
Y767588D02*
D03*
Y757588D02*
D03*
Y752588D02*
D03*
X266979Y202939D02*
D03*
Y207939D02*
D03*
Y217939D02*
D03*
Y222939D02*
D03*
X275329D02*
D03*
Y217939D02*
D03*
Y207939D02*
D03*
Y202939D02*
D03*
X266979Y256239D02*
D03*
Y261239D02*
D03*
Y271239D02*
D03*
Y276239D02*
D03*
X275329D02*
D03*
Y271239D02*
D03*
Y261239D02*
D03*
Y256239D02*
D03*
D33*
X124253Y924529D02*
D03*
Y860529D02*
D03*
Y916529D02*
D03*
Y868529D02*
D03*
Y792118D02*
D03*
Y728118D02*
D03*
Y784118D02*
D03*
Y736118D02*
D03*
D34*
Y890029D02*
D03*
Y895029D02*
D03*
Y885029D02*
D03*
Y880029D02*
D03*
Y875029D02*
D03*
Y900029D02*
D03*
Y905029D02*
D03*
Y910029D02*
D03*
Y757618D02*
D03*
Y762618D02*
D03*
Y752618D02*
D03*
Y747618D02*
D03*
Y742618D02*
D03*
Y767618D02*
D03*
Y772618D02*
D03*
Y777618D02*
D03*
D35*
X373048Y132334D02*
D03*
X392508D02*
D03*
D36*
X83268Y826405D02*
D03*
X112468D02*
D03*
X189568Y928603D02*
D03*
X160368D02*
D03*
D37*
X109251Y478779D02*
D03*
X90252D02*
D03*
X99752Y456780D02*
D03*
D38*
X83510Y525907D02*
D03*
X90110D02*
D03*
X96710D02*
D03*
X103310D02*
D03*
D39*
X93410Y515982D02*
D03*
D40*
X103310Y496057D02*
D03*
X96710D02*
D03*
X90110D02*
D03*
X83510D02*
D03*
D41*
X634500Y686000D02*
D03*
X633500Y665174D02*
D03*
D42*
X663687Y131565D02*
D03*
Y69565D02*
D03*
D43*
X123553Y519339D02*
D03*
X142553D02*
D03*
Y489559D02*
D03*
X123553D02*
D03*
X251647Y361365D02*
D03*
X232647D02*
D03*
X232507Y385687D02*
D03*
X251507D02*
D03*
X215052Y358137D02*
D03*
X196052D02*
D03*
X131064Y329946D02*
D03*
X112064D02*
D03*
X112830Y138430D02*
D03*
X131830D02*
D03*
X83743Y697055D02*
D03*
X64743D02*
D03*
X126630D02*
D03*
X107630D02*
D03*
X108797Y955721D02*
D03*
X127797D02*
D03*
X62884D02*
D03*
X81884D02*
D03*
X309548Y139510D02*
D03*
X328548D02*
D03*
X57660Y469780D02*
D03*
X76660D02*
D03*
X123553Y459780D02*
D03*
X142553D02*
D03*
X251732Y337042D02*
D03*
X232732D02*
D03*
X701242Y124514D02*
D03*
X720242D02*
D03*
X701242Y100332D02*
D03*
X720242D02*
D03*
X701242Y76150D02*
D03*
X720242D02*
D03*
X214630Y336550D02*
D03*
X195630D02*
D03*
X161230Y358111D02*
D03*
X180230D02*
D03*
X251408Y410010D02*
D03*
X232408D02*
D03*
X716863Y572871D02*
D03*
X735863D02*
D03*
X715900Y611785D02*
D03*
X734900D02*
D03*
X289154Y239589D02*
D03*
X270154D02*
D03*
D44*
X164727Y481032D02*
D03*
X246728D02*
D03*
D45*
X417592Y1012595D02*
D03*
X316042D02*
D03*
X724415D02*
D03*
X622865D02*
D03*
X511486D02*
D03*
X434882D02*
D03*
X605384D02*
D03*
X528780D02*
D03*
D46*
X398288Y981095D02*
D03*
X385588D02*
D03*
X373142D02*
D03*
X360542D02*
D03*
X348042D02*
D03*
X335542D02*
D03*
X705111D02*
D03*
X692411D02*
D03*
X679965D02*
D03*
X667365D02*
D03*
X654865D02*
D03*
X642365D02*
D03*
X491928D02*
D03*
X479482D02*
D03*
X466882D02*
D03*
X454382D02*
D03*
X585826D02*
D03*
X573380D02*
D03*
X560780D02*
D03*
X548280D02*
D03*
D47*
X172418Y75159D02*
D03*
X182418D02*
D03*
X192418D02*
D03*
X202418D02*
D03*
X212418D02*
D03*
X222418D02*
D03*
X232418D02*
D03*
X242418D02*
D03*
X252418D02*
D03*
X262418D02*
D03*
X272418D02*
D03*
X282418D02*
D03*
X292418D02*
D03*
X302418D02*
D03*
X312418D02*
D03*
D48*
X172418Y112659D02*
D03*
X182418D02*
D03*
X192418D02*
D03*
X202418D02*
D03*
X212418D02*
D03*
X222418D02*
D03*
X232418D02*
D03*
X242418D02*
D03*
X252418D02*
D03*
X262418D02*
D03*
X272418D02*
D03*
X282418D02*
D03*
X292418D02*
D03*
X302418D02*
D03*
X312418D02*
D03*
D49*
X689935Y186598D02*
D03*
Y173598D02*
D03*
D50*
X667318Y632168D02*
D03*
D51*
X690318Y573668D02*
D03*
X667318D02*
D03*
X644318D02*
D03*
D99*
X141224Y762588D02*
D03*
X149574D02*
D03*
X266979Y212939D02*
D03*
X275329D02*
D03*
X266979Y266239D02*
D03*
X275329D02*
D03*
D100*
X61468Y396725D02*
D03*
X733044Y377952D02*
D03*
X757682D02*
D03*
X61468Y356870D02*
D03*
X233620Y588901D02*
D03*
D101*
X233809Y552418D02*
D03*
D114*
X778245Y514716D02*
D03*
Y184716D02*
D03*
X298245Y514716D02*
D03*
Y184716D02*
D03*
D115*
X623995Y107667D02*
D03*
X598595D02*
D03*
Y82267D02*
D03*
X573195Y107667D02*
D03*
Y82267D02*
D03*
X547795Y107667D02*
D03*
Y82267D02*
D03*
X522395Y107667D02*
D03*
Y82267D02*
D03*
X395395D02*
D03*
Y107667D02*
D03*
X420795Y82267D02*
D03*
Y107667D02*
D03*
X446195Y82267D02*
D03*
Y107667D02*
D03*
X471595Y82267D02*
D03*
Y107667D02*
D03*
X496995Y82267D02*
D03*
Y107667D02*
D03*
X623995Y82267D02*
D03*
X709791Y945400D02*
D03*
X684391Y920000D02*
D03*
X735191Y793000D02*
D03*
X684391D02*
D03*
X735191Y894600D02*
D03*
X709791Y920000D02*
D03*
Y894600D02*
D03*
X684391Y767600D02*
D03*
X735191Y869200D02*
D03*
Y818400D02*
D03*
X684391Y945400D02*
D03*
Y742200D02*
D03*
Y869200D02*
D03*
X735191Y920000D02*
D03*
Y945400D02*
D03*
X709791Y818400D02*
D03*
Y869200D02*
D03*
X735191Y742200D02*
D03*
X684391Y894600D02*
D03*
Y818400D02*
D03*
X709791Y843800D02*
D03*
X684391D02*
D03*
X735191D02*
D03*
Y767600D02*
D03*
X709791Y742200D02*
D03*
Y767600D02*
D03*
Y793000D02*
D03*
X735191Y690000D02*
D03*
Y664600D02*
D03*
X709791Y690000D02*
D03*
Y664600D02*
D03*
X684391Y690000D02*
D03*
Y664600D02*
D03*
D116*
X478350Y640605D02*
D03*
Y860841D02*
D03*
D117*
X584064Y602777D02*
D03*
Y902751D02*
D03*
X284090Y602777D02*
D03*
Y902751D02*
D03*
D118*
X76703Y935729D02*
D03*
Y849329D02*
D03*
Y803318D02*
D03*
Y716918D02*
D03*
D119*
X118503Y935729D02*
D03*
Y849329D02*
D03*
Y803318D02*
D03*
Y716918D02*
D03*
D120*
X113503Y863629D02*
D03*
Y921429D02*
D03*
Y731218D02*
D03*
Y789018D02*
D03*
D121*
X179529Y589719D02*
D03*
D122*
Y639719D02*
D03*
X168730Y311989D02*
D03*
Y154489D02*
D03*
D123*
X79529Y669719D02*
D03*
Y559719D02*
D03*
D124*
X138230Y290389D02*
D03*
Y176089D02*
D03*
D125*
X92530Y165989D02*
D03*
X112830D02*
D03*
X92530Y300489D02*
D03*
X112830D02*
D03*
D126*
X201730Y176089D02*
D03*
X227130Y188789D02*
D03*
X201730Y201489D02*
D03*
X227130Y214189D02*
D03*
X201730Y226889D02*
D03*
X227130Y239589D02*
D03*
X201730Y252289D02*
D03*
X227130Y264989D02*
D03*
X201730Y277689D02*
D03*
X227130Y290389D02*
D03*
M02*
