G04*
G04 #@! TF.GenerationSoftware,Altium Limited,Altium Designer,23.4.1 (23)*
G04*
G04 Layer_Color=16711935*
%FSLAX44Y44*%
%MOMM*%
G71*
G04*
G04 #@! TF.SameCoordinates,A498DFDA-0769-4059-8707-A0DE4882B552*
G04*
G04*
G04 #@! TF.FilePolarity,Positive*
G04*
G01*
G75*
%ADD10C,0.1000*%
%ADD11C,0.1270*%
%ADD14C,0.2000*%
%ADD144C,0.0846*%
%ADD145R,0.6500X2.9000*%
D10*
X158099Y752588D02*
G03*
X158099Y752588I-500J0D01*
G01*
X283854Y202939D02*
G03*
X283854Y202939I-500J0D01*
G01*
Y256239D02*
G03*
X283854Y256239I-500J0D01*
G01*
X815742Y785851D02*
Y875251D01*
Y745301D02*
Y785851D01*
X124203Y847829D02*
Y937229D01*
X50703Y847829D02*
X124203D01*
X50703D02*
Y937229D01*
X124203D01*
X50703Y808529D02*
Y847829D01*
X124203Y715418D02*
Y804818D01*
X50703Y715418D02*
X124203D01*
X50703D02*
Y804818D01*
X124203D01*
X50703Y676118D02*
Y715418D01*
X79118Y811905D02*
X116618D01*
X79118D02*
Y840905D01*
X116618D01*
Y811905D02*
Y840905D01*
X156218Y943102D02*
X193718D01*
Y914102D02*
Y943102D01*
X156218Y914102D02*
X193718D01*
X156218D02*
Y943102D01*
X50380Y172387D02*
Y303637D01*
X694685Y171348D02*
Y188848D01*
X685185Y171348D02*
Y188848D01*
X694685D01*
X685185Y171348D02*
X694685D01*
X700818Y584418D02*
Y621418D01*
X633818Y584418D02*
Y621418D01*
X700818D01*
X633818Y584418D02*
X700818D01*
D11*
X159240Y829976D02*
Y865282D01*
X217406D01*
X159240Y829976D02*
X217406D01*
Y865282D01*
X150399Y750088D02*
Y775088D01*
X140399D02*
X150399D01*
X140399Y750088D02*
Y775088D01*
Y750088D02*
X150399D01*
X276154Y200439D02*
Y225439D01*
X266154D02*
X276154D01*
X266154Y200439D02*
Y225439D01*
Y200439D02*
X276154D01*
Y253739D02*
Y278739D01*
X266154D02*
X276154D01*
X266154Y253739D02*
Y278739D01*
Y253739D02*
X276154D01*
X100750Y561245D02*
X155150D01*
X100750D02*
Y641045D01*
X155150D01*
Y561245D02*
Y641045D01*
X372778Y138584D02*
X392778D01*
X372778Y126084D02*
X392778D01*
X372778D02*
Y138584D01*
X392778Y126084D02*
Y138584D01*
X77660Y494657D02*
X109160D01*
Y526157D01*
X77660D02*
X109160D01*
X77660Y494657D02*
Y526157D01*
X641187Y63065D02*
Y138065D01*
X686187Y63065D02*
Y138065D01*
X641187Y63065D02*
X686187D01*
X641187Y138065D02*
X686187D01*
X67029Y565219D02*
Y664219D01*
X179529Y560219D02*
Y570219D01*
X174529Y565219D02*
X184529D01*
X179529Y659219D02*
Y669219D01*
X140029Y565219D02*
Y664219D01*
X92029Y565219D02*
X140029D01*
X92029Y548219D02*
Y565219D01*
X67029Y548219D02*
X92029D01*
X67029D02*
Y565219D01*
Y664219D02*
Y681219D01*
X92029D01*
Y664219D02*
Y681219D01*
Y664219D02*
X140029D01*
D14*
X137703Y925029D02*
G03*
X137703Y925029I-1000J0D01*
G01*
Y792618D02*
G03*
X137703Y792618I-1000J0D01*
G01*
X84440Y485387D02*
G03*
X84440Y485387I-1000J0D01*
G01*
X664687Y151365D02*
G03*
X664687Y151365I-1000J0D01*
G01*
X322418Y74909D02*
Y104909D01*
X302418D02*
X322418D01*
X292418Y113909D02*
X302418Y104909D01*
X192418Y113909D02*
X292418D01*
X182418Y104909D02*
X192418Y113909D01*
X162418Y104909D02*
X182418D01*
X162418Y74909D02*
Y104909D01*
Y74909D02*
X322418D01*
D144*
X809941Y775301D02*
X814004D01*
Y773270D01*
X813327Y772592D01*
X811973D01*
X811295Y773270D01*
Y775301D01*
X813327Y768530D02*
X814004Y769207D01*
Y770561D01*
X813327Y771238D01*
X810618D01*
X809941Y770561D01*
Y769207D01*
X810618Y768530D01*
X814004Y767176D02*
X809941D01*
Y765144D01*
X810618Y764467D01*
X811295D01*
X811973Y765144D01*
Y767176D01*
Y765144D01*
X812650Y764467D01*
X813327D01*
X814004Y765144D01*
Y767176D01*
Y756342D02*
Y759050D01*
X809941D01*
Y756342D01*
X811973Y759050D02*
Y757696D01*
X814004Y754987D02*
X809941D01*
Y752956D01*
X810618Y752279D01*
X813327D01*
X814004Y752956D01*
Y754987D01*
X813327Y748216D02*
X814004Y748894D01*
Y750248D01*
X813327Y750925D01*
X810618D01*
X809941Y750248D01*
Y748894D01*
X810618Y748216D01*
X811973D01*
Y749571D01*
X814004Y744154D02*
Y746862D01*
X809941D01*
Y744154D01*
X811973Y746862D02*
Y745508D01*
X51703Y838529D02*
X55766D01*
Y836498D01*
X55088Y835821D01*
X53734D01*
X53057Y836498D01*
Y838529D01*
X55088Y831758D02*
X55766Y832435D01*
Y833790D01*
X55088Y834467D01*
X52380D01*
X51703Y833790D01*
Y832435D01*
X52380Y831758D01*
X55766Y830404D02*
X51703D01*
Y828373D01*
X52380Y827696D01*
X53057D01*
X53734Y828373D01*
Y830404D01*
Y828373D01*
X54411Y827696D01*
X55088D01*
X55766Y828373D01*
Y830404D01*
Y819570D02*
Y822279D01*
X51703D01*
Y819570D01*
X53734Y822279D02*
Y820924D01*
X55766Y818216D02*
X51703D01*
Y816185D01*
X52380Y815508D01*
X55088D01*
X55766Y816185D01*
Y818216D01*
X55088Y811445D02*
X55766Y812122D01*
Y813476D01*
X55088Y814153D01*
X52380D01*
X51703Y813476D01*
Y812122D01*
X52380Y811445D01*
X53734D01*
Y812799D01*
X55766Y807382D02*
Y810091D01*
X51703D01*
Y807382D01*
X53734Y810091D02*
Y808736D01*
X51703Y706118D02*
X55766D01*
Y704087D01*
X55088Y703410D01*
X53734D01*
X53057Y704087D01*
Y706118D01*
X55088Y699347D02*
X55766Y700024D01*
Y701378D01*
X55088Y702055D01*
X52380D01*
X51703Y701378D01*
Y700024D01*
X52380Y699347D01*
X55766Y697993D02*
X51703D01*
Y695961D01*
X52380Y695284D01*
X53057D01*
X53734Y695961D01*
Y697993D01*
Y695961D01*
X54411Y695284D01*
X55088D01*
X55766Y695961D01*
Y697993D01*
Y687159D02*
Y689867D01*
X51703D01*
Y687159D01*
X53734Y689867D02*
Y688513D01*
X55766Y685805D02*
X51703D01*
Y683773D01*
X52380Y683096D01*
X55088D01*
X55766Y683773D01*
Y685805D01*
X55088Y679033D02*
X55766Y679710D01*
Y681065D01*
X55088Y681742D01*
X52380D01*
X51703Y681065D01*
Y679710D01*
X52380Y679033D01*
X53734D01*
Y680388D01*
X55766Y674971D02*
Y677679D01*
X51703D01*
Y674971D01*
X53734Y677679D02*
Y676325D01*
X56630Y271889D02*
X52568D01*
Y273920D01*
X53245Y274597D01*
X54599D01*
X55276Y273920D01*
Y271889D01*
X53245Y278660D02*
X52568Y277983D01*
Y276629D01*
X53245Y275952D01*
X55953D01*
X56630Y276629D01*
Y277983D01*
X55953Y278660D01*
X52568Y280014D02*
X56630D01*
Y282046D01*
X55953Y282723D01*
X55276D01*
X54599Y282046D01*
Y280014D01*
Y282046D01*
X53922Y282723D01*
X53245D01*
X52568Y282046D01*
Y280014D01*
Y290848D02*
Y288140D01*
X56630D01*
Y290848D01*
X54599Y288140D02*
Y289494D01*
X52568Y292202D02*
X56630D01*
Y294234D01*
X55953Y294911D01*
X53245D01*
X52568Y294234D01*
Y292202D01*
X53245Y298974D02*
X52568Y298297D01*
Y296942D01*
X53245Y296265D01*
X55953D01*
X56630Y296942D01*
Y298297D01*
X55953Y298974D01*
X54599D01*
Y297619D01*
X52568Y303036D02*
Y300328D01*
X56630D01*
Y303036D01*
X54599Y300328D02*
Y301682D01*
D145*
X113354Y826405D02*
D03*
X159482Y928602D02*
D03*
M02*
