G04*
G04 #@! TF.GenerationSoftware,Altium Limited,Altium Designer,23.4.1 (23)*
G04*
G04 Layer_Color=255*
%FSLAX44Y44*%
%MOMM*%
G71*
G04*
G04 #@! TF.SameCoordinates,A498DFDA-0769-4059-8707-A0DE4882B552*
G04*
G04*
G04 #@! TF.FilePolarity,Positive*
G04*
G01*
G75*
%ADD114C,2.7000*%
%ADD116C,0.6604*%
%ADD117C,2.2098*%
G04:AMPARAMS|DCode=118|XSize=1.8mm|YSize=1mm|CornerRadius=0.25mm|HoleSize=0mm|Usage=FLASHONLY|Rotation=0.000|XOffset=0mm|YOffset=0mm|HoleType=Round|Shape=RoundedRectangle|*
%AMROUNDEDRECTD118*
21,1,1.8000,0.5000,0,0,0.0*
21,1,1.3000,1.0000,0,0,0.0*
1,1,0.5000,0.6500,-0.2500*
1,1,0.5000,-0.6500,-0.2500*
1,1,0.5000,-0.6500,0.2500*
1,1,0.5000,0.6500,0.2500*
%
%ADD118ROUNDEDRECTD118*%
%ADD119O,2.1000X1.0000*%
%ADD120C,0.6500*%
%ADD121R,2.5500X2.5500*%
%ADD122C,2.5500*%
%ADD123C,1.5080*%
%ADD124C,1.6000*%
%ADD125C,1.5300*%
%ADD126C,1.4460*%
%ADD132R,5.6000X2.3000*%
G04:AMPARAMS|DCode=133|XSize=1.5mm|YSize=1.016mm|CornerRadius=0.254mm|HoleSize=0mm|Usage=FLASHONLY|Rotation=270.000|XOffset=0mm|YOffset=0mm|HoleType=Round|Shape=RoundedRectangle|*
%AMROUNDEDRECTD133*
21,1,1.5000,0.5080,0,0,270.0*
21,1,0.9920,1.0160,0,0,270.0*
1,1,0.5080,-0.2540,-0.4960*
1,1,0.5080,-0.2540,0.4960*
1,1,0.5080,0.2540,0.4960*
1,1,0.5080,0.2540,-0.4960*
%
%ADD133ROUNDEDRECTD133*%
G04:AMPARAMS|DCode=134|XSize=1.5mm|YSize=1.016mm|CornerRadius=0.254mm|HoleSize=0mm|Usage=FLASHONLY|Rotation=180.000|XOffset=0mm|YOffset=0mm|HoleType=Round|Shape=RoundedRectangle|*
%AMROUNDEDRECTD134*
21,1,1.5000,0.5080,0,0,180.0*
21,1,0.9920,1.0160,0,0,180.0*
1,1,0.5080,-0.4960,0.2540*
1,1,0.5080,0.4960,0.2540*
1,1,0.5080,0.4960,-0.2540*
1,1,0.5080,-0.4960,-0.2540*
%
%ADD134ROUNDEDRECTD134*%
%ADD137C,1.7800*%
%ADD138C,1.8800*%
D114*
X778245Y514716D02*
D03*
Y184716D02*
D03*
X298245Y514716D02*
D03*
Y184716D02*
D03*
D116*
X478350Y640605D02*
D03*
Y860841D02*
D03*
D117*
X584064Y602777D02*
D03*
Y902751D02*
D03*
X284090Y602777D02*
D03*
Y902751D02*
D03*
D118*
X76703Y935729D02*
D03*
Y849329D02*
D03*
Y803318D02*
D03*
Y716918D02*
D03*
D119*
X118503Y935729D02*
D03*
Y849329D02*
D03*
Y803318D02*
D03*
Y716918D02*
D03*
D120*
X113503Y863629D02*
D03*
Y921429D02*
D03*
Y731218D02*
D03*
Y789018D02*
D03*
D121*
X179529Y589719D02*
D03*
D122*
Y639719D02*
D03*
X168730Y311989D02*
D03*
Y154489D02*
D03*
D123*
X79529Y669719D02*
D03*
Y559719D02*
D03*
D124*
X138230Y290389D02*
D03*
Y176089D02*
D03*
D125*
X92530Y165989D02*
D03*
X112830D02*
D03*
X92530Y300489D02*
D03*
X112830D02*
D03*
D126*
X201730Y176089D02*
D03*
X227130Y188789D02*
D03*
X201730Y201489D02*
D03*
X227130Y214189D02*
D03*
X201730Y226889D02*
D03*
X227130Y239589D02*
D03*
X201730Y252289D02*
D03*
X227130Y264989D02*
D03*
X201730Y277689D02*
D03*
X227130Y290389D02*
D03*
D132*
X127950Y564145D02*
D03*
Y638145D02*
D03*
D133*
X325208Y850276D02*
D03*
X305208D02*
D03*
X285208D02*
D03*
X345288D02*
D03*
X365354D02*
D03*
X385420D02*
D03*
X405232D02*
D03*
X346208Y650276D02*
D03*
X326208D02*
D03*
X305208D02*
D03*
X285208D02*
D03*
X367208D02*
D03*
X387208D02*
D03*
D134*
X227708Y820951D02*
D03*
Y800951D02*
D03*
Y780951D02*
D03*
Y760951D02*
D03*
Y740918D02*
D03*
Y720852D02*
D03*
X457708Y820951D02*
D03*
Y800951D02*
D03*
Y780951D02*
D03*
Y760951D02*
D03*
Y740918D02*
D03*
Y720852D02*
D03*
D137*
X623995Y107667D02*
D03*
X598595D02*
D03*
Y82267D02*
D03*
X573195Y107667D02*
D03*
Y82267D02*
D03*
X547795Y107667D02*
D03*
Y82267D02*
D03*
X522395Y107667D02*
D03*
Y82267D02*
D03*
X395395D02*
D03*
Y107667D02*
D03*
X420795Y82267D02*
D03*
Y107667D02*
D03*
X446195Y82267D02*
D03*
Y107667D02*
D03*
X471595Y82267D02*
D03*
Y107667D02*
D03*
X496995Y82267D02*
D03*
Y107667D02*
D03*
X623995Y82267D02*
D03*
D138*
X709791Y945400D02*
D03*
X684391Y920000D02*
D03*
X735191Y793000D02*
D03*
X684391D02*
D03*
X735191Y894600D02*
D03*
X709791Y920000D02*
D03*
Y894600D02*
D03*
X684391Y767600D02*
D03*
X735191Y869200D02*
D03*
Y818400D02*
D03*
X684391Y945400D02*
D03*
Y742200D02*
D03*
Y869200D02*
D03*
X735191Y920000D02*
D03*
Y945400D02*
D03*
X709791Y818400D02*
D03*
Y869200D02*
D03*
X735191Y742200D02*
D03*
X684391Y894600D02*
D03*
Y818400D02*
D03*
X709791Y843800D02*
D03*
X684391D02*
D03*
X735191D02*
D03*
Y767600D02*
D03*
X709791Y742200D02*
D03*
Y767600D02*
D03*
Y793000D02*
D03*
X735191Y690000D02*
D03*
Y664600D02*
D03*
X709791Y690000D02*
D03*
Y664600D02*
D03*
X684391Y690000D02*
D03*
Y664600D02*
D03*
M02*
