G04*
G04 #@! TF.GenerationSoftware,Altium Limited,Altium Designer,23.4.1 (23)*
G04*
G04 Layer_Color=128*
%FSLAX44Y44*%
%MOMM*%
G71*
G04*
G04 #@! TF.SameCoordinates,A498DFDA-0769-4059-8707-A0DE4882B552*
G04*
G04*
G04 #@! TF.FilePolarity,Positive*
G04*
G01*
G75*
%ADD11C,0.1270*%
D11*
X764745Y514716D02*
X791745D01*
X778245Y501216D02*
Y528216D01*
X764745Y184716D02*
X791745D01*
X778245Y171216D02*
Y198216D01*
X284745Y514716D02*
X311745D01*
X298245Y501216D02*
Y528216D01*
X284745Y184716D02*
X311745D01*
X298245Y171216D02*
Y198216D01*
X618895Y107667D02*
X629095D01*
X623995Y102567D02*
Y112767D01*
X593495Y107667D02*
X603695D01*
X598595Y102567D02*
Y112767D01*
X593495Y82267D02*
X603695D01*
X598595Y77167D02*
Y87367D01*
X568095Y107667D02*
X578295D01*
X573195Y102567D02*
Y112767D01*
X568095Y82267D02*
X578295D01*
X573195Y77167D02*
Y87367D01*
X542695Y107667D02*
X552895D01*
X547795Y102567D02*
Y112767D01*
X542695Y82267D02*
X552895D01*
X547795Y77167D02*
Y87367D01*
X517295Y107667D02*
X527495D01*
X522395Y102567D02*
Y112767D01*
X517295Y82267D02*
X527495D01*
X522395Y77167D02*
Y87367D01*
X390295Y82267D02*
X400495D01*
X395395Y77167D02*
Y87367D01*
X390295Y107667D02*
X400495D01*
X395395Y102567D02*
Y112767D01*
X415695Y82267D02*
X425895D01*
X420795Y77167D02*
Y87367D01*
X415695Y107667D02*
X425895D01*
X420795Y102567D02*
Y112767D01*
X441095Y82267D02*
X451295D01*
X446195Y77167D02*
Y87367D01*
X441095Y107667D02*
X451295D01*
X446195Y102567D02*
Y112767D01*
X466495Y82267D02*
X476695D01*
X471595Y77167D02*
Y87367D01*
X466495Y107667D02*
X476695D01*
X471595Y102567D02*
Y112767D01*
X491895Y82267D02*
X502095D01*
X496995Y77167D02*
Y87367D01*
X491895Y107667D02*
X502095D01*
X496995Y102567D02*
Y112767D01*
X618895Y82267D02*
X629095D01*
X623995Y77167D02*
Y87367D01*
X704691Y945400D02*
X714892D01*
X709791Y940300D02*
Y950500D01*
X679292Y920000D02*
X689492D01*
X684391Y914900D02*
Y925100D01*
X730091Y793000D02*
X740292D01*
X735191Y787900D02*
Y798100D01*
X679292Y793000D02*
X689492D01*
X684391Y787900D02*
Y798100D01*
X730091Y894600D02*
X740292D01*
X735191Y889500D02*
Y899700D01*
X704691Y920000D02*
X714892D01*
X709791Y914900D02*
Y925100D01*
X704691Y894600D02*
X714892D01*
X709791Y889500D02*
Y899700D01*
X679292Y767600D02*
X689492D01*
X684391Y762500D02*
Y772700D01*
X730091Y869200D02*
X740292D01*
X735191Y864100D02*
Y874300D01*
X730091Y818400D02*
X740292D01*
X735191Y813300D02*
Y823500D01*
X679292Y945400D02*
X689492D01*
X684391Y940300D02*
Y950500D01*
X679292Y742200D02*
X689492D01*
X684391Y737100D02*
Y747300D01*
X679292Y869200D02*
X689492D01*
X684391Y864100D02*
Y874300D01*
X730091Y920000D02*
X740292D01*
X735191Y914900D02*
Y925100D01*
X730091Y945400D02*
X740292D01*
X735191Y940300D02*
Y950500D01*
X704691Y818400D02*
X714892D01*
X709791Y813300D02*
Y823500D01*
X704691Y869200D02*
X714892D01*
X709791Y864100D02*
Y874300D01*
X730091Y742200D02*
X740292D01*
X735191Y737100D02*
Y747300D01*
X679292Y894600D02*
X689492D01*
X684391Y889500D02*
Y899700D01*
X679292Y818400D02*
X689492D01*
X684391Y813300D02*
Y823500D01*
X704691Y843800D02*
X714892D01*
X709791Y838700D02*
Y848900D01*
X679292Y843800D02*
X689492D01*
X684391Y838700D02*
Y848900D01*
X730091Y843800D02*
X740292D01*
X735191Y838700D02*
Y848900D01*
X730091Y767600D02*
X740292D01*
X735191Y762500D02*
Y772700D01*
X704691Y742200D02*
X714892D01*
X709791Y737100D02*
Y747300D01*
X704691Y767600D02*
X714892D01*
X709791Y762500D02*
Y772700D01*
X704691Y793000D02*
X714892D01*
X709791Y787900D02*
Y798100D01*
X475048Y640605D02*
X481652D01*
X478350Y637303D02*
Y643907D01*
X475048Y860841D02*
X481652D01*
X478350Y857539D02*
Y864143D01*
X575047Y602777D02*
X593082D01*
X584064Y593760D02*
Y611794D01*
X575047Y902751D02*
X593082D01*
X584064Y893734D02*
Y911768D01*
X275074Y602777D02*
X293107D01*
X284090Y593760D02*
Y611794D01*
X275074Y902751D02*
X293107D01*
X284090Y893734D02*
Y911768D01*
X73703Y935729D02*
X79703D01*
X76703Y932729D02*
Y938729D01*
X73703Y849329D02*
X79703D01*
X76703Y846329D02*
Y852329D01*
X115503Y935729D02*
X121503D01*
X118503Y932729D02*
Y938729D01*
X115503Y849329D02*
X121503D01*
X118503Y846329D02*
Y852329D01*
X110253Y863629D02*
X116753D01*
X113503Y860379D02*
Y866879D01*
X110253Y921429D02*
X116753D01*
X113503Y918179D02*
Y924679D01*
X73703Y803318D02*
X79703D01*
X76703Y800318D02*
Y806318D01*
X73703Y716918D02*
X79703D01*
X76703Y713918D02*
Y719918D01*
X115503Y803318D02*
X121503D01*
X118503Y800318D02*
Y806318D01*
X115503Y716918D02*
X121503D01*
X118503Y713918D02*
Y719918D01*
X110253Y731218D02*
X116753D01*
X113503Y727968D02*
Y734468D01*
X110253Y789018D02*
X116753D01*
X113503Y785768D02*
Y792268D01*
X730091Y690000D02*
X740292D01*
X735191Y684900D02*
Y695100D01*
X730091Y664600D02*
X740292D01*
X735191Y659500D02*
Y669700D01*
X704691Y690000D02*
X714892D01*
X709791Y684900D02*
Y695100D01*
X704691Y664600D02*
X714892D01*
X709791Y659500D02*
Y669700D01*
X679292Y690000D02*
X689492D01*
X684391Y684900D02*
Y695100D01*
X679292Y664600D02*
X689492D01*
X684391Y659500D02*
Y669700D01*
X171029Y589719D02*
X188029D01*
X179529Y581219D02*
Y598219D01*
X171029Y639719D02*
X188029D01*
X179529Y631219D02*
Y648219D01*
X74529Y669719D02*
X84529D01*
X79529Y664719D02*
Y674719D01*
X74529Y559719D02*
X84529D01*
X79529Y554719D02*
Y564719D01*
X122230Y290389D02*
X154230D01*
X138230Y274389D02*
Y306389D01*
X122230Y176089D02*
X154230D01*
X138230Y160089D02*
Y192089D01*
X160230Y311989D02*
X177230D01*
X168730Y303489D02*
Y320489D01*
X160230Y154489D02*
X177230D01*
X168730Y145989D02*
Y162989D01*
X87430Y165989D02*
X97630D01*
X92530Y160889D02*
Y171089D01*
X107730Y165989D02*
X117930D01*
X112830Y160889D02*
Y171089D01*
X87430Y300489D02*
X97630D01*
X92530Y295389D02*
Y305589D01*
X107730Y300489D02*
X117930D01*
X112830Y295389D02*
Y305589D01*
X197280Y176089D02*
X206180D01*
X201730Y171639D02*
Y180539D01*
X222680Y188789D02*
X231580D01*
X227130Y184339D02*
Y193239D01*
X197280Y201489D02*
X206180D01*
X201730Y197039D02*
Y205939D01*
X222680Y214189D02*
X231580D01*
X227130Y209739D02*
Y218639D01*
X197280Y226889D02*
X206180D01*
X201730Y222439D02*
Y231339D01*
X222680Y239589D02*
X231580D01*
X227130Y235139D02*
Y244039D01*
X197280Y252289D02*
X206180D01*
X201730Y247839D02*
Y256739D01*
X222680Y264989D02*
X231580D01*
X227130Y260539D02*
Y269439D01*
X197280Y277689D02*
X206180D01*
X201730Y273239D02*
Y282139D01*
X222680Y290389D02*
X231580D01*
X227130Y285939D02*
Y294839D01*
X516700Y249500D02*
X519800D01*
X518250Y247950D02*
Y251050D01*
X509950Y259750D02*
X513050D01*
X511500Y258200D02*
Y261300D01*
X760200Y90510D02*
X791200D01*
X775700Y75010D02*
Y106010D01*
X74200Y90107D02*
X105200D01*
X89700Y74608D02*
Y105608D01*
X760200Y1010510D02*
X791200D01*
X775700Y995010D02*
Y1026010D01*
X74200Y1010510D02*
X105200D01*
X89700Y995010D02*
Y1026010D01*
X135950Y807500D02*
X139050D01*
X137500Y805950D02*
Y809050D01*
X99003Y806234D02*
X102103D01*
X100553Y804684D02*
Y807784D01*
X145950Y867500D02*
X149050D01*
X147500Y865950D02*
Y869050D01*
X181584Y814832D02*
X184684D01*
X183134Y813282D02*
Y816382D01*
X363804Y690000D02*
X366904D01*
X365354Y688450D02*
Y691550D01*
X494108Y429260D02*
X497208D01*
X495658Y427710D02*
Y430810D01*
X485368Y429260D02*
X488468D01*
X486918Y427710D02*
Y430810D01*
X388340Y763016D02*
X391440D01*
X389890Y761466D02*
Y764566D01*
X398186Y769934D02*
X401286D01*
X399736Y768384D02*
Y771484D01*
X408152Y816356D02*
X411252D01*
X409702Y814806D02*
Y817906D01*
X504164Y964184D02*
X507264D01*
X505714Y962634D02*
Y965734D01*
X445998Y695452D02*
X449098D01*
X447548Y693902D02*
Y697002D01*
X242290Y517525D02*
X245390D01*
X243840Y515975D02*
Y519075D01*
X363555Y259484D02*
X366655D01*
X365105Y257934D02*
Y261033D01*
X307579Y212932D02*
X310679D01*
X309129Y211382D02*
Y214482D01*
X722604Y555498D02*
X725704D01*
X724154Y553948D02*
Y557048D01*
X713460Y541274D02*
X716560D01*
X715010Y539724D02*
Y542824D01*
X705332Y555752D02*
X708432D01*
X706882Y554202D02*
Y557302D01*
X400024Y836422D02*
X403124D01*
X401574Y834872D02*
Y837972D01*
X408354Y832095D02*
X411454D01*
X409904Y830545D02*
Y833645D01*
X463524Y240284D02*
X466624D01*
X465074Y238734D02*
Y241834D01*
X570630Y215444D02*
X573730D01*
X572180Y213894D02*
Y216994D01*
X589508Y211836D02*
X592608D01*
X591058Y210286D02*
Y213386D01*
X541040Y204646D02*
X544140D01*
X542590Y203096D02*
Y206196D01*
X190238Y94234D02*
X193338D01*
X191788Y92684D02*
Y95784D01*
X181498Y94234D02*
X184598D01*
X183048Y92684D02*
Y95784D01*
X510364Y462280D02*
X513464D01*
X511914Y460730D02*
Y463830D01*
X501624Y462280D02*
X504724D01*
X503174Y460730D02*
Y463830D01*
X220238Y92710D02*
X223338D01*
X221788Y91160D02*
Y94260D01*
X211498Y92710D02*
X214598D01*
X213048Y91160D02*
Y94260D01*
X527134Y429006D02*
X530234D01*
X528684Y427456D02*
Y430556D01*
X518394Y429006D02*
X521494D01*
X519944Y427456D02*
Y430556D01*
X622314Y178348D02*
X625414D01*
X623864Y176798D02*
Y179898D01*
X299694Y235458D02*
X302794D01*
X301244Y233908D02*
Y237008D01*
X468591Y699528D02*
X471691D01*
X470141Y697979D02*
Y701078D01*
X184378Y434594D02*
X187478D01*
X185928Y433044D02*
Y436144D01*
X168376Y434340D02*
X171476D01*
X169926Y432790D02*
Y435890D01*
X176504Y422148D02*
X179604D01*
X178054Y420598D02*
Y423698D01*
X192506Y422402D02*
X195606D01*
X194056Y420852D02*
Y423952D01*
X440664Y166624D02*
X443764D01*
X442214Y165074D02*
Y168174D01*
X482281Y154366D02*
X485381D01*
X483831Y152816D02*
Y155915D01*
X424916Y199390D02*
X428016D01*
X426466Y197840D02*
Y200940D01*
X531088Y180594D02*
X534188D01*
X532638Y179044D02*
Y182144D01*
X580985Y180094D02*
X584085D01*
X582535Y178544D02*
Y181644D01*
X591021Y179984D02*
X594121D01*
X592571Y178434D02*
Y181534D01*
X695141Y142982D02*
X698241D01*
X696691Y141432D02*
Y144532D01*
X688867Y137267D02*
X691967D01*
X690417Y135717D02*
Y138817D01*
X687806Y200406D02*
X690906D01*
X689356Y198856D02*
Y201956D01*
X548106Y179832D02*
X551206D01*
X549656Y178282D02*
Y181382D01*
X603224Y211074D02*
X606324D01*
X604774Y209524D02*
Y212624D01*
X723450Y642500D02*
X726550D01*
X725000Y640950D02*
Y644050D01*
X800700Y600500D02*
X803800D01*
X802250Y598950D02*
Y602050D01*
X733272Y591058D02*
X736372D01*
X734822Y589508D02*
Y592608D01*
X508990Y824484D02*
X512090D01*
X510540Y822934D02*
Y826034D01*
X466572Y848360D02*
X469672D01*
X468122Y846810D02*
Y849910D01*
X446252Y833882D02*
X449352D01*
X447802Y832332D02*
Y835432D01*
X406374Y702056D02*
X409474D01*
X407924Y700506D02*
Y703606D01*
X413994Y720598D02*
X417094D01*
X415544Y719048D02*
Y722148D01*
X387324Y707136D02*
X390424D01*
X388874Y705586D02*
Y708686D01*
X636244Y955294D02*
X639344D01*
X637794Y953744D02*
Y956844D01*
X264280Y857250D02*
X267380D01*
X265830Y855700D02*
Y858800D01*
X498322Y863092D02*
X501422D01*
X499872Y861542D02*
Y864642D01*
X416534Y932688D02*
X419634D01*
X418084Y931138D02*
Y934238D01*
X584428Y966978D02*
X587528D01*
X585978Y965428D02*
Y968528D01*
X696442Y997458D02*
X699542D01*
X697992Y995908D02*
Y999008D01*
X323824Y866902D02*
X326924D01*
X325374Y865352D02*
Y868452D01*
X302996Y828294D02*
X306096D01*
X304546Y826744D02*
Y829844D01*
X284025Y827639D02*
X287124D01*
X285574Y826089D02*
Y829189D01*
X429832Y981095D02*
X432932D01*
X431382Y979545D02*
Y982645D01*
X523730Y981095D02*
X526830D01*
X525280Y979545D02*
Y982645D01*
X218160Y837438D02*
X221260D01*
X219710Y835888D02*
Y838988D01*
X496036Y783082D02*
X499136D01*
X497586Y781532D02*
Y784632D01*
X333984Y960120D02*
X337084D01*
X335534Y958570D02*
Y961670D01*
X525076Y799168D02*
X528176D01*
X526626Y797618D02*
Y800718D01*
X518896Y792988D02*
X521996D01*
X520446Y791438D02*
Y794538D01*
X135345Y916529D02*
X138445D01*
X136895Y914979D02*
Y918079D01*
X136118Y735076D02*
X139218D01*
X137668Y733526D02*
Y736626D01*
X404088Y926084D02*
X407188D01*
X405638Y924534D02*
Y927634D01*
X276326Y881888D02*
X279426D01*
X277876Y880338D02*
Y883438D01*
X259562Y885190D02*
X262662D01*
X261112Y883640D02*
Y886740D01*
X363194Y864362D02*
X366294D01*
X364744Y862812D02*
Y865912D01*
X342620Y828548D02*
X345720D01*
X344170Y826998D02*
Y830098D01*
X425424Y911098D02*
X428524D01*
X426974Y909548D02*
Y912648D01*
X415264Y917194D02*
X418364D01*
X416814Y915644D02*
Y918744D01*
X235940Y928624D02*
X239040D01*
X237490Y927074D02*
Y930174D01*
X234670Y911098D02*
X237770D01*
X236220Y909548D02*
Y912648D01*
X468350Y709930D02*
X471450D01*
X469900Y708380D02*
Y711480D01*
X293090Y675894D02*
X296190D01*
X294640Y674344D02*
Y677444D01*
X303758Y675894D02*
X306858D01*
X305308Y674344D02*
Y677444D01*
X282422Y675894D02*
X285522D01*
X283972Y674344D02*
Y677444D01*
X293094Y699680D02*
X296194D01*
X294644Y698130D02*
Y701230D01*
X293094Y711573D02*
X296194D01*
X294644Y710023D02*
Y713123D01*
X293094Y687787D02*
X296194D01*
X294644Y686237D02*
Y689337D01*
X180813Y984041D02*
X183913D01*
X182363Y982491D02*
Y985591D01*
X180813Y960255D02*
X183913D01*
X182363Y958705D02*
Y961805D01*
X180813Y972148D02*
X183913D01*
X182363Y970598D02*
Y973698D01*
X191485Y995934D02*
X194585D01*
X193035Y994384D02*
Y997484D01*
X170149Y995934D02*
X173249D01*
X171699Y994384D02*
Y997484D01*
X180817Y995934D02*
X183917D01*
X182367Y994384D02*
Y997484D01*
X716000Y378206D02*
X719100D01*
X717550Y376656D02*
Y379756D01*
X661120Y554651D02*
X664220D01*
X662670Y553101D02*
Y556201D01*
X669518Y554736D02*
X672618D01*
X671068Y553186D02*
Y556286D01*
X672760Y449956D02*
X675860D01*
X674310Y448406D02*
Y451506D01*
X290823Y91340D02*
X293923D01*
X292373Y89790D02*
Y92890D01*
X301208Y96277D02*
X304308D01*
X302758Y94727D02*
Y97827D01*
X506947Y212383D02*
X510047D01*
X508497Y210833D02*
Y213933D01*
X542176Y237820D02*
X545276D01*
X543726Y236270D02*
Y239370D01*
X529968Y229538D02*
X533068D01*
X531518Y227988D02*
Y231088D01*
X519320Y219751D02*
X522420D01*
X520870Y218201D02*
Y221301D01*
X563302Y179876D02*
X566403D01*
X564852Y178326D02*
Y181426D01*
X714222Y157480D02*
X717322D01*
X715772Y155930D02*
Y159030D01*
X270992Y93472D02*
X274092D01*
X272542Y91922D02*
Y95022D01*
X687137Y145615D02*
X690237D01*
X688687Y144065D02*
Y147165D01*
X250238Y93218D02*
X253338D01*
X251788Y91668D02*
Y94768D01*
X241498Y93218D02*
X244598D01*
X243048Y91668D02*
Y94768D01*
X270230Y351473D02*
X273330D01*
X271780Y349922D02*
Y353022D01*
X270230Y399098D02*
X273330D01*
X271780Y397547D02*
Y400648D01*
X270230Y422910D02*
X273330D01*
X271780Y421360D02*
Y424460D01*
X270230Y375285D02*
X273330D01*
X271780Y373735D02*
Y376835D01*
X270230Y327660D02*
X273330D01*
X271780Y326110D02*
Y329210D01*
X231812Y508000D02*
X234912D01*
X233363Y506450D02*
Y509550D01*
X210858Y508000D02*
X213958D01*
X212407Y506450D02*
Y509550D01*
X200380Y517525D02*
X203480D01*
X201930Y515975D02*
Y519075D01*
X221335Y517525D02*
X224435D01*
X222885Y515975D02*
Y519075D01*
X210858Y527050D02*
X213958D01*
X212407Y525500D02*
Y528600D01*
X231812Y527050D02*
X234912D01*
X233363Y525500D02*
Y528600D01*
X145352Y540850D02*
X152464D01*
X148908Y537295D02*
Y544407D01*
X103160Y540850D02*
X110272D01*
X106716Y537295D02*
Y544407D01*
X124256Y540850D02*
X131368D01*
X127812Y537295D02*
Y544407D01*
M02*
