G04*
G04 #@! TF.GenerationSoftware,Altium Limited,Altium Designer,23.4.1 (23)*
G04*
G04 Layer_Color=8421504*
%FSLAX44Y44*%
%MOMM*%
G71*
G04*
G04 #@! TF.SameCoordinates,A498DFDA-0769-4059-8707-A0DE4882B552*
G04*
G04*
G04 #@! TF.FilePolarity,Positive*
G04*
G01*
G75*
%ADD22R,1.4500X0.7000*%
%ADD23R,1.4501X1.0000*%
G04:AMPARAMS|DCode=24|XSize=1.016mm|YSize=2.921mm|CornerRadius=0.508mm|HoleSize=0mm|Usage=FLASHONLY|Rotation=180.000|XOffset=0mm|YOffset=0mm|HoleType=Round|Shape=RoundedRectangle|*
%AMROUNDEDRECTD24*
21,1,1.0160,1.9050,0,0,180.0*
21,1,0.0000,2.9210,0,0,180.0*
1,1,1.0160,0.0000,0.9525*
1,1,1.0160,0.0000,0.9525*
1,1,1.0160,0.0000,-0.9525*
1,1,1.0160,0.0000,-0.9525*
%
%ADD24ROUNDEDRECTD24*%
G04:AMPARAMS|DCode=25|XSize=3.6068mm|YSize=1.8034mm|CornerRadius=0.9017mm|HoleSize=0mm|Usage=FLASHONLY|Rotation=270.000|XOffset=0mm|YOffset=0mm|HoleType=Round|Shape=RoundedRectangle|*
%AMROUNDEDRECTD25*
21,1,3.6068,0.0000,0,0,270.0*
21,1,1.8034,1.8034,0,0,270.0*
1,1,1.8034,0.0000,-0.9017*
1,1,1.8034,0.0000,0.9017*
1,1,1.8034,0.0000,0.9017*
1,1,1.8034,0.0000,-0.9017*
%
%ADD25ROUNDEDRECTD25*%
%ADD26R,0.2000X0.7000*%
G04:AMPARAMS|DCode=27|XSize=0.254mm|YSize=1.1176mm|CornerRadius=0.127mm|HoleSize=0mm|Usage=FLASHONLY|Rotation=90.000|XOffset=0mm|YOffset=0mm|HoleType=Round|Shape=RoundedRectangle|*
%AMROUNDEDRECTD27*
21,1,0.2540,0.8636,0,0,90.0*
21,1,0.0000,1.1176,0,0,90.0*
1,1,0.2540,0.4318,0.0000*
1,1,0.2540,0.4318,0.0000*
1,1,0.2540,-0.4318,0.0000*
1,1,0.2540,-0.4318,0.0000*
%
%ADD27ROUNDEDRECTD27*%
%ADD28R,1.1176X0.2540*%
%ADD29R,2.1082X1.4224*%
%ADD30R,1.5250X0.6500*%
%ADD31R,2.7100X3.3500*%
G04:AMPARAMS|DCode=32|XSize=0.565mm|YSize=0.2mm|CornerRadius=0.05mm|HoleSize=0mm|Usage=FLASHONLY|Rotation=180.000|XOffset=0mm|YOffset=0mm|HoleType=Round|Shape=RoundedRectangle|*
%AMROUNDEDRECTD32*
21,1,0.5650,0.1000,0,0,180.0*
21,1,0.4650,0.2000,0,0,180.0*
1,1,0.1000,-0.2325,0.0500*
1,1,0.1000,0.2325,0.0500*
1,1,0.1000,0.2325,-0.0500*
1,1,0.1000,-0.2325,-0.0500*
%
%ADD32ROUNDEDRECTD32*%
%ADD33R,1.1500X0.6000*%
%ADD34R,1.1500X0.3000*%
%ADD35R,1.2850X1.4700*%
%ADD36R,1.8000X2.2300*%
%ADD37R,0.6000X1.1000*%
%ADD38R,0.4050X0.7600*%
%ADD39R,2.2350X1.7250*%
%ADD40R,0.4050X0.9900*%
G04:AMPARAMS|DCode=41|XSize=3.0226mm|YSize=1.27mm|CornerRadius=0.635mm|HoleSize=0mm|Usage=FLASHONLY|Rotation=0.000|XOffset=0mm|YOffset=0mm|HoleType=Round|Shape=RoundedRectangle|*
%AMROUNDEDRECTD41*
21,1,3.0226,0.0000,0,0,0.0*
21,1,1.7526,1.2700,0,0,0.0*
1,1,1.2700,0.8763,0.0000*
1,1,1.2700,-0.8763,0.0000*
1,1,1.2700,-0.8763,0.0000*
1,1,1.2700,0.8763,0.0000*
%
%ADD41ROUNDEDRECTD41*%
%ADD42R,2.5200X2.3100*%
%ADD43R,0.7000X1.4500*%
%ADD44R,2.4000X3.4000*%
G04:AMPARAMS|DCode=45|XSize=2.8194mm|YSize=1.016mm|CornerRadius=0.508mm|HoleSize=0mm|Usage=FLASHONLY|Rotation=270.000|XOffset=0mm|YOffset=0mm|HoleType=Round|Shape=RoundedRectangle|*
%AMROUNDEDRECTD45*
21,1,2.8194,0.0000,0,0,270.0*
21,1,1.8034,1.0160,0,0,270.0*
1,1,1.0160,0.0000,-0.9017*
1,1,1.0160,0.0000,0.9017*
1,1,1.0160,0.0000,0.9017*
1,1,1.0160,0.0000,-0.9017*
%
%ADD45ROUNDEDRECTD45*%
G04:AMPARAMS|DCode=46|XSize=0.6096mm|YSize=1.7018mm|CornerRadius=0.3048mm|HoleSize=0mm|Usage=FLASHONLY|Rotation=180.000|XOffset=0mm|YOffset=0mm|HoleType=Round|Shape=RoundedRectangle|*
%AMROUNDEDRECTD46*
21,1,0.6096,1.0922,0,0,180.0*
21,1,0.0000,1.7018,0,0,180.0*
1,1,0.6096,0.0000,0.5461*
1,1,0.6096,0.0000,0.5461*
1,1,0.6096,0.0000,-0.5461*
1,1,0.6096,0.0000,-0.5461*
%
%ADD46ROUNDEDRECTD46*%
%ADD47R,0.6000X1.8500*%
%ADD48R,0.6000X1.6500*%
%ADD49R,0.9500X0.8500*%
%ADD50R,3.3500X2.1500*%
%ADD51R,1.0000X2.1500*%
G36*
X151979Y764378D02*
X151999D01*
X152029Y764368D01*
X152049D01*
X152079Y764358D01*
X152099Y764348D01*
X152129Y764338D01*
X152149Y764318D01*
X152169Y764308D01*
X152189Y764288D01*
X152209Y764278D01*
X152229Y764258D01*
X152249Y764238D01*
X152269Y764218D01*
X152289Y764198D01*
X152299Y764178D01*
X152319Y764158D01*
X152329Y764138D01*
X152349Y764118D01*
X152359Y764088D01*
X152369Y764068D01*
X152379Y764038D01*
Y764018D01*
X152389Y763988D01*
Y763968D01*
X152399Y763938D01*
Y763918D01*
Y763888D01*
Y761288D01*
Y761258D01*
Y761238D01*
X152389Y761208D01*
Y761188D01*
X152379Y761158D01*
Y761138D01*
X152369Y761108D01*
X152359Y761088D01*
X152349Y761058D01*
X152329Y761038D01*
X152319Y761018D01*
X152299Y760998D01*
X152289Y760978D01*
X152269Y760958D01*
X152249Y760938D01*
X152229Y760918D01*
X152209Y760898D01*
X152189Y760888D01*
X152169Y760868D01*
X152149Y760858D01*
X152129Y760838D01*
X152099Y760828D01*
X152079Y760818D01*
X152049Y760808D01*
X152029D01*
X151999Y760798D01*
X151979D01*
X151949Y760788D01*
X147179D01*
X147149Y760798D01*
X147129D01*
X147099Y760808D01*
X147079D01*
X147049Y760818D01*
X147029Y760828D01*
X147009Y760838D01*
X146989Y760848D01*
X146969Y760868D01*
X146949Y760878D01*
X146929Y760898D01*
X146909Y760908D01*
X146889Y760928D01*
X146869Y760948D01*
X146859Y760968D01*
X146839Y760988D01*
X146829Y761008D01*
X146809Y761028D01*
X146799Y761048D01*
X146789Y761068D01*
X146779Y761088D01*
X146769Y761118D01*
Y761138D01*
X146759Y761168D01*
Y761188D01*
X146749Y761218D01*
Y761238D01*
Y761258D01*
Y763888D01*
Y763918D01*
Y763938D01*
X146759Y763968D01*
Y763988D01*
X146769Y764018D01*
Y764038D01*
X146779Y764068D01*
X146789Y764088D01*
X146799Y764118D01*
X146819Y764138D01*
X146829Y764158D01*
X146849Y764178D01*
X146859Y764198D01*
X146879Y764218D01*
X146899Y764238D01*
X146919Y764258D01*
X146939Y764278D01*
X146959Y764288D01*
X146979Y764308D01*
X146999Y764318D01*
X147019Y764338D01*
X147049Y764348D01*
X147069Y764358D01*
X147099Y764368D01*
X147119D01*
X147149Y764378D01*
X147169D01*
X147199Y764388D01*
X151949D01*
X151979Y764378D01*
D02*
G37*
G36*
X143629D02*
X143649D01*
X143679Y764368D01*
X143699D01*
X143729Y764358D01*
X143749Y764348D01*
X143779Y764338D01*
X143799Y764318D01*
X143819Y764308D01*
X143839Y764288D01*
X143859Y764278D01*
X143879Y764258D01*
X143899Y764238D01*
X143919Y764218D01*
X143939Y764198D01*
X143949Y764178D01*
X143969Y764158D01*
X143979Y764138D01*
X143999Y764118D01*
X144009Y764088D01*
X144019Y764068D01*
X144029Y764038D01*
Y764018D01*
X144039Y763988D01*
Y763968D01*
X144049Y763938D01*
Y763918D01*
Y763888D01*
Y761288D01*
Y761258D01*
Y761238D01*
X144039Y761208D01*
Y761188D01*
X144029Y761158D01*
Y761138D01*
X144019Y761108D01*
X144009Y761088D01*
X143999Y761058D01*
X143979Y761038D01*
X143969Y761018D01*
X143949Y760998D01*
X143939Y760978D01*
X143919Y760958D01*
X143899Y760938D01*
X143879Y760918D01*
X143859Y760898D01*
X143839Y760888D01*
X143819Y760868D01*
X143799Y760858D01*
X143779Y760838D01*
X143749Y760828D01*
X143729Y760818D01*
X143699Y760808D01*
X143679D01*
X143649Y760798D01*
X143629D01*
X143599Y760788D01*
X138829D01*
X138799Y760798D01*
X138779D01*
X138749Y760808D01*
X138729D01*
X138699Y760818D01*
X138679Y760828D01*
X138659Y760838D01*
X138639Y760848D01*
X138619Y760868D01*
X138599Y760878D01*
X138579Y760898D01*
X138559Y760908D01*
X138539Y760928D01*
X138519Y760948D01*
X138509Y760968D01*
X138489Y760988D01*
X138479Y761008D01*
X138459Y761028D01*
X138449Y761048D01*
X138439Y761068D01*
X138429Y761088D01*
X138419Y761118D01*
Y761138D01*
X138409Y761168D01*
Y761188D01*
X138399Y761218D01*
Y761238D01*
Y761258D01*
Y763888D01*
Y763918D01*
Y763938D01*
X138409Y763968D01*
Y763988D01*
X138419Y764018D01*
Y764038D01*
X138429Y764068D01*
X138439Y764088D01*
X138449Y764118D01*
X138469Y764138D01*
X138479Y764158D01*
X138499Y764178D01*
X138509Y764198D01*
X138529Y764218D01*
X138549Y764238D01*
X138569Y764258D01*
X138589Y764278D01*
X138609Y764288D01*
X138629Y764308D01*
X138649Y764318D01*
X138669Y764338D01*
X138699Y764348D01*
X138719Y764358D01*
X138749Y764368D01*
X138769D01*
X138799Y764378D01*
X138819D01*
X138849Y764388D01*
X143599D01*
X143629Y764378D01*
D02*
G37*
G36*
X277734Y268029D02*
X277754D01*
X277784Y268019D01*
X277804D01*
X277834Y268009D01*
X277854Y267999D01*
X277884Y267989D01*
X277904Y267969D01*
X277924Y267959D01*
X277944Y267939D01*
X277964Y267929D01*
X277984Y267909D01*
X278004Y267889D01*
X278024Y267869D01*
X278044Y267849D01*
X278054Y267829D01*
X278074Y267809D01*
X278084Y267789D01*
X278104Y267769D01*
X278114Y267739D01*
X278124Y267719D01*
X278134Y267689D01*
Y267669D01*
X278144Y267639D01*
Y267619D01*
X278154Y267589D01*
Y267569D01*
Y267539D01*
Y264939D01*
Y264909D01*
Y264889D01*
X278144Y264859D01*
Y264839D01*
X278134Y264809D01*
Y264789D01*
X278124Y264759D01*
X278114Y264739D01*
X278104Y264709D01*
X278084Y264689D01*
X278074Y264669D01*
X278054Y264649D01*
X278044Y264629D01*
X278024Y264609D01*
X278004Y264589D01*
X277984Y264569D01*
X277964Y264549D01*
X277944Y264539D01*
X277924Y264519D01*
X277904Y264509D01*
X277884Y264489D01*
X277854Y264479D01*
X277834Y264469D01*
X277804Y264459D01*
X277784D01*
X277754Y264449D01*
X277734D01*
X277704Y264439D01*
X272934D01*
X272904Y264449D01*
X272884D01*
X272854Y264459D01*
X272834D01*
X272804Y264469D01*
X272784Y264479D01*
X272764Y264489D01*
X272744Y264499D01*
X272724Y264519D01*
X272704Y264529D01*
X272684Y264549D01*
X272664Y264559D01*
X272644Y264579D01*
X272624Y264599D01*
X272614Y264619D01*
X272594Y264639D01*
X272584Y264659D01*
X272564Y264679D01*
X272554Y264699D01*
X272544Y264719D01*
X272534Y264739D01*
X272524Y264769D01*
Y264789D01*
X272514Y264819D01*
Y264839D01*
X272504Y264869D01*
Y264889D01*
Y264909D01*
Y267539D01*
Y267569D01*
Y267589D01*
X272514Y267619D01*
Y267639D01*
X272524Y267669D01*
Y267689D01*
X272534Y267719D01*
X272544Y267739D01*
X272554Y267769D01*
X272574Y267789D01*
X272584Y267809D01*
X272604Y267829D01*
X272614Y267849D01*
X272634Y267869D01*
X272654Y267889D01*
X272674Y267909D01*
X272694Y267929D01*
X272714Y267939D01*
X272734Y267959D01*
X272754Y267969D01*
X272774Y267989D01*
X272804Y267999D01*
X272824Y268009D01*
X272854Y268019D01*
X272874D01*
X272904Y268029D01*
X272924D01*
X272954Y268039D01*
X277704D01*
X277734Y268029D01*
D02*
G37*
G36*
X269384D02*
X269404D01*
X269434Y268019D01*
X269454D01*
X269484Y268009D01*
X269504Y267999D01*
X269534Y267989D01*
X269554Y267969D01*
X269574Y267959D01*
X269594Y267939D01*
X269614Y267929D01*
X269634Y267909D01*
X269654Y267889D01*
X269674Y267869D01*
X269694Y267849D01*
X269704Y267829D01*
X269724Y267809D01*
X269734Y267789D01*
X269754Y267769D01*
X269764Y267739D01*
X269774Y267719D01*
X269784Y267689D01*
Y267669D01*
X269794Y267639D01*
Y267619D01*
X269804Y267589D01*
Y267569D01*
Y267539D01*
Y264939D01*
Y264909D01*
Y264889D01*
X269794Y264859D01*
Y264839D01*
X269784Y264809D01*
Y264789D01*
X269774Y264759D01*
X269764Y264739D01*
X269754Y264709D01*
X269734Y264689D01*
X269724Y264669D01*
X269704Y264649D01*
X269694Y264629D01*
X269674Y264609D01*
X269654Y264589D01*
X269634Y264569D01*
X269614Y264549D01*
X269594Y264539D01*
X269574Y264519D01*
X269554Y264509D01*
X269534Y264489D01*
X269504Y264479D01*
X269484Y264469D01*
X269454Y264459D01*
X269434D01*
X269404Y264449D01*
X269384D01*
X269354Y264439D01*
X264584D01*
X264554Y264449D01*
X264534D01*
X264504Y264459D01*
X264484D01*
X264454Y264469D01*
X264434Y264479D01*
X264414Y264489D01*
X264394Y264499D01*
X264374Y264519D01*
X264354Y264529D01*
X264334Y264549D01*
X264314Y264559D01*
X264294Y264579D01*
X264274Y264599D01*
X264264Y264619D01*
X264244Y264639D01*
X264234Y264659D01*
X264214Y264679D01*
X264204Y264699D01*
X264194Y264719D01*
X264184Y264739D01*
X264174Y264769D01*
Y264789D01*
X264164Y264819D01*
Y264839D01*
X264154Y264869D01*
Y264889D01*
Y264909D01*
Y267539D01*
Y267569D01*
Y267589D01*
X264164Y267619D01*
Y267639D01*
X264174Y267669D01*
Y267689D01*
X264184Y267719D01*
X264194Y267739D01*
X264204Y267769D01*
X264224Y267789D01*
X264234Y267809D01*
X264254Y267829D01*
X264264Y267849D01*
X264284Y267869D01*
X264304Y267889D01*
X264324Y267909D01*
X264344Y267929D01*
X264364Y267939D01*
X264384Y267959D01*
X264404Y267969D01*
X264424Y267989D01*
X264454Y267999D01*
X264474Y268009D01*
X264504Y268019D01*
X264524D01*
X264554Y268029D01*
X264574D01*
X264604Y268039D01*
X269354D01*
X269384Y268029D01*
D02*
G37*
G36*
X277734Y214729D02*
X277754D01*
X277784Y214719D01*
X277804D01*
X277834Y214709D01*
X277854Y214699D01*
X277884Y214689D01*
X277904Y214669D01*
X277924Y214659D01*
X277944Y214639D01*
X277964Y214629D01*
X277984Y214609D01*
X278004Y214589D01*
X278024Y214569D01*
X278044Y214549D01*
X278054Y214529D01*
X278074Y214509D01*
X278084Y214489D01*
X278104Y214469D01*
X278114Y214439D01*
X278124Y214419D01*
X278134Y214389D01*
Y214369D01*
X278144Y214339D01*
Y214319D01*
X278154Y214289D01*
Y214269D01*
Y214239D01*
Y211639D01*
Y211609D01*
Y211589D01*
X278144Y211559D01*
Y211539D01*
X278134Y211509D01*
Y211489D01*
X278124Y211459D01*
X278114Y211439D01*
X278104Y211409D01*
X278084Y211389D01*
X278074Y211369D01*
X278054Y211349D01*
X278044Y211329D01*
X278024Y211309D01*
X278004Y211289D01*
X277984Y211269D01*
X277964Y211249D01*
X277944Y211239D01*
X277924Y211219D01*
X277904Y211209D01*
X277884Y211189D01*
X277854Y211179D01*
X277834Y211169D01*
X277804Y211159D01*
X277784D01*
X277754Y211149D01*
X277734D01*
X277704Y211139D01*
X272934D01*
X272904Y211149D01*
X272884D01*
X272854Y211159D01*
X272834D01*
X272804Y211169D01*
X272784Y211179D01*
X272764Y211189D01*
X272744Y211199D01*
X272724Y211219D01*
X272704Y211229D01*
X272684Y211249D01*
X272664Y211259D01*
X272644Y211279D01*
X272624Y211299D01*
X272614Y211319D01*
X272594Y211339D01*
X272584Y211359D01*
X272564Y211379D01*
X272554Y211399D01*
X272544Y211419D01*
X272534Y211439D01*
X272524Y211469D01*
Y211489D01*
X272514Y211519D01*
Y211539D01*
X272504Y211569D01*
Y211589D01*
Y211609D01*
Y214239D01*
Y214269D01*
Y214289D01*
X272514Y214319D01*
Y214339D01*
X272524Y214369D01*
Y214389D01*
X272534Y214419D01*
X272544Y214439D01*
X272554Y214469D01*
X272574Y214489D01*
X272584Y214509D01*
X272604Y214529D01*
X272614Y214549D01*
X272634Y214569D01*
X272654Y214589D01*
X272674Y214609D01*
X272694Y214629D01*
X272714Y214639D01*
X272734Y214659D01*
X272754Y214669D01*
X272774Y214689D01*
X272804Y214699D01*
X272824Y214709D01*
X272854Y214719D01*
X272874D01*
X272904Y214729D01*
X272924D01*
X272954Y214739D01*
X277704D01*
X277734Y214729D01*
D02*
G37*
G36*
X269384D02*
X269404D01*
X269434Y214719D01*
X269454D01*
X269484Y214709D01*
X269504Y214699D01*
X269534Y214689D01*
X269554Y214669D01*
X269574Y214659D01*
X269594Y214639D01*
X269614Y214629D01*
X269634Y214609D01*
X269654Y214589D01*
X269674Y214569D01*
X269694Y214549D01*
X269704Y214529D01*
X269724Y214509D01*
X269734Y214489D01*
X269754Y214469D01*
X269764Y214439D01*
X269774Y214419D01*
X269784Y214389D01*
Y214369D01*
X269794Y214339D01*
Y214319D01*
X269804Y214289D01*
Y214269D01*
Y214239D01*
Y211639D01*
Y211609D01*
Y211589D01*
X269794Y211559D01*
Y211539D01*
X269784Y211509D01*
Y211489D01*
X269774Y211459D01*
X269764Y211439D01*
X269754Y211409D01*
X269734Y211389D01*
X269724Y211369D01*
X269704Y211349D01*
X269694Y211329D01*
X269674Y211309D01*
X269654Y211289D01*
X269634Y211269D01*
X269614Y211249D01*
X269594Y211239D01*
X269574Y211219D01*
X269554Y211209D01*
X269534Y211189D01*
X269504Y211179D01*
X269484Y211169D01*
X269454Y211159D01*
X269434D01*
X269404Y211149D01*
X269384D01*
X269354Y211139D01*
X264584D01*
X264554Y211149D01*
X264534D01*
X264504Y211159D01*
X264484D01*
X264454Y211169D01*
X264434Y211179D01*
X264414Y211189D01*
X264394Y211199D01*
X264374Y211219D01*
X264354Y211229D01*
X264334Y211249D01*
X264314Y211259D01*
X264294Y211279D01*
X264274Y211299D01*
X264264Y211319D01*
X264244Y211339D01*
X264234Y211359D01*
X264214Y211379D01*
X264204Y211399D01*
X264194Y211419D01*
X264184Y211439D01*
X264174Y211469D01*
Y211489D01*
X264164Y211519D01*
Y211539D01*
X264154Y211569D01*
Y211589D01*
Y211609D01*
Y214239D01*
Y214269D01*
Y214289D01*
X264164Y214319D01*
Y214339D01*
X264174Y214369D01*
Y214389D01*
X264184Y214419D01*
X264194Y214439D01*
X264204Y214469D01*
X264224Y214489D01*
X264234Y214509D01*
X264254Y214529D01*
X264264Y214549D01*
X264284Y214569D01*
X264304Y214589D01*
X264324Y214609D01*
X264344Y214629D01*
X264364Y214639D01*
X264384Y214659D01*
X264404Y214669D01*
X264424Y214689D01*
X264454Y214699D01*
X264474Y214709D01*
X264504Y214719D01*
X264524D01*
X264554Y214729D01*
X264574D01*
X264604Y214739D01*
X269354D01*
X269384Y214729D01*
D02*
G37*
D22*
X86031Y429800D02*
D03*
Y410800D02*
D03*
X207585Y822963D02*
D03*
Y803963D02*
D03*
X758052Y617914D02*
D03*
Y636914D02*
D03*
X782441Y618141D02*
D03*
Y637141D02*
D03*
X780167Y563871D02*
D03*
Y582871D02*
D03*
X758644D02*
D03*
Y563871D02*
D03*
X169291Y803963D02*
D03*
Y822963D02*
D03*
X368046Y84632D02*
D03*
Y103632D02*
D03*
X211612Y606636D02*
D03*
Y625636D02*
D03*
X61983Y503207D02*
D03*
Y522207D02*
D03*
X129178Y410800D02*
D03*
Y429800D02*
D03*
X107605Y410800D02*
D03*
Y429800D02*
D03*
Y382861D02*
D03*
Y363861D02*
D03*
X86031Y382861D02*
D03*
Y363861D02*
D03*
X129178Y382861D02*
D03*
Y363861D02*
D03*
X211612Y544114D02*
D03*
Y563114D02*
D03*
D23*
X168130Y836580D02*
D03*
Y858579D02*
D03*
X208630Y836580D02*
D03*
Y858579D02*
D03*
D24*
X172631Y969962D02*
D03*
X192631D02*
D03*
X212631D02*
D03*
X232791D02*
D03*
X252857D02*
D03*
X272669D02*
D03*
D25*
X150631Y1016462D02*
D03*
X294767D02*
D03*
D26*
X661245Y534716D02*
D03*
Y503916D02*
D03*
X657245Y534716D02*
D03*
Y503916D02*
D03*
X653245Y534716D02*
D03*
Y503916D02*
D03*
X649245Y534716D02*
D03*
Y503916D02*
D03*
X645245Y534716D02*
D03*
Y503916D02*
D03*
X641245Y534716D02*
D03*
Y503916D02*
D03*
X637245Y534716D02*
D03*
Y503916D02*
D03*
X633245Y534716D02*
D03*
Y503916D02*
D03*
X629245Y534716D02*
D03*
Y503916D02*
D03*
X625245Y534716D02*
D03*
Y503916D02*
D03*
X621245Y534716D02*
D03*
Y503916D02*
D03*
X617245Y534716D02*
D03*
Y503916D02*
D03*
X613245Y534716D02*
D03*
Y503916D02*
D03*
X609245Y534716D02*
D03*
Y503916D02*
D03*
X605245Y534716D02*
D03*
Y503916D02*
D03*
X601245Y534716D02*
D03*
Y503916D02*
D03*
X597245Y534716D02*
D03*
Y503916D02*
D03*
X593245Y534716D02*
D03*
Y503916D02*
D03*
X589245Y534716D02*
D03*
Y503916D02*
D03*
X585245Y534716D02*
D03*
Y503916D02*
D03*
X581245Y534716D02*
D03*
Y503916D02*
D03*
X577245Y534716D02*
D03*
Y503916D02*
D03*
X573245Y534716D02*
D03*
Y503916D02*
D03*
X569245Y534716D02*
D03*
Y503916D02*
D03*
X565245Y534716D02*
D03*
Y503916D02*
D03*
X561245Y534716D02*
D03*
Y503916D02*
D03*
X557245Y534716D02*
D03*
Y503916D02*
D03*
X553245Y534716D02*
D03*
Y503916D02*
D03*
X549245Y534716D02*
D03*
Y503916D02*
D03*
X545245Y534716D02*
D03*
Y503916D02*
D03*
X541245Y534716D02*
D03*
Y503916D02*
D03*
X537245Y534716D02*
D03*
Y503916D02*
D03*
X533245Y534716D02*
D03*
Y503916D02*
D03*
X529245Y534716D02*
D03*
Y503916D02*
D03*
X525245Y534716D02*
D03*
Y503916D02*
D03*
X521245Y534716D02*
D03*
Y503916D02*
D03*
X517245Y534716D02*
D03*
Y503916D02*
D03*
X513245Y534716D02*
D03*
Y503916D02*
D03*
X509245Y534716D02*
D03*
Y503916D02*
D03*
X505245Y534716D02*
D03*
Y503916D02*
D03*
X501245Y534716D02*
D03*
Y503916D02*
D03*
X497245Y534716D02*
D03*
Y503916D02*
D03*
X493245Y534716D02*
D03*
Y503916D02*
D03*
X489245Y534716D02*
D03*
Y503916D02*
D03*
X485245Y534716D02*
D03*
Y503916D02*
D03*
X481245Y534716D02*
D03*
Y503916D02*
D03*
X477245Y534716D02*
D03*
Y503916D02*
D03*
X473245Y534716D02*
D03*
Y503916D02*
D03*
X469245Y534716D02*
D03*
Y503916D02*
D03*
X465245Y534716D02*
D03*
Y503916D02*
D03*
X661245Y195516D02*
D03*
Y164716D02*
D03*
X657245Y195516D02*
D03*
Y164716D02*
D03*
X653245Y195516D02*
D03*
Y164716D02*
D03*
X649245Y195516D02*
D03*
Y164716D02*
D03*
X645245Y195516D02*
D03*
Y164716D02*
D03*
X641245Y195516D02*
D03*
Y164716D02*
D03*
X637245Y195516D02*
D03*
Y164716D02*
D03*
X633245Y195516D02*
D03*
Y164716D02*
D03*
X629245Y195516D02*
D03*
Y164716D02*
D03*
X625245Y195516D02*
D03*
Y164716D02*
D03*
X621245Y195516D02*
D03*
Y164716D02*
D03*
X617245Y195516D02*
D03*
Y164716D02*
D03*
X613245Y195516D02*
D03*
Y164716D02*
D03*
X609245Y195516D02*
D03*
Y164716D02*
D03*
X605245Y195516D02*
D03*
Y164716D02*
D03*
X601245Y195516D02*
D03*
Y164716D02*
D03*
X597245Y195516D02*
D03*
Y164716D02*
D03*
X593245Y195516D02*
D03*
Y164716D02*
D03*
X589245Y195516D02*
D03*
Y164716D02*
D03*
X585245Y195516D02*
D03*
Y164716D02*
D03*
X581245Y195516D02*
D03*
Y164716D02*
D03*
X577245Y195516D02*
D03*
Y164716D02*
D03*
X573245Y195516D02*
D03*
Y164716D02*
D03*
X569245Y195516D02*
D03*
Y164716D02*
D03*
X565245Y195516D02*
D03*
Y164716D02*
D03*
X561245Y195516D02*
D03*
Y164716D02*
D03*
X557245Y195516D02*
D03*
Y164716D02*
D03*
X553245Y195516D02*
D03*
Y164716D02*
D03*
X549245Y195516D02*
D03*
Y164716D02*
D03*
X545245Y195516D02*
D03*
Y164716D02*
D03*
X541245Y195516D02*
D03*
Y164716D02*
D03*
X537245Y195516D02*
D03*
Y164716D02*
D03*
X533245Y195516D02*
D03*
Y164716D02*
D03*
X529245Y195516D02*
D03*
Y164716D02*
D03*
X525245Y195516D02*
D03*
Y164716D02*
D03*
X521245Y195516D02*
D03*
Y164716D02*
D03*
X517245Y195516D02*
D03*
Y164716D02*
D03*
X513245Y195516D02*
D03*
Y164716D02*
D03*
X509245Y195516D02*
D03*
Y164716D02*
D03*
X505245Y195516D02*
D03*
Y164716D02*
D03*
X501245Y195516D02*
D03*
Y164716D02*
D03*
X497245Y195516D02*
D03*
Y164716D02*
D03*
X493245Y195516D02*
D03*
Y164716D02*
D03*
X489245Y195516D02*
D03*
Y164716D02*
D03*
X485245Y195516D02*
D03*
Y164716D02*
D03*
X481245Y195516D02*
D03*
Y164716D02*
D03*
X477245Y195516D02*
D03*
Y164716D02*
D03*
X473245Y195516D02*
D03*
Y164716D02*
D03*
X469245Y195516D02*
D03*
Y164716D02*
D03*
X465245Y195516D02*
D03*
Y164716D02*
D03*
D27*
X432681Y848141D02*
D03*
D28*
Y843315D02*
D03*
Y838235D02*
D03*
Y833155D02*
D03*
Y828329D02*
D03*
Y823249D02*
D03*
Y818169D02*
D03*
Y813343D02*
D03*
Y808263D02*
D03*
Y803183D02*
D03*
Y798357D02*
D03*
Y793277D02*
D03*
Y788197D02*
D03*
Y783117D02*
D03*
Y778291D02*
D03*
Y773211D02*
D03*
Y768131D02*
D03*
Y763305D02*
D03*
Y758225D02*
D03*
Y753145D02*
D03*
Y748105D02*
D03*
Y743105D02*
D03*
Y738105D02*
D03*
Y733105D02*
D03*
Y728105D02*
D03*
Y723105D02*
D03*
Y718105D02*
D03*
Y713105D02*
D03*
Y708105D02*
D03*
Y703105D02*
D03*
X485850Y848141D02*
D03*
Y843315D02*
D03*
Y838235D02*
D03*
Y833155D02*
D03*
Y828329D02*
D03*
Y823249D02*
D03*
Y818169D02*
D03*
Y813343D02*
D03*
Y808263D02*
D03*
Y803183D02*
D03*
Y798357D02*
D03*
Y793277D02*
D03*
Y788197D02*
D03*
Y783117D02*
D03*
Y778291D02*
D03*
Y773211D02*
D03*
Y768131D02*
D03*
Y763305D02*
D03*
Y758225D02*
D03*
Y753145D02*
D03*
Y748105D02*
D03*
Y743105D02*
D03*
Y738105D02*
D03*
Y733105D02*
D03*
Y728105D02*
D03*
Y723105D02*
D03*
Y718105D02*
D03*
Y713105D02*
D03*
Y708105D02*
D03*
Y703105D02*
D03*
X432681Y698105D02*
D03*
X485850D02*
D03*
X432681Y693105D02*
D03*
X485850D02*
D03*
X432681Y688105D02*
D03*
X485850D02*
D03*
X432681Y683105D02*
D03*
X485850D02*
D03*
X432681Y678105D02*
D03*
X485850D02*
D03*
X432681Y673105D02*
D03*
X485850D02*
D03*
X432681Y668105D02*
D03*
X485850D02*
D03*
X432681Y663105D02*
D03*
X485850D02*
D03*
X432681Y658105D02*
D03*
X485850D02*
D03*
X432681Y653105D02*
D03*
X485850D02*
D03*
D29*
X459351Y630605D02*
D03*
Y870747D02*
D03*
D30*
X162140Y414291D02*
D03*
Y401591D02*
D03*
Y388891D02*
D03*
Y376191D02*
D03*
X215900D02*
D03*
Y388891D02*
D03*
Y401591D02*
D03*
Y414291D02*
D03*
D31*
X189020Y395241D02*
D03*
D32*
X141224Y752588D02*
D03*
Y757588D02*
D03*
Y767588D02*
D03*
Y772588D02*
D03*
X149574D02*
D03*
Y767588D02*
D03*
Y757588D02*
D03*
Y752588D02*
D03*
X266979Y202939D02*
D03*
Y207939D02*
D03*
Y217939D02*
D03*
Y222939D02*
D03*
X275329D02*
D03*
Y217939D02*
D03*
Y207939D02*
D03*
Y202939D02*
D03*
X266979Y256239D02*
D03*
Y261239D02*
D03*
Y271239D02*
D03*
Y276239D02*
D03*
X275329D02*
D03*
Y271239D02*
D03*
Y261239D02*
D03*
Y256239D02*
D03*
D33*
X124253Y924529D02*
D03*
Y860529D02*
D03*
Y916529D02*
D03*
Y868529D02*
D03*
Y792118D02*
D03*
Y728118D02*
D03*
Y784118D02*
D03*
Y736118D02*
D03*
D34*
Y890029D02*
D03*
Y895029D02*
D03*
Y885029D02*
D03*
Y880029D02*
D03*
Y875029D02*
D03*
Y900029D02*
D03*
Y905029D02*
D03*
Y910029D02*
D03*
Y757618D02*
D03*
Y762618D02*
D03*
Y752618D02*
D03*
Y747618D02*
D03*
Y742618D02*
D03*
Y767618D02*
D03*
Y772618D02*
D03*
Y777618D02*
D03*
D35*
X373048Y132334D02*
D03*
X392508D02*
D03*
D36*
X83268Y826405D02*
D03*
X112468D02*
D03*
X189568Y928603D02*
D03*
X160368D02*
D03*
D37*
X109251Y478779D02*
D03*
X90252D02*
D03*
X99752Y456780D02*
D03*
D38*
X83510Y525907D02*
D03*
X90110D02*
D03*
X96710D02*
D03*
X103310D02*
D03*
D39*
X93410Y515982D02*
D03*
D40*
X103310Y496057D02*
D03*
X96710D02*
D03*
X90110D02*
D03*
X83510D02*
D03*
D41*
X634500Y686000D02*
D03*
X633500Y665174D02*
D03*
D42*
X663687Y131565D02*
D03*
Y69565D02*
D03*
D43*
X123553Y519339D02*
D03*
X142553D02*
D03*
Y489559D02*
D03*
X123553D02*
D03*
X251647Y361365D02*
D03*
X232647D02*
D03*
X232507Y385687D02*
D03*
X251507D02*
D03*
X215052Y358137D02*
D03*
X196052D02*
D03*
X131064Y329946D02*
D03*
X112064D02*
D03*
X112830Y138430D02*
D03*
X131830D02*
D03*
X83743Y697055D02*
D03*
X64743D02*
D03*
X126630D02*
D03*
X107630D02*
D03*
X108797Y955721D02*
D03*
X127797D02*
D03*
X62884D02*
D03*
X81884D02*
D03*
X309548Y139510D02*
D03*
X328548D02*
D03*
X57660Y469780D02*
D03*
X76660D02*
D03*
X123553Y459780D02*
D03*
X142553D02*
D03*
X251732Y337042D02*
D03*
X232732D02*
D03*
X701242Y124514D02*
D03*
X720242D02*
D03*
X701242Y100332D02*
D03*
X720242D02*
D03*
X701242Y76150D02*
D03*
X720242D02*
D03*
X214630Y336550D02*
D03*
X195630D02*
D03*
X161230Y358111D02*
D03*
X180230D02*
D03*
X251408Y410010D02*
D03*
X232408D02*
D03*
X716863Y572871D02*
D03*
X735863D02*
D03*
X715900Y611785D02*
D03*
X734900D02*
D03*
X289154Y239589D02*
D03*
X270154D02*
D03*
D44*
X164727Y481032D02*
D03*
X246728D02*
D03*
D45*
X417592Y1012595D02*
D03*
X316042D02*
D03*
X724415D02*
D03*
X622865D02*
D03*
X511486D02*
D03*
X434882D02*
D03*
X605384D02*
D03*
X528780D02*
D03*
D46*
X398288Y981095D02*
D03*
X385588D02*
D03*
X373142D02*
D03*
X360542D02*
D03*
X348042D02*
D03*
X335542D02*
D03*
X705111D02*
D03*
X692411D02*
D03*
X679965D02*
D03*
X667365D02*
D03*
X654865D02*
D03*
X642365D02*
D03*
X491928D02*
D03*
X479482D02*
D03*
X466882D02*
D03*
X454382D02*
D03*
X585826D02*
D03*
X573380D02*
D03*
X560780D02*
D03*
X548280D02*
D03*
D47*
X172418Y75159D02*
D03*
X182418D02*
D03*
X192418D02*
D03*
X202418D02*
D03*
X212418D02*
D03*
X222418D02*
D03*
X232418D02*
D03*
X242418D02*
D03*
X252418D02*
D03*
X262418D02*
D03*
X272418D02*
D03*
X282418D02*
D03*
X292418D02*
D03*
X302418D02*
D03*
X312418D02*
D03*
D48*
X172418Y112659D02*
D03*
X182418D02*
D03*
X192418D02*
D03*
X202418D02*
D03*
X212418D02*
D03*
X222418D02*
D03*
X232418D02*
D03*
X242418D02*
D03*
X252418D02*
D03*
X262418D02*
D03*
X272418D02*
D03*
X282418D02*
D03*
X292418D02*
D03*
X302418D02*
D03*
X312418D02*
D03*
D49*
X689935Y186598D02*
D03*
Y173598D02*
D03*
D50*
X667318Y632168D02*
D03*
D51*
X690318Y573668D02*
D03*
X667318D02*
D03*
X644318D02*
D03*
M02*
